<?xml version="1.0" encoding="UTF-8"?>
<svg id="_Слой_1" data-name="Слой 1" xmlns="http://www.w3.org/2000/svg" xmlns:xlink="http://www.w3.org/1999/xlink" viewBox="0 0 70.27 66.25">
  <defs>
    <style>
      .cls-1 {
        fill: #777657;
      }

      .cls-1, .cls-2, .cls-3, .cls-4, .cls-5, .cls-6 {
        stroke-width: 0px;
      }

      .cls-3 {
        fill: #68613e;
      }

      .cls-4 {
        fill: #917d74;
        opacity: .4;
      }

      .cls-5 {
        fill: none;
      }

      .cls-7 {
        clip-path: url(#clippath-1);
      }

      .cls-8 {
        fill: #261e10;
        stroke-width: .25px;
      }

      .cls-8, .cls-9 {
        stroke: #000;
      }

      .cls-8, .cls-9, .cls-10 {
        stroke-linecap: round;
        stroke-linejoin: round;
      }

      .cls-11 {
        opacity: .3;
      }

      .cls-6 {
        fill: url(#_Безымянный_градиент_6);
      }

      .cls-12 {
        clip-path: url(#clippath);
      }

      .cls-9 {
        fill: #454f1c;
      }

      .cls-10 {
        fill: #e4ce92;
        stroke: #261e10;
      }
    </style>
    <clipPath id="clippath">
      <rect class="cls-5" x="740.2" y="29.79" width="123.64" height="231.88"/>
    </clipPath>
    <clipPath id="clippath-1">
      <rect class="cls-5" x="425.96" y="29.79" width="306.9" height="231.88"/>
    </clipPath>
    <linearGradient id="_Безымянный_градиент_6" data-name="Безымянный градиент 6" x1="882.51" y1="-135.98" x2="882.51" y2="191.09" gradientUnits="userSpaceOnUse">
      <stop offset="0" stop-color="#8a5d32"/>
      <stop offset="1" stop-color="#d37c1c"/>
    </linearGradient>
  </defs>
  <g class="cls-12">
    <g class="cls-11">
      <path class="cls-1" d="m943.87,32.39l.21,2.02c-132,8.08-310.04,3.3-473.25,7.59l3.84-7.63c-43.53,5.45-93.15,9.19-133.96,15.38l15.89,1.01c-14.46,4.47-51.56,7.87-74.5,7.35l2.22-2c31.38-1.71-2.14-.6,10.47-6.24l5.44-1.1-3.21-.9-5.44,1.1c.59-1.15.09-2.59,5.24-3.12l-7.28-.07c-15.76-5.06-15.88-9.68-14.04-15.71-4.09.82.3,6.63-17.19,5.01l2.24-2-19.04,3.85-8.56-2.39c-6.79,1.37-11.16,2.77-18.16,2.12l-2.04,4.02c-31.28-.91-70.62,4.46-102.39,2.09-6.89,3.97-24-.83-41.67,2.73l7.69,4.12c19.24,5.39,63.93,1.56,94.93,3.03l-1.17,2.29c-6.49.8-11.15,2.76-19.22,1.82l-2.03,4.01c13.84,13.7,55.76-4.03,67.04-2.19,23.91,3.42-15.43,8.79-4.05,8.04-26.13,5.79,22.08,9.46,33.27,13.89,31.04,8.68,98.75,2.71,139.56,1.65,67.89-11.18,158.88-2.9,221.86-4.4,30.23.54,78.52-15.51,98.13-3.54l56.67,1.29-1.16,2.3c55.11-.46,115.8-7.23,167.18-10.07,22.45-1,29.12-7.01,39.46-.89,44.72,3.17,97.13-6.61,140.65-8.38-.21-2.02,5.8-4.3-2.27-5.2-22.24,3.04-48.01-1.44-48.92-6.93l8.35.34-14.99-4.13-9.51,1.97c-2.47-1.3-3.59-2.34-3.78-3.2-16.43-1.58-30.79-6.12-47.84-9.05-12,1.76-25.71,2.4-44.66.11Z"/>
    </g>
    <path class="cls-3" d="m93.91,73.89c18.45-32.2,55.3-43.36,80.31-30.45,25.89,13.37,28.56,47.11,28.68,48.98,18.18-6.76,38.36-2.14,50.74,11.47,15.74,17.29,10.62,40,10.15,41.92,3.09-2.77,22.39-19.51,49.86-16.33,19.4,2.25,31.95,13.16,36.18,17.21-4.75-19.49,4.11-39.13,20.3-47.21,12.63-6.31,28.22-4.82,40.6,3.53,6.61-21.95,26.26-37.09,48.1-37.51,18.83-.36,36.57,10.26,45.89,27.36,23.23,42.6,70.21,73.46,83.63,120.1,13.42,46.63,5.14,101.19-28.77,135.91-25.68,26.29-62.65,38.66-99.08,43.51-71.48,9.51-144.1-6.6-212.12-30.56-68.02-23.96-133.08-55.75-201.24-79.3-25.16-8.69-51.78-16.88-70.62-35.69-30.57-30.52-30.75-83.87-5.63-119.01C-3.99,92.7,50.76,71.92,93.91,73.89Z"/>
  </g>
  <g class="cls-7">
    <path class="cls-6" d="m-107.91-649.83V654.81h1980.83V-649.83H-107.91ZM1063.06,567.51s-.05-.09-.08-.13c-.01-.02-.01-.02-.02-.03,0,0,0,0-.02-.02-.06-.07-.12-.13-.19-.18-.01,0-.03-.02-.04-.03-.03-.02-.07-.04-.1-.06-.02-.01-.05-.03-.07-.04.02.07.02.15,0,.23-.07.25-.36.44-.62.35-.34-.12-.7-.28-1.06-.34-.02,0-.14,0-.15,0-.08,0-.16,0-.24,0-.16,0-.31,0-.46-.02-.66-.08-1.18-.84-1.13-1.5.03-.38.4-.62.75-.43.05.03.09.05.14.07,0,0,0,0,0,0,0,0,0,0,.02,0,.09.03.18.06.27.09.19.05.39.09.58.12.39.06.74.09,1.17.17.84.14,1.64.47,2.09,1.24.33.56-.54,1.06-.86.5Zm4.97-.29c-.17-.07-.35-.12-.48-.13-.08,0-.17,0-.25,0-.06,0-.14.01-.16.01-.89.58-2.35.24-2.88-.67-.22-.38.14-.85.56-.73.31.09.54.28.77.49.03.02.05.03.08.05,0,0,0,0,.01,0,.03,0,.06.02.09.03,0,0,0,0,0,0,0,0,0,0,.01,0,.05,0,.1,0,.15,0,.08,0,.16,0,.23-.02.05,0,.09-.01.18-.03.08-.01.17-.03.25-.04.17-.03.35-.06.52-.08-.05-.2.06-.44.23-.55.25-.15.53-.04.68.18.18.25.37.49.56.74.24.34-.17.9-.56.73Zm1.24-5.02c-.05-.12-.12-.22-.19-.32-.11.12-.27.19-.46.15-1.03-.21-2.06-.02-3.1.05-.65.05-1.3.01-1.94,0-1.27-.03-2.93-.13-3.91.83-.4.39-1.09-.12-.79-.61.57-.92,1.4-1.16,2.4-1.42,1.22-.31,2.47-.59,3.73-.57,1.24.01,2.47.34,3.71.34.32,0,.56-.07.82.17.33.3.55.72.7,1.12.23.6-.74.86-.96.27Zm2.39,3.85c-.09.1-.22.14-.35.15-.02,0-.03,0-.05-.01-.09.14-.2.28-.35.38-.2.14-.49.15-.69.01-.22-.14-.33-.39-.39-.63-.06-.27.08-.53.35-.62.12-.04.27-.01.38.05.04-.09.07-.18.09-.28,0,.04-.01.08-.02.12,0-.07.01-.13.04-.19.02-.06.05-.12.1-.16.06-.06.14-.1.22-.13.11-.03.23-.02.33.03.06.02.12.05.16.1l.08.1c.16.21.25.47.25.73,0,.13-.06.26-.15.35Z"/>
    <path class="cls-3" d="m-171.14-28.29c34.41-60.1,103.17-80.93,149.82-56.83C26.98-60.16,31.96,2.83,32.18,6.31c33.92-12.62,71.56-3.99,94.67,21.41,29.36,32.28,19.8,74.67,18.93,78.25,5.76-5.16,41.77-36.41,93.02-30.47,36.19,4.19,59.61,24.57,67.5,32.12-8.86-36.38,7.66-73.04,37.87-88.13,23.57-11.78,52.65-9.01,75.73,6.59,12.33-40.96,48.99-69.22,89.73-70.01,35.12-.68,68.22,19.16,85.61,51.07,43.34,79.52,130.99,137.12,156.02,224.17,25.03,87.05,9.58,188.88-53.68,253.68-47.91,49.08-116.88,72.17-184.84,81.21-133.36,17.75-268.84-12.32-395.73-57.04-126.89-44.72-248.27-104.07-375.43-148.02-46.94-16.23-96.6-31.5-131.75-66.61-57.03-56.96-57.37-156.55-10.5-222.13C-353.79,6.81-251.64-31.97-171.14-28.29Z"/>
    <path class="cls-4" d="m563.86-12.79c-11.56,13.79-37.55,12.43-47.77,11.9-12.01-.62-19.26-3.15-27.11-4.78-6.03-1.25-12.41-1.97-21.56-.89-1.81.21-6.74.79-11.53,2.06-5.14,1.35-10.11,3.49-10.84,6.79-.97,4.35,5.82,8.74,6.76,9.32,14.62,9.25,33.43-2.17,39.47,4.27,4.61,4.91.08,18.34-9.64,25.65-11.48,8.63-28.88,7.74-56.71,6.34-15.27-.78-24.38-2.43-33.53,2.93-7.57,4.44-6.24,8.44-12.53,14.05-6.01,5.35-13.63,7.4-78.19,3.81-11.82-.66-20.59-1.26-26.28-7.08-6.51-6.66-2.76-13.8-9.41-18.19-7.78-5.12-23.04-2.07-28.35,4.95-3.26,4.31.28,7.82-1.71,12.56-5.83,13.8-47.31,11.5-81.45,9.6-23.12-1.28-32.13-3.33-36.21-9.78-3.52-5.57-3.39-14.44,1.74-19.44,8.51-8.32,25.65-.93,31.73-9.12,2.41-3.23,2.29-7.84.31-10.77-2.7-4-9.96-6.53-34.13-3.91-39.11,4.25-46.43,13.72-61.14,9.21-10.4-3.18-19.54-11.85-22.92-21.17-1.43-3.91-1.85-7.95-.92-11.74,3.61-14.76,26.67-22.27,41.41-23.74,18.84-1.88,23.17,6.2,56.42,8.29,12.43.78,29.93,1.76,33.07-4.55,1.72-3.44-1.01-8.76-5.04-11.13-5.34-3.15-10.29.46-18.51-.59-9.68-1.23-20.19-8.43-21.14-16.34-1.36-11.28,17.11-20.54,22.38-23.17,3.32-1.67,21.91-10.61,43.87-6.32,16.04,3.14,17.18,10.07,30.27,9.75,11.59-.28,12.8-5.78,28.73-7.75,6.82-.84,18.4-2.27,28.16,3.6,2.1,1.27,12.19,7.73,10.78,15.87-1.47,8.49-14.4,12.6-15.46,12.92-12.23,3.74-19.92-2.54-26.39,2.31-3.69,2.76-5.5,8.03-3.71,11.35,3.74,6.89,22.57,4.57,28.5,3.85,21.01-2.58,25.49-9.61,46.19-15.62,11.21-3.26,30.14-8.76,50.6-4.43,20.53,4.35,23.63,14.56,43.95,16,10.26.72,17.74-1.29,30.54-4.88,33.9-9.49,36.98-19.06,57.37-23.76,26.06-6.02,61.69.25,72.57,19.49.06.11.13.22.19.33,5.22,9.53,4.71,22.93-2.83,31.94Z"/>
  </g>
  <g>
    <path class="cls-2" d="m39.89,66c8.45,0,17-.73,25.42-2.16.73-.12,1.96-.33,2.84-2.34,1.01-2.3,1.08-5.78,1.11-7.66.11-6.31.14-12.7.09-19-.01-1.34,0-2.8.01-4.34.03-4.54.07-9.69-.47-13.95-.76-5.92-3.02-6.1-4.24-6.2-.7-.06-1.45-.08-2.29-.08-1,0-2.01.04-3.01.08-.87.03-1.73.07-2.6.07l-48.89.45c-1.7.02-4.27.04-6.1,3.75C-.04,18.27-.5,23.99-.7,28.58c-.28,6.44-.25,12.96.09,19.37.2,3.79.6,8.04,1.97,10.85,1.26,2.59,2.92,2.97,4.13,3.25,11.38,2.62,22.95,3.95,34.4,3.95Z"/>
    <path class="cls-8" d="m7.86,13.71c-1.87.02-3.92.18-5.35,3.09-1.41,2.87-1.85,7.64-2.04,12.07-.27,6.22-.24,12.51.09,18.71.18,3.32.51,6.89,1.56,9.05.94,1.93,2.25,2.31,3.48,2.59,19.81,4.57,39.77,5.17,59.62,1.79.75-.13,1.57-.33,2.12-1.58.62-1.4.7-3.67.74-5.71.11-6.27.14-12.55.09-18.82-.04-5.39.25-12.35-.41-17.52-.48-3.71-1.71-4.09-3.16-4.2-2.61-.21-5.24.05-7.85.07-10.49.1-20.98.19-31.47.29-5.81.05-11.61.11-17.42.16Z"/>
    <path class="cls-10" d="m7.86.85c-1.87.02-3.92.18-5.35,3.09C1.1,6.81.66,11.58.47,16.02c-.27,6.22-.24,12.51.09,18.71.18,3.32.51,6.89,1.56,9.05.94,1.93,2.25,2.31,3.48,2.59,19.81,4.57,39.77,5.17,59.62,1.79.75-.13,1.57-.33,2.12-1.58.62-1.4.7-3.67.74-5.71.11-6.27.14-12.55.09-18.82-.04-5.39.25-12.35-.41-17.52-.48-3.71-1.71-4.09-3.16-4.2-2.61-.21-5.24.05-7.85.07-10.49.1-20.98.19-31.47.29-5.81.05-11.61.11-17.42.16Z"/>
  </g>
  <path class="cls-9" d="m28.23,8.95c-5.33,4.69-12.67,13.55-16.57,19.48,6.77,3.27,12.95,7.75,18.16,13.18.56-3.09.81-6.23.76-9.37,7.61-.04,15.22-.09,22.83-.13,1.26-5.58,1.61-11.37,1.03-17.06-8.46-.11-16.93.23-25.35,1.03-.29-2.37-.57-4.75-.86-7.12Z"/>
</svg>