<?xml version="1.0" encoding="UTF-8"?>
<svg id="_Слой_1" data-name="Слой 1" xmlns="http://www.w3.org/2000/svg" xmlns:xlink="http://www.w3.org/1999/xlink" viewBox="0 0 70.27 66.25">
  <defs>
    <style>
      .cls-1 {
        fill: #ffd972;
        stroke: #4d3712;
      }

      .cls-1, .cls-2, .cls-3, .cls-4 {
        stroke-linecap: round;
        stroke-linejoin: round;
      }

      .cls-2 {
        fill: #4d3712;
      }

      .cls-2, .cls-3 {
        stroke-width: .25px;
      }

      .cls-2, .cls-3, .cls-4 {
        stroke: #000;
      }

      .cls-5 {
        fill: #6b5c25;
      }

      .cls-5, .cls-6, .cls-7, .cls-8, .cls-9, .cls-10, .cls-11, .cls-12, .cls-13, .cls-14, .cls-15 {
        stroke-width: 0px;
      }

      .cls-16 {
        clip-path: url(#clippath-2);
      }

      .cls-6 {
        fill: #777657;
      }

      .cls-8 {
        fill: #68613e;
      }

      .cls-9 {
        fill: #917d74;
        opacity: .4;
      }

      .cls-10, .cls-3 {
        fill: none;
      }

      .cls-17 {
        clip-path: url(#clippath-1);
      }

      .cls-11 {
        fill: url(#_Безымянный_градиент_6-2);
      }

      .cls-18 {
        opacity: .3;
      }

      .cls-12 {
        fill: #604b42;
      }

      .cls-13 {
        fill: url(#_Безымянный_градиент_6);
      }

      .cls-19 {
        clip-path: url(#clippath);
      }

      .cls-4 {
        fill: #454f1c;
      }

      .cls-14 {
        fill: #cca69b;
      }

      .cls-15 {
        fill: #553b24;
      }
    </style>
    <clipPath id="clippath">
      <rect class="cls-10" x="559.76" y="29.79" width="123.64" height="231.88"/>
    </clipPath>
    <linearGradient id="_Безымянный_градиент_6" data-name="Безымянный градиент 6" x1="478.05" y1="13.3" x2="478.05" y2="164.54" gradientUnits="userSpaceOnUse">
      <stop offset="0" stop-color="#8a5d32"/>
      <stop offset="1" stop-color="#d37c1c"/>
    </linearGradient>
    <clipPath id="clippath-1">
      <rect class="cls-10" x="245.52" y="-189.51" width="215.27" height="211.96"/>
    </clipPath>
    <clipPath id="clippath-2">
      <rect class="cls-10" x="245.52" y="29.79" width="306.9" height="231.88"/>
    </clipPath>
    <linearGradient id="_Безымянный_градиент_6-2" data-name="Безымянный градиент 6" x1="702.07" y1="-135.98" x2="702.07" y2="191.09" xlink:href="#_Безымянный_градиент_6"/>
    <clipPath id="clippath-3">
      <path class="cls-3" d="m563.3,576.79c-96.03,14.85-208.93,29.32-310.16,24.18-17.45-.88-34.56-2.35-51.17-4.5-10.91-53.2-10.97-149.08-7.51-203.28,6.01-94.37,2.62-161.19,31.6-216.57,43.53-83.16,111.86-124.64,176.5-123.03,62.34,1.52,121.25,43.14,151.17,126.08,21.01,58.26,15.97,141.01,9.86,237.03-2.61,41.04,1.23,119-.29,160.09Z"/>
    </clipPath>
  </defs>
  <g class="cls-19">
    <rect class="cls-13" x="-52.56" y="-224.32" width="1061.21" height="603.29"/>
    <g class="cls-18">
      <path class="cls-6" d="m763.43,32.39l.21,2.02c-132,8.08-310.04,3.3-473.25,7.59l3.84-7.63c-43.53,5.45-93.15,9.19-133.96,15.38l15.89,1.01c-14.46,4.47-51.56,7.87-74.5,7.35l2.22-2c31.38-1.71-2.14-.6,10.47-6.24l5.44-1.1-3.21-.9-5.44,1.1c.59-1.15.09-2.59,5.24-3.12l-7.28-.07c-15.76-5.06-15.88-9.68-14.04-15.71-4.09.82.3,6.63-17.19,5.01l2.24-2-19.04,3.85-8.56-2.39c-6.79,1.37-11.16,2.77-18.16,2.12l-2.04,4.02c-31.28-.91-70.62,4.46-102.39,2.09-6.89,3.97-24-.83-41.67,2.73l7.69,4.12c19.24,5.39,63.93,1.56,94.93,3.03l-1.17,2.29c-6.49.8-11.15,2.76-19.22,1.82l-2.03,4.01c13.84,13.7,55.76-4.03,67.04-2.19,23.91,3.42-15.43,8.79-4.05,8.04-26.13,5.79,22.08,9.46,33.27,13.89,31.04,8.68,98.75,2.71,139.56,1.65,67.89-11.18,158.88-2.9,221.86-4.4,30.23.54,78.52-15.51,98.13-3.54l56.67,1.29-1.16,2.3c55.11-.46,115.8-7.23,167.18-10.07,22.45-1,29.12-7.01,39.46-.89,44.72,3.17,97.13-6.61,140.65-8.38-.21-2.02,5.8-4.3-2.27-5.2-22.24,3.04-48.01-1.44-48.92-6.93l8.35.34-14.99-4.13-9.51,1.97c-2.47-1.3-3.59-2.34-3.78-3.2-16.43-1.58-30.79-6.12-47.84-9.05-12,1.76-25.71,2.4-44.66.11Z"/>
    </g>
    <path class="cls-8" d="m-86.53,73.89C-68.09,41.69-31.23,30.54-6.23,43.45c25.89,13.37,28.56,47.11,28.68,48.98,18.18-6.76,38.36-2.14,50.74,11.47,15.74,17.29,10.62,40,10.15,41.92,3.09-2.77,22.39-19.51,49.86-16.33,19.4,2.25,31.95,13.16,36.18,17.21-4.75-19.49,4.11-39.13,20.3-47.21,12.63-6.31,28.22-4.82,40.6,3.53,6.61-21.95,26.26-37.09,48.1-37.51,18.83-.36,36.57,10.26,45.89,27.36,23.23,42.6,70.21,73.46,83.63,120.1,13.42,46.63,5.14,101.19-28.77,135.91-25.68,26.29-62.65,38.66-99.08,43.51-71.48,9.51-144.1-6.6-212.12-30.56C-.09,337.87-65.15,306.07-133.31,282.52c-25.16-8.69-51.78-16.88-70.62-35.69-30.57-30.52-30.75-83.87-5.63-119.01,25.13-35.13,79.88-55.91,123.03-53.94Z"/>
    <path class="cls-9" d="m307.34,82.19c-6.19,7.39-20.12,6.66-25.59,6.37-6.43-.33-10.32-1.69-14.52-2.56-3.23-.67-6.65-1.05-11.55-.47-.97.11-3.61.43-6.18,1.1-2.75.72-5.41,1.87-5.81,3.64-.52,2.33,3.12,4.68,3.62,5,7.83,4.96,17.91-1.16,21.15,2.29,2.47,2.63.04,9.82-5.16,13.74-6.15,4.62-15.47,4.15-30.38,3.39-8.18-.42-13.06-1.3-17.96,1.57-4.06,2.38-3.34,4.52-6.71,7.53-3.22,2.87-7.3,3.96-41.89,2.04-6.33-.35-11.03-.67-14.08-3.79-3.49-3.57-1.48-7.4-5.04-9.74-4.17-2.75-12.34-1.11-15.19,2.65-1.74,2.31.15,4.19-.92,6.73-3.12,7.39-25.35,6.16-43.63,5.14-12.39-.69-17.21-1.78-19.4-5.24-1.88-2.98-1.81-7.73.93-10.42,4.56-4.45,13.74-.5,17-4.89,1.29-1.73,1.23-4.2.17-5.77-1.45-2.15-5.34-3.5-18.29-2.09-20.95,2.28-24.88,7.35-32.76,4.93-5.57-1.71-10.47-6.35-12.28-11.34-.77-2.1-.99-4.26-.49-6.29,1.93-7.91,14.29-11.93,22.18-12.72,10.09-1.01,12.41,3.32,30.23,4.44,6.66.42,16.03.94,17.72-2.44.92-1.84-.54-4.69-2.7-5.96-2.86-1.69-5.51.25-9.92-.31-5.19-.66-10.81-4.52-11.33-8.76-.73-6.05,9.17-11,11.99-12.41,1.78-.89,11.74-5.69,23.5-3.39,8.59,1.68,9.21,5.39,16.22,5.22,6.21-.15,6.86-3.1,15.39-4.15,3.65-.45,9.86-1.22,15.09,1.93,1.12.68,6.53,4.14,5.77,8.5-.79,4.55-7.71,6.75-8.28,6.92-6.55,2-10.67-1.36-14.14,1.24-1.98,1.48-2.94,4.3-1.99,6.08,2,3.69,12.09,2.45,15.27,2.06,11.26-1.38,13.66-5.15,24.75-8.37,6.01-1.75,16.15-4.69,27.11-2.37,11,2.33,12.66,7.8,23.55,8.57,5.5.39,9.51-.69,16.36-2.61,18.16-5.08,19.81-10.21,30.73-12.73,13.96-3.22,33.05.13,38.88,10.44.03.06.07.12.1.18,2.79,5.11,2.52,12.29-1.52,17.11Z"/>
    <g>
      <path class="cls-14" d="m110.68,51.86l4.75.74c-.48,2.92-.8,5.93-2.33,8.43-1.39,2.28-3.65,3.92-5.08,6.17-3.03,4.75-1.72,10.9-.8,16.44.94,5.54.99,12.2-3.4,15.69-1.41,1.11-3.13,1.75-4.54,2.86-2.41,1.87-3.66,4.85-4.79,7.69s-2.33,5.82-4.71,7.79c-2.35,1.95-6.23,2.41-8.29.15-.67-.74-1.09-1.69-1.68-2.5-1.77-2.32-4.93-3.08-7.13-5-4.58-3.96-3.77-11.07-2.49-17.06,1.17,0,2.36.17,3.49.51,2.83.83,4.69-3.34,3.7-6.13-.87-2.49-2.86-4.54-3.63-7.02h.02c3.35-1.5,4.78-5.78,8.11-7.35,1.95-.93,4.28-.79,6.25-1.69,1.49-.68,2.66-1.9,3.72-3.13,3.12-3.6,5.82-7.54,8.03-11.77,1.17-2.19,2.22-4.5,3.94-6.29,1.75-1.76,4.36-2.94,6.74-2.18.3.88.38,1.79.31,2.67-.04.33-.09.65-.18.98Z"/>
      <path class="cls-12" d="m85.63,232.16c.5-1.28.19-2.75-.43-3.98-2.14-4.14-7.34-5.61-10.56-8.99-.87-.93-1.62-2.03-2.63-2.81-.7-.56-1.52-.96-2.35-1.36-.92-4.86-1.74-11.72-2.68-16.59-.77-4.07-1.52-8.41.09-12.23,1.43-3.4,4.58-5.96,5.6-9.52,1.24-4.31-.96-8.8-1.04-13.28-.1-5.5,2.97-11.42.28-16.24-2.04-3.67-7.2-6.15-6.56-10.31,2.19-13.93,1.74-28.29-1.31-42.06,1.89-1.01,4.01-1.53,6.16-1.51-1.28,5.98-2.1,13.1,2.49,17.06,2.2,1.92,5.36,2.68,7.13,5,.59.81,1.01,1.76,1.68,2.5,2.06,2.26,5.95,1.8,8.29-.15,2.38-1.97,3.57-4.94,4.71-7.79s2.38-5.82,4.79-7.69c1.41-1.11,3.13-1.75,4.54-2.86,4.39-3.49,4.34-10.15,3.4-15.69-.93-5.54-2.23-11.69.8-16.44,1.43-2.25,3.68-3.89,5.08-6.17,1.53-2.5,1.85-5.51,2.33-8.43.05-.41.12-.83.21-1.24.51-2.65,1.53-5.42,3.46-7.12,2.32,25.84-.65,52.17-8.77,76.83-1.64,4.98,1.53,10.1,3.27,15.05,2.6,7.34,2.06,15.27.72,23.05l-4.58-.56c.39-2.67-1.68-5.36-3.92-5.6-2.25-.23-4.35,1.54-5.44,3.9-1.07,2.37-1.26,5.2-1.06,7.94.38,5.64,2.19,11.07,2.74,16.71.4,4.23.09,8.5.6,12.71.51,4.22,2.09,8.61,5.16,10.73,2.99-3.71-.39-11.04,2.4-14.96l4.1-1.84c2.59,7.93-.43,17.35-.1,26.06.05.99.14,2.03.64,2.89.96,1.69,3.07,2.25,4.69,3.3,4.17,2.7,4.91,8.39,5.22,13.34.61,9.72,1.23,19.51.07,29.17-.1.93-.22,1.95.31,2.73s1.54,1.07,2.49,1.16c5.34.44,10.65-3.94,15.69-2.1,2.89,1.05,4.73,3.92,5.9,6.77,1.19,2.84,1.96,5.92,3.74,8.43,2.51,3.53,6.74,5.5,11,6.27,4.26.77,8.62.48,12.95.35,2.16-.06,4.4-.07,6.34.84,1.96.92,4.07,3.03,3.68,5.15-2.84-2.79-7.49-1.92-11.38-1.04-5.06,1.16-10.49,1.98-15.34.13-2.45-.93-4.59-2.48-6.69-4.02-2.59-1.87-5.23-3.77-8.25-4.85-3-1.06-6.5-1.22-9.29.34-.56.31-1.1.71-1.37,1.29-.72,1.53.76,3.16,2.2,4.03,1.42.88,3.17,1.85,3.32,3.52.29,3.22-5.49,4.3-5.43,7.53.04,1.38,1.23,2.48,2.52,2.96,1.28.47,2.69.47,4.05.68,5.67.84,10.38,5.13,11.65,10.74-6.65-5.31-17.49.42-24.64-4.19-1.67-2.65-.81-6.13.4-9.01,1.23-2.89,2.8-5.86,2.38-8.97-.46-3.53-3.38-6.23-6.49-7.96-5.53-3.12-13.31-3.73-17.64.93-.69.75-1.3,1.63-2.21,2.09-2.99,1.48-7.07-2.42-9.65-.28-.93.77-1.2,2.08-1.76,3.19-2.07,4.15-7.74,4.66-12.36,4.23-4.64-.43-9.97-1-13.28,2.26-2.59,2.56-2.89,6.55-3.3,10.16-.41,3.62-1.43,7.69-4.64,9.39-2.81,1.51-6.25.62-9.45.56-4.91-.08-9.12,2.19-12.44,5.81-.8-3.3.98-7.06,4.05-8.55,3.12-1.5,7.15-.76,9.93-2.86,2.78-2.08,3.16-6.08,2.88-9.57-.28-3.47-.94-7.15.59-10.28,1.68-3.44,5.61-5.22,9.39-5.93,3.78-.7,7.71-.63,11.38-1.72,1.22-.36,2.58-1.05,2.79-2.31.23-1.39-1.1-2.52-2.32-3.24-2.35-1.39-4.98-2.53-7.7-2.4-4.78.21-8.47,4.02-12.2,7.03-3.71,3.02-9.14,5.42-13.07,2.71-2.24-1.56-3.24-4.3-4.88-6.46-1.64-2.16-4.87-3.8-6.98-2.1-1.36,1.08-1.6,3-2.18,4.64-1.66,4.71-7.23,7.67-12.07,6.4-2.11-.55-4.68-1.68-6.21-.12-1.7,1.72-.06,4.65-.49,7.01-.38,2.14-2.49,3.6-4.61,3.95-2.13.34-3.82-.1-5.91-.64,2.41-1.27,5.2-3.19,4.94-5.91-.12-1.3-.93-2.39-1.49-3.58-.95-2-1.12-4.42-.19-6.42.95-2.01,3.08-3.47,5.29-3.34,1.22.06,2.36.58,3.53.89,4.27,1.12,9.17-.73,11.66-4.39,1.48-2.19,2.13-4.89,3.84-6.9,1.96-2.31,5.22-3.42,8.18-2.76,5.61,1.25,9.85,8.07,15.39,6.61,1.51-.4,2.77-1.38,4.09-2.18,3.08-1.84,6.62-2.83,9.63-4.77,2.99-1.94,5.54-5.38,4.79-8.88-.32-1.58-1.27-2.95-1.61-4.51-.34-1.6-.03-3.26.29-4.86,1.03-5.26,2.07-10.53,3.1-15.79l.06-.07c1.9,2.17,4.6,3.63,7.46,4.08,2.5.4,5.56-.33,6.45-2.69Z"/>
    </g>
  </g>
  <g class="cls-17">
    <path class="cls-8" d="m117.84-156.79c9.12-15.93,27.34-21.44,39.7-15.06,12.8,6.61,14.12,23.3,14.18,24.23,8.99-3.34,18.96-1.06,25.09,5.67,7.78,8.55,5.25,19.79,5.02,20.73,1.53-1.37,11.07-9.65,24.65-8.08,9.59,1.11,15.79,6.51,17.89,8.51-2.35-9.64,2.03-19.35,10.03-23.35,6.25-3.12,13.95-2.39,20.07,1.75,3.27-10.86,12.98-18.34,23.78-18.55,9.31-.18,18.08,5.08,22.69,13.53,11.49,21.07,34.71,36.34,41.34,59.4s2.54,50.05-14.22,67.22c-12.7,13-30.97,19.12-48.98,21.52-35.34,4.7-71.24-3.27-104.86-15.11-33.62-11.85-65.79-27.58-99.48-39.22-12.44-4.3-25.6-8.35-34.91-17.65-15.11-15.09-15.2-41.48-2.78-58.86s39.49-27.65,60.82-26.68Z"/>
  </g>
  <g class="cls-16">
    <path class="cls-11" d="m-288.35-649.83V654.81h1980.83V-649.83H-288.35ZM882.61,567.51s-.05-.09-.08-.13c-.01-.02-.01-.02-.02-.03,0,0,0,0-.02-.02-.06-.07-.12-.13-.19-.18-.01,0-.03-.02-.04-.03-.03-.02-.07-.04-.1-.06-.02-.01-.05-.03-.07-.04.02.07.02.15,0,.23-.07.25-.36.44-.62.35-.34-.12-.7-.28-1.06-.34-.02,0-.14,0-.15,0-.08,0-.16,0-.24,0-.16,0-.31,0-.46-.02-.66-.08-1.18-.84-1.13-1.5.03-.38.4-.62.75-.43.05.03.09.05.14.07,0,0,0,0,0,0,0,0,0,0,.02,0,.09.03.18.06.27.09.19.05.39.09.58.12.39.06.74.09,1.17.17.84.14,1.64.47,2.09,1.24.33.56-.54,1.06-.86.5Zm4.97-.29c-.17-.07-.35-.12-.48-.13-.08,0-.17,0-.25,0-.06,0-.14.01-.16.01-.89.58-2.35.24-2.88-.67-.22-.38.14-.85.56-.73.31.09.54.28.77.49.03.02.05.03.08.05,0,0,0,0,.01,0,.03,0,.06.02.09.03,0,0,0,0,0,0,0,0,0,0,.01,0,.05,0,.1,0,.15,0,.08,0,.16,0,.23-.02.05,0,.09-.01.18-.03.08-.01.17-.03.25-.04.17-.03.35-.06.52-.08-.05-.2.06-.44.23-.55.25-.15.53-.04.68.18.18.25.37.49.56.74.24.34-.17.9-.56.73Zm1.24-5.02c-.05-.12-.12-.22-.19-.32-.11.12-.27.19-.46.15-1.03-.21-2.06-.02-3.1.05-.65.05-1.3.01-1.94,0-1.27-.03-2.93-.13-3.91.83-.4.39-1.09-.12-.79-.61.57-.92,1.4-1.16,2.4-1.42,1.22-.31,2.47-.59,3.73-.57,1.24.01,2.47.34,3.71.34.32,0,.56-.07.82.17.33.3.55.72.7,1.12.23.6-.74.86-.96.27Zm2.39,3.85c-.09.1-.22.14-.35.15-.02,0-.03,0-.05-.01-.09.14-.2.28-.35.38-.2.14-.49.15-.69.01-.22-.14-.33-.39-.39-.63-.06-.27.08-.53.35-.62.12-.04.27-.01.38.05.04-.09.07-.18.09-.28,0,.04-.01.08-.02.12,0-.07.01-.13.04-.19.02-.06.05-.12.1-.16.06-.06.14-.1.22-.13.11-.03.23-.02.33.03.06.02.12.05.16.1l.08.1c.16.21.25.47.25.73,0,.13-.06.26-.15.35Z"/>
    <path class="cls-8" d="m-351.59-28.29c34.41-60.1,103.17-80.93,149.82-56.83C-153.46-60.16-148.48,2.83-148.26,6.31-114.34-6.31-76.7,2.31-53.6,27.72c29.36,32.28,19.8,74.67,18.93,78.25,5.76-5.16,41.77-36.41,93.02-30.47,36.19,4.19,59.61,24.57,67.5,32.12-8.86-36.38,7.66-73.04,37.87-88.13,23.57-11.78,52.65-9.01,75.73,6.59,12.33-40.96,48.99-69.22,89.73-70.01,35.12-.68,68.22,19.16,85.61,51.07,43.34,79.52,130.99,137.12,156.02,224.17,25.03,87.05,9.58,188.88-53.68,253.68-47.91,49.08-116.88,72.17-184.84,81.21-133.36,17.75-268.84-12.32-395.73-57.04-126.89-44.72-248.27-104.07-375.43-148.02-46.94-16.23-96.6-31.5-131.75-66.61-57.03-56.96-57.37-156.55-10.5-222.13C-534.24,6.81-432.09-31.97-351.59-28.29Z"/>
    <path class="cls-9" d="m383.42-12.79C371.86,1,345.87-.36,335.65-.89c-12.01-.62-19.26-3.15-27.11-4.78-6.03-1.25-12.41-1.97-21.56-.89-1.81.21-6.74.79-11.53,2.06-5.14,1.35-10.11,3.49-10.84,6.79-.97,4.35,5.82,8.74,6.76,9.32,14.62,9.25,33.43-2.17,39.47,4.27,4.61,4.91.08,18.34-9.64,25.65-11.48,8.63-28.88,7.74-56.71,6.34-15.27-.78-24.38-2.43-33.53,2.93-7.57,4.44-6.24,8.44-12.53,14.05-6.01,5.35-13.63,7.4-78.19,3.81-11.82-.66-20.59-1.26-26.28-7.08-6.51-6.66-2.76-13.8-9.41-18.19-7.78-5.12-23.04-2.07-28.35,4.95-3.26,4.31.28,7.82-1.71,12.56-5.83,13.8-47.31,11.5-81.45,9.6-23.12-1.28-32.13-3.33-36.21-9.78-3.52-5.57-3.39-14.44,1.74-19.44,8.51-8.32,25.65-.93,31.73-9.12,2.41-3.23,2.29-7.84.31-10.77-2.7-4-9.96-6.53-34.13-3.91-39.11,4.25-46.43,13.72-61.14,9.21-10.4-3.18-19.54-11.85-22.92-21.17-1.43-3.91-1.85-7.95-.92-11.74,3.61-14.76,26.67-22.27,41.41-23.74,18.84-1.88,23.17,6.2,56.42,8.29,12.43.78,29.93,1.76,33.07-4.55,1.72-3.44-1.01-8.76-5.04-11.13-5.34-3.15-10.29.46-18.51-.59-9.68-1.23-20.19-8.43-21.14-16.34-1.36-11.28,17.11-20.54,22.38-23.17,3.32-1.67,21.91-10.61,43.87-6.32,16.04,3.14,17.18,10.07,30.27,9.75,11.59-.28,12.8-5.78,28.73-7.75,6.82-.84,18.4-2.27,28.16,3.6,2.1,1.27,12.19,7.73,10.78,15.87-1.47,8.49-14.4,12.6-15.46,12.92-12.23,3.74-19.92-2.54-26.39,2.31-3.69,2.76-5.5,8.03-3.71,11.35,3.74,6.89,22.57,4.57,28.5,3.85,21.01-2.58,25.49-9.61,46.19-15.62,11.21-3.26,30.14-8.76,50.6-4.43,20.53,4.35,23.63,14.56,43.95,16,10.26.72,17.74-1.29,30.54-4.88,33.9-9.49,36.98-19.06,57.37-23.76,26.06-6.02,61.69.25,72.57,19.49.06.11.13.22.19.33,5.22,9.53,4.71,22.93-2.83,31.94Z"/>
    <g>
      <path class="cls-15" d="m1400.29,243.52c-41.76-78.71-105.45-152.35-176.14-224.38-49.93-50.88-109.09-101.31-163.96-146.81-78.01-64.68-175.39-102.81-274.79-122.55-99.39-19.73-201.38-21.98-302.72-21.39-64.75.38-131.18,2.21-191.18,26.53-87.29,35.38-149.07,113-206.77,187.45-8.67,11.19-17.53,22.75-21.32,36.39-3.79,13.64,18.79,44.28,29.82,53.15C39.39,135.18,4.27,238.31.42,341.23c-2.72,163.74-5.76,257.3-5.76,257.3,0,0,476.64,11.02,578.84,8.3,201.36-5.37,732.95-8.18,923.45-19.52-15.5-133.72-36.39-221.98-96.65-343.79Zm-517.68,323.99s-.05-.09-.08-.13c-.01-.02-.01-.02-.02-.03,0,0,0,0-.02-.02-.06-.07-.12-.13-.19-.18-.01,0-.03-.02-.04-.03-.03-.02-.07-.04-.1-.06-.02-.01-.05-.03-.07-.04.02.07.02.15,0,.23-.07.25-.36.44-.62.35-.34-.12-.7-.28-1.06-.34-.02,0-.14,0-.15,0-.08,0-.16,0-.24,0-.16,0-.31,0-.46-.02-.66-.08-1.18-.84-1.13-1.5.03-.38.4-.62.75-.43.05.03.09.05.14.07,0,0,0,0,0,0,0,0,0,0,.02,0,.09.03.18.06.27.09.19.05.39.09.58.12.39.06.74.09,1.17.17.84.14,1.64.47,2.09,1.24.33.56-.54,1.06-.86.5Zm4.97-.29c-.17-.07-.35-.12-.48-.13-.08,0-.17,0-.25,0-.06,0-.14.01-.16.01-.89.58-2.35.24-2.88-.67-.22-.38.14-.85.56-.73.31.09.54.28.77.49.03.02.05.03.08.05,0,0,0,0,.01,0,.03,0,.06.02.09.03,0,0,0,0,0,0,0,0,0,0,.01,0,.05,0,.1,0,.15,0,.08,0,.16,0,.23-.02.05,0,.09-.01.18-.03.08-.01.17-.03.25-.04.17-.03.35-.06.52-.08-.05-.2.06-.44.23-.55.25-.15.53-.04.68.18.18.25.37.49.56.74.24.34-.17.9-.56.73Zm1.24-5.02c-.05-.12-.12-.22-.19-.32-.11.12-.27.19-.46.15-1.03-.21-2.06-.02-3.1.05-.65.05-1.3.01-1.94,0-1.27-.03-2.93-.13-3.91.83-.4.39-1.09-.12-.79-.61.57-.92,1.4-1.16,2.4-1.42,1.22-.31,2.47-.59,3.73-.57,1.24.01,2.47.34,3.71.34.32,0,.56-.07.82.17.33.3.55.72.7,1.12.23.6-.74.86-.96.27Zm2.39,3.85c-.09.1-.22.14-.35.15-.02,0-.03,0-.05-.01-.09.14-.2.28-.35.38-.2.14-.49.15-.69.01-.22-.14-.33-.39-.39-.63-.06-.27.08-.53.35-.62.12-.04.27-.01.38.05.04-.09.07-.18.09-.28,0,.04-.01.08-.02.12,0-.07.01-.13.04-.19.02-.06.05-.12.1-.16.06-.06.14-.1.22-.13.11-.03.23-.02.33.03.06.02.12.05.16.1l.08.1c.16.21.25.47.25.73,0,.13-.06.26-.15.35Z"/>
      <path class="cls-3" d="m-5.35,598.53L0,341.63C3.85,238.72,38.97,135.58,92.82,32.31c-11.03-8.87-33.61-39.52-29.82-53.15,3.79-13.64,12.65-25.2,21.32-36.39,57.7-74.44,119.48-152.07,206.77-187.45,60.01-24.32,126.44-26.16,191.18-26.53,101.33-.59,203.32,1.66,302.72,21.39,99.39,19.73,196.78,57.87,274.79,122.55,54.87,45.5,114.04,95.94,163.96,146.81,70.68,72.03,134.37,145.67,176.14,224.38,0,0,76.44,128.34,97.07,343.38"/>
      <g>
        <path class="cls-5" d="m1250.53-3.16c-12.12,25.99-45.69,26.98-53.19,26.9-29.64-.3-50.92-21.41-64.78-35.16-7.94-7.89-11.72-13.37-14.88-18.5,5.26,20.47,1.66,39.9-9.74,51.39-17.74,17.86-48.5,10.56-58.44,8.2-33.55-7.95-53.25-33.52-62.42-45.43-8.1-10.51-11.47-17.73-13.95-24.48-6.71,8.89-18.94,21.19-37.17,24.63-30.37,5.72-53.84-17.6-63.04-26.73-12.67-12.59-19.75-26.71-23.73-38.47-1.19,13.55-5.47,28.53-15.72,42.76C807.8-2.44,765.9-.94,757.81-.84c-5.93.07-47.99-.12-74.56-33.14-2.17-2.69-4.16-5.52-5.97-8.44-2.6,8.8-7.14,19.29-15.23,29.24-24.17,29.74-64.81,36.07-95.03,29.73-11.58-2.42-51.48-10.8-64.61-46.7-3.47-9.5-4.49-19.35-3.55-28.93-3.25,1.02-6.68,2.39-10.21,4.19-18.04,9.27-22.34,22.32-33.42,34.23-18.04,19.39-51.78,33.7-80.48,24.41-3-.97-33.68-11.45-42.84-40.78-4.52-14.48-2.15-28.27,2.73-40.06-6.53,2.46-13.58,6.13-20.23,11.69-11.38,9.51-16.5,20.29-23.91,36.52-22.1,48.45-21.63,51.52-26.55,60.22-20.17,35.62-74.88,66.64-120.76,50.23-21.58-7.71-41.32-25.96-50.38-49.25-6.96,3.68-17.83,7.92-30.79,6.98C29.73,36.93,1.02,3.58,2.01-28.9c1.16-38.31,43.17-60.53,46.37-62.16,20.39-10.42,32.07-5.33,50.41-18.74,17.61-12.9,24.55-30.54,28.24-39.09,23.35-54.31,70.36-102.65,88.75-121.57,40.31-41.44,82.81-57.77,139.86-79.68,96.13-36.93,177.64-39.76,224.47-40.98,56.57-1.48,128.39-2.72,216.43,25.89,31.69,10.3,110.75,36.82,185.84,101.94,34.02,29.5,35.66,39.54,79.3,74.71,53.43,43.05,79.07,66.83,117.32,83.95,13.64,6.11,38.96,16.28,57.15,41.87,6.05,8.51,25.5,35.77,14.38,59.6Z"/>
        <path class="cls-3" d="m92.82,32.31c-6.96,3.68-17.83,7.92-30.79,6.98C29.73,36.93,1.02,3.58,2.01-28.9c1.16-38.31,43.17-60.53,46.37-62.16,20.39-10.42,32.07-5.33,50.41-18.74,17.61-12.9,24.55-30.54,28.24-39.09,23.35-54.31,70.36-102.65,88.75-121.57,40.31-41.44,82.81-57.77,139.86-79.68,96.13-36.93,177.64-39.76,224.47-40.98,56.57-1.48,128.39-2.72,216.43,25.89,31.69,10.3,110.75,36.82,185.84,101.94,34.02,29.5,35.66,39.54,79.3,74.71,53.43,43.05,79.07,66.83,117.32,83.95,13.64,6.11,38.96,16.28,57.15,41.87,6.05,8.51,25.5,35.77,14.38,59.6-12.12,25.99-45.69,26.98-53.2,26.9-29.64-.3-50.92-21.41-64.78-35.16-19.29-19.13-13.98-24.13-35.04-44.26-15.76-15.05-23.77-17.08-45.82-35.48-15.4-12.85-26.71-24.56-33.55-32.05"/>
      </g>
      <path class="cls-3" d="m563.3,576.79c-96.03,14.85-208.93,29.32-310.16,24.18-17.45-.88-34.56-2.35-51.17-4.5-10.91-53.2-10.97-149.08-7.51-203.28,6.01-94.37,2.62-161.19,31.6-216.57,43.53-83.16,111.86-124.64,176.5-123.03,62.34,1.52,121.25,43.14,151.17,126.08,21.01,58.26,15.97,141.01,9.86,237.03-2.61,41.04,1.23,119-.29,160.09Z"/>
    </g>
  </g>
  <g>
    <path class="cls-7" d="m40.78,66c8.45,0,17-.73,25.42-2.16.73-.12,1.96-.33,2.84-2.34,1.01-2.3,1.08-5.78,1.11-7.66.11-6.31.14-12.7.09-19-.01-1.34,0-2.8.01-4.34.03-4.54.07-9.69-.47-13.95-.76-5.92-3.02-6.1-4.24-6.2-.7-.06-1.45-.08-2.29-.08-1,0-2.01.04-3.01.08-.87.03-1.73.07-2.6.07l-48.89.45c-1.7.02-4.27.04-6.1,3.75C.85,18.27.39,23.99.19,28.58c-.28,6.44-.25,12.96.09,19.37.2,3.79.6,8.04,1.97,10.85,1.26,2.59,2.92,2.97,4.13,3.25,11.38,2.62,22.95,3.95,34.4,3.95Z"/>
    <path class="cls-2" d="m8.75,13.71c-1.87.02-3.92.18-5.35,3.09-1.41,2.87-1.85,7.64-2.04,12.07-.27,6.22-.24,12.51.09,18.71.18,3.32.51,6.89,1.56,9.05.94,1.93,2.25,2.31,3.48,2.59,19.81,4.57,39.77,5.17,59.62,1.79.75-.13,1.57-.33,2.12-1.58.62-1.4.7-3.67.74-5.71.11-6.27.14-12.55.09-18.82-.04-5.39.25-12.35-.41-17.52-.48-3.71-1.71-4.09-3.16-4.2-2.61-.21-5.24.05-7.85.07-10.49.1-20.98.19-31.47.29-5.81.05-11.61.11-17.42.16Z"/>
    <path class="cls-1" d="m8.75.85c-1.87.02-3.92.18-5.35,3.09-1.41,2.87-1.85,7.64-2.04,12.07-.27,6.22-.24,12.51.09,18.71.18,3.32.51,6.89,1.56,9.05.94,1.93,2.25,2.31,3.48,2.59,19.81,4.57,39.77,5.17,59.62,1.79.75-.13,1.57-.33,2.12-1.58.62-1.4.7-3.67.74-5.71.11-6.27.14-12.55.09-18.82-.04-5.39.25-12.35-.41-17.52-.48-3.71-1.71-4.09-3.16-4.2-2.61-.21-5.24.05-7.85.07-10.49.1-20.98.19-31.47.29-5.81.05-11.61.11-17.42.16Z"/>
  </g>
  <path class="cls-4" d="m28.23,8.95c-5.33,4.69-12.67,13.55-16.57,19.48,6.77,3.27,12.95,7.75,18.16,13.18.56-3.09.81-6.23.76-9.37,7.61-.04,15.22-.09,22.83-.13,1.26-5.58,1.61-11.37,1.03-17.06-8.46-.11-16.93.23-25.35,1.03-.29-2.37-.57-4.75-.86-7.12Z"/>
</svg>