<?xml version="1.0" encoding="UTF-8"?>
<svg id="_Слой_1" data-name="Слой 1" xmlns="http://www.w3.org/2000/svg" xmlns:xlink="http://www.w3.org/1999/xlink" viewBox="0 0 70.27 66.25">
  <defs>
    <style>
      .cls-1, .cls-2, .cls-3 {
        stroke-width: 0px;
      }

      .cls-2 {
        fill: #68613e;
      }

      .cls-3 {
        fill: none;
      }

      .cls-4 {
        fill: #261e10;
        stroke-width: .25px;
      }

      .cls-4, .cls-5 {
        stroke: #000;
      }

      .cls-4, .cls-5, .cls-6 {
        stroke-linecap: round;
        stroke-linejoin: round;
      }

      .cls-7 {
        clip-path: url(#clippath);
      }

      .cls-5 {
        fill: #454f1c;
      }

      .cls-6 {
        fill: #e4ce92;
        stroke: #261e10;
      }
    </style>
    <clipPath id="clippath">
      <rect class="cls-3" x="607.3" y="29.79" width="306.9" height="231.88"/>
    </clipPath>
  </defs>
  <g class="cls-7">
    <path class="cls-2" d="m10.19-28.29c34.41-60.1,103.17-80.93,149.82-56.83C208.31-60.16,213.29,2.83,213.51,6.31c33.92-12.62,71.56-3.99,94.67,21.41,29.36,32.28,19.8,74.67,18.93,78.25,5.76-5.16,41.77-36.41,93.02-30.47,36.19,4.19,59.61,24.57,67.5,32.12-8.86-36.38,7.66-73.04,37.87-88.13,23.57-11.78,52.65-9.01,75.73,6.59,12.33-40.96,48.99-69.22,89.73-70.01,35.12-.68,68.22,19.16,85.61,51.07,43.34,79.52,130.99,137.12,156.02,224.17,25.03,87.05,9.58,188.88-53.68,253.68-47.91,49.08-116.88,72.17-184.84,81.21-133.36,17.75-268.84-12.32-395.73-57.04-126.89-44.72-248.27-104.07-375.43-148.02-46.94-16.23-96.6-31.5-131.75-66.61-57.03-56.96-57.37-156.55-10.5-222.13C-172.46,6.81-70.31-31.97,10.19-28.29Z"/>
  </g>
  <path class="cls-1" d="m40.77,66.25c8.45,0,17-.73,25.42-2.16.73-.12,1.96-.33,2.84-2.34,1.01-2.3,1.08-5.78,1.11-7.66.11-6.31.14-12.7.09-19-.01-1.34,0-2.8.01-4.34.03-4.54.07-9.69-.47-13.95-.76-5.92-3.02-6.1-4.24-6.2-.7-.06-1.45-.08-2.29-.08-1,0-2.01.04-3.01.08-.87.03-1.73.07-2.6.07l-48.89.45c-1.7.02-4.27.04-6.1,3.75C.85,18.52.39,24.24.19,28.83c-.28,6.44-.25,12.96.09,19.37.2,3.79.6,8.04,1.97,10.85,1.26,2.59,2.92,2.97,4.13,3.25,11.38,2.62,22.95,3.95,34.4,3.95Z"/>
  <path class="cls-4" d="m8.75,13.96c-1.87.02-3.92.18-5.35,3.09-1.41,2.87-1.85,7.64-2.04,12.07-.27,6.22-.24,12.51.09,18.71.18,3.32.51,6.89,1.56,9.05.94,1.93,2.25,2.31,3.48,2.59,19.81,4.57,39.77,5.17,59.62,1.79.75-.13,1.57-.33,2.12-1.58.62-1.4.7-3.67.74-5.71.11-6.27.14-12.55.09-18.82-.04-5.39.25-12.35-.41-17.52-.48-3.71-1.71-4.09-3.16-4.2-2.61-.21-5.24.05-7.85.07-10.49.1-20.98.19-31.47.29-5.81.05-11.61.11-17.42.16Z"/>
  <path class="cls-6" d="m8.75,8.7c-1.87.02-3.92.18-5.35,3.09-1.41,2.87-1.85,7.64-2.04,12.07-.27,6.22-.24,12.51.09,18.71.18,3.32.51,6.89,1.56,9.05.94,1.93,2.25,2.31,3.48,2.59,19.81,4.57,39.77,5.17,59.62,1.79.75-.13,1.57-.33,2.12-1.58.62-1.4.7-3.67.74-5.71.11-6.27.14-12.55.09-18.82-.04-5.39.25-12.35-.41-17.52-.48-3.71-1.71-4.09-3.16-4.2-2.61-.21-5.24.05-7.85.07-10.49.1-20.98.19-31.47.29-5.81.05-11.61.11-17.42.16Z"/>
  <path class="cls-5" d="m28.23,17.56c-5.33,4.69-12.67,13.55-16.57,19.48,6.77,3.27,12.95,7.75,18.16,13.18.56-3.09.81-6.23.76-9.37,7.61-.04,15.22-.09,22.83-.13,1.26-5.58,1.61-11.37,1.03-17.06-8.46-.11-16.93.23-25.35,1.03-.29-2.37-.57-4.75-.86-7.12Z"/>
</svg>