<?xml version="1.0" encoding="UTF-8"?>
<svg id="_Слой_1" data-name="Слой 1" xmlns="http://www.w3.org/2000/svg" xmlns:xlink="http://www.w3.org/1999/xlink" viewBox="0 0 169.82 66.25">
  <defs>
    <style>
      .cls-1 {
        letter-spacing: -.02em;
      }

      .cls-2 {
        fill: #6b5c25;
      }

      .cls-2, .cls-3, .cls-4, .cls-5, .cls-6, .cls-7, .cls-8, .cls-9, .cls-10, .cls-11, .cls-12 {
        stroke-width: 0px;
      }

      .cls-3 {
        fill: #e2dfcf;
      }

      .cls-13 {
        clip-path: url(#clippath-2);
      }

      .cls-5 {
        fill: #231504;
      }

      .cls-6 {
        fill: #68613e;
      }

      .cls-7, .cls-14 {
        fill: none;
      }

      .cls-8 {
        fill: #6b6022;
      }

      .cls-15 {
        clip-path: url(#clippath-1);
      }

      .cls-16 {
        clip-path: url(#clippath-4);
      }

      .cls-9 {
        fill: url(#_Безымянный_градиент_6-2);
      }

      .cls-14, .cls-17 {
        stroke: #000;
        stroke-width: .25px;
      }

      .cls-14, .cls-17, .cls-18 {
        stroke-linecap: round;
        stroke-linejoin: round;
      }

      .cls-17 {
        fill: #261e10;
      }

      .cls-19 {
        letter-spacing: -.02em;
      }

      .cls-10 {
        fill: url(#_Безымянный_градиент_6);
      }

      .cls-20 {
        clip-path: url(#clippath);
      }

      .cls-18 {
        fill: #e4ce92;
        stroke: #261e10;
      }

      .cls-11 {
        fill: #575234;
      }

      .cls-21 {
        font-family: Excalifont-Regular, Excalifont;
        font-size: 15.76px;
      }

      .cls-12 {
        fill: #553b24;
      }
    </style>
    <clipPath id="clippath">
      <rect class="cls-7" x="789.98" y="-214.95" width="123.64" height="231.88"/>
    </clipPath>
    <clipPath id="clippath-1">
      <rect class="cls-7" x="-194.49" y="165.83" width="307.38" height="231.88"/>
    </clipPath>
    <linearGradient id="_Безымянный_градиент_6" data-name="Безымянный градиент 6" x1="-89.68" y1="192.32" x2="-89.68" y2="278.99" gradientUnits="userSpaceOnUse">
      <stop offset="0" stop-color="#8a5d32"/>
      <stop offset="1" stop-color="#d37c1c"/>
    </linearGradient>
    <clipPath id="clippath-2">
      <rect class="cls-7" x="475.74" y="-214.95" width="306.9" height="231.88"/>
    </clipPath>
    <linearGradient id="_Безымянный_градиент_6-2" data-name="Безымянный градиент 6" x1="932.28" y1="-380.72" x2="932.28" y2="-53.65" xlink:href="#_Безымянный_градиент_6"/>
    <clipPath id="clippath-3">
      <path class="cls-14" d="m793.52,332.05c-96.03,14.85-208.93,29.32-310.16,24.18-17.45-.88-34.56-2.35-51.17-4.5-10.91-53.2-10.97-149.08-7.51-203.28,6.01-94.37,2.62-161.19,31.6-216.57,43.53-83.16,111.86-124.64,176.5-123.03,62.34,1.52,121.25,43.14,151.17,126.08,21.01,58.26,15.97,141.01,9.86,237.03-2.61,41.04,1.23,119-.29,160.09Z"/>
    </clipPath>
    <clipPath id="clippath-4">
      <rect class="cls-7" x="475.74" y="339.43" width="215.27" height="226.39"/>
    </clipPath>
  </defs>
  <g class="cls-20">
    <path class="cls-6" d="m143.68-170.85c18.45-32.2,55.3-43.36,80.31-30.45,25.89,13.37,28.56,47.11,28.68,48.98,18.18-6.76,38.36-2.14,50.74,11.47,15.74,17.29,10.62,40,10.15,41.92,3.09-2.77,22.39-19.51,49.86-16.33,19.4,2.25,31.95,13.16,36.18,17.21-4.75-19.49,4.11-39.13,20.3-47.21,12.63-6.31,28.22-4.82,40.6,3.53,6.61-21.95,26.26-37.09,48.1-37.51,18.83-.36,36.57,10.26,45.89,27.36,23.23,42.6,70.21,73.46,83.63,120.1,13.42,46.63,5.14,101.19-28.77,135.91-25.68,26.29-62.65,38.66-99.08,43.51-71.48,9.51-144.1-6.6-212.12-30.56-68.02-23.96-133.08-55.75-201.24-79.3C71.74,29.09,45.12,20.9,26.28,2.09-4.29-28.42-4.47-81.78,20.65-116.91c25.13-35.13,79.88-55.91,123.03-53.94Z"/>
    <path class="cls-8" d="m1180.02-29.1c-22.23-.68-44.58-3.32-66.64-.4-47.69,6.31-90.77,38.13-138.85,36.35-9.35-.35-20.76-1.05-25.82,6.82,8.38-1.75,17.93-3.04,26.26-1.04,2.49.6,5.36,1.8,5.82,4.32.41,2.27-1.53,4.41-3.71,5.15-2.19.74-4.56.48-6.87.41-8.08-.21-16.2,2.27-22.79,6.95-5.31,3.78-9.7,8.97-15.67,11.61-7.27,3.21-15.59,2.1-23.53,2.22-7.94.12-16.92,2.24-20.78,9.18,5.2-2.81,12.28.12,17.17,3.45s8.68,8.03,13.27,11.76c7.42,6.03,16.96,9.39,26.52,9.36,4.79-.02,9.62-.85,14.34-.06s9.55,3.77,10.56,8.45c.95,4.41-1.87,8.94-5.65,11.4-3.78,2.46-8.36,3.3-12.8,4.08-10.67,1.89-21.67,3.78-32.27,1.49-10.26-2.21-19.26-8.13-28.82-12.47-9.56-4.34-20.85-7.07-30.39-2.69,9.81,1.7,18.99,3.8,27.24,9.37,1.6,1.08,3.24,2.33,3.91,4.15,1.59,4.31-3.53,8.54-8.12,8.36s-8.6-2.96-12.83-4.76c-16.8-7.18-36.12,1.12-54.29-.79-10.58-1.11-20.47-5.67-30.84-8.02-10.38-2.35-22.4-2.05-30.22,5.17,5.26,2.61,9.82,1.52,15.28,3.67,5.46,2.14,10.57,7.7,8.85,13.31-1.3,4.26-5.92,6.55-10.26,7.58-17.73,4.21-36.58-4.48-54.38-.55-12.58,2.78-22.88,11.45-33.85,18.21-10.97,6.76-24.75,11.8-36.54,6.6-5.68-2.51-10.38-7.21-16.43-8.61-8.71-2.01-17.2,3.31-25.79,5.76-22.75,6.47-47-7.46-70.31-3.47,3.6.23,6.53,1.47,8.46,4.52,1.93,3.05,3.02,6.54,4.58,9.8,4.39,9.15,12.74,16.31,22.46,19.24,4.83,1.46,10.45,2.23,13.39,6.32,2.92,4.06,1.75,10.08-1.64,13.75-3.39,3.68-8.44,5.37-13.4,6.03-17.03,2.27-33.55-5.91-48.54-14.3-14.99-8.38-30.71-17.49-47.88-17.26,7.47,1.78,13.76,4.27,19.94,8.83,1.71,1.26,3.45,2.76,4,4.81,1.18,4.42-3.63,8.11-8,9.46-9.35,2.89-19.46,1.69-29-.48-9.54-2.17-18.91-5.29-28.65-6.22-21.22-2.02-42.71,6.49-63.66,2.6-9.05-1.68-17.52-5.61-26.43-7.9-8.91-2.29-18.94-2.76-26.77,2.08,3.2-.1,5.01-.83,7.92.52,2.91,1.34,5.22,4.56,4.43,7.67-.76,2.99-3.94,4.66-6.91,5.47-14.68,3.97-30.67-4.35-45.26-.08-6.34,1.85-11.79,5.94-17.97,8.27-10.08,3.81-21.33,2.71-31.89.56-10.56-2.15-21.02-5.32-31.8-5.49-10.77-.17-22.29,3.22-28.85,11.77l-3.68,102.05,1075.16,38.73,14.2-394.23c-19.69,10.34-42.79,11.83-65.03,11.15Zm-67.19,351.87s-.05-.09-.08-.13c-.01-.02-.01-.02-.02-.03,0,0,0,0-.02-.02-.06-.07-.12-.13-.19-.18-.01,0-.03-.02-.04-.03-.03-.02-.07-.04-.1-.06-.02-.01-.05-.03-.07-.04.02.07.02.15,0,.23-.07.25-.36.44-.62.35-.34-.12-.7-.28-1.06-.34-.02,0-.14,0-.15,0-.08,0-.16,0-.24,0-.16,0-.31,0-.46-.02-.66-.08-1.18-.84-1.13-1.5.03-.38.4-.62.75-.43.05.03.09.05.14.07,0,0,0,0,0,0,0,0,0,0,.02,0,.09.03.18.06.27.09.19.05.39.09.58.12.39.06.74.09,1.17.17.84.14,1.64.47,2.09,1.24.33.56-.54,1.06-.86.5Zm4.97-.29c-.17-.07-.35-.12-.48-.13-.08,0-.17,0-.25,0-.06,0-.14.01-.16.01-.89.58-2.35.24-2.88-.67-.22-.38.14-.85.56-.73.31.09.54.28.77.49.03.02.05.03.08.05,0,0,0,0,.01,0,.03,0,.06.02.09.03,0,0,0,0,0,0,0,0,0,0,.01,0,.05,0,.1,0,.15,0,.08,0,.16,0,.23-.02.05,0,.09-.01.18-.03.08-.01.17-.03.25-.04.17-.03.35-.06.52-.08-.05-.2.06-.44.23-.55.25-.15.53-.04.68.18.18.25.37.49.56.74.24.34-.17.9-.56.73Zm1.24-5.02c-.05-.12-.12-.22-.19-.32-.11.12-.27.19-.46.15-1.03-.21-2.06-.02-3.1.05-.65.05-1.3.01-1.94,0-1.27-.03-2.93-.13-3.91.83-.4.39-1.09-.12-.79-.61.57-.92,1.4-1.16,2.4-1.42,1.22-.31,2.47-.59,3.73-.57,1.24.01,2.47.34,3.71.34.32,0,.56-.07.82.17.33.3.55.72.7,1.12.23.6-.74.86-.96.27Zm2.39,3.85c-.09.1-.22.14-.35.15-.02,0-.03,0-.05-.01-.09.14-.2.28-.35.38-.2.14-.49.15-.69.01-.22-.14-.33-.39-.39-.63-.06-.27.08-.53.35-.62.12-.04.27-.01.38.05.04-.09.07-.18.09-.28,0,.04-.01.08-.02.12,0-.07.01-.13.04-.19.02-.06.05-.12.1-.16.06-.06.14-.1.22-.13.11-.03.23-.02.33.03.06.02.12.05.16.1l.08.1c.16.21.25.47.25.73,0,.13-.06.26-.15.35Z"/>
  </g>
  <g class="cls-15">
    <rect class="cls-10" x="-351.72" y="56.16" width="524.07" height="345.71"/>
    <g>
      <path class="cls-12" d="m-225.14,108.65c-27.66,53.05-45.71,106.04-47.68,158.91-1.4,84.12-2.96,132.18-2.96,132.18,0,0,244.86,5.66,297.36,4.26,103.44-2.76,376.53-4.2,474.4-10.03-7.96-68.7-18.7-114.04-49.65-176.61-21.45-40.44-54.17-78.27-90.48-115.27-25.65-26.14-56.04-52.05-84.23-75.42C231.53-6.56,181.5-26.14,130.44-36.28c-51.06-10.14-103.45-11.29-155.51-10.99-33.26.19-67.39,1.14-98.21,13.63-44.84,18.17-76.58,58.05-106.22,96.3-4.45,5.75-9.01,11.69-10.95,18.69-1.95,7,9.65,22.75,15.32,27.31Z"/>
      <path class="cls-14" d="m-275.79,399.74l2.75-131.97c1.98-52.87,20.02-105.85,47.68-158.91-5.67-4.56-17.27-20.3-15.32-27.31,1.95-7,6.5-12.95,10.95-18.69,29.64-38.24,61.38-78.12,106.22-96.3,30.83-12.49,64.95-13.44,98.21-13.63,52.06-.3,104.45.85,155.51,10.99,51.06,10.14,101.09,29.73,141.16,62.96,28.19,23.37,58.58,49.28,84.23,75.42,36.31,37,69.03,74.83,90.48,115.27,0,0,39.27,65.93,49.87,176.4"/>
      <g>
        <path class="cls-2" d="m369.38,90.64c-6.23,13.35-23.47,13.86-27.33,13.82-15.23-.16-26.16-11-33.28-18.06-4.08-4.05-6.02-6.87-7.65-9.51,2.7,10.52.85,20.5-5,26.4-9.11,9.17-24.92,5.42-30.02,4.21-17.23-4.08-27.35-17.22-32.06-23.34-4.16-5.4-5.89-9.11-7.17-12.57-3.45,4.57-9.73,10.89-19.09,12.65-15.6,2.94-27.66-9.04-32.39-13.73-6.51-6.47-10.15-13.72-12.19-19.76-.61,6.96-2.81,14.66-8.07,21.97-13.18,18.3-34.71,19.07-38.86,19.12-3.05.04-24.65-.06-38.3-17.02-1.11-1.38-2.14-2.83-3.07-4.34-1.34,4.52-3.67,9.91-7.82,15.02-12.41,15.28-33.29,18.53-48.82,15.27-5.95-1.25-26.45-5.55-33.19-23.99-1.78-4.88-2.31-9.94-1.82-14.86-1.67.52-3.43,1.23-5.24,2.15-9.27,4.76-11.48,11.47-17.17,17.58-9.27,9.96-26.6,17.31-41.35,12.54-1.54-.5-17.3-5.88-22.01-20.95-2.32-7.44-1.1-14.52,1.4-20.58-3.36,1.26-6.97,3.15-10.39,6.01-5.84,4.89-8.48,10.42-12.28,18.76-11.35,24.89-11.11,26.47-13.64,30.94-10.36,18.3-38.47,34.23-62.04,25.81-11.08-3.96-21.23-13.34-25.88-25.3-3.57,1.89-9.16,4.07-15.82,3.59-16.59-1.21-31.34-18.35-30.83-35.03.6-19.68,22.18-31.09,23.82-31.94,10.48-5.35,16.47-2.74,25.9-9.63,9.05-6.62,12.61-15.69,14.51-20.08,12-27.9,36.15-52.73,45.59-62.45,20.71-21.29,42.54-29.68,71.85-40.94C-40.96-106.59.91-108.05,24.97-108.68c29.06-.76,65.96-1.4,111.19,13.3,16.28,5.29,56.9,18.92,95.47,52.37,17.47,15.15,18.32,20.31,40.74,38.38,27.45,22.12,40.62,34.33,60.27,43.13,7.01,3.14,20.01,8.36,29.36,21.51,3.11,4.37,13.1,18.37,7.38,30.62Z"/>
        <path class="cls-14" d="m-225.36,108.86c-3.57,1.89-9.16,4.07-15.82,3.59-16.59-1.21-31.34-18.35-30.83-35.03.6-19.68,22.18-31.09,23.82-31.94,10.48-5.35,16.47-2.74,25.9-9.63,9.05-6.63,12.61-15.69,14.51-20.08,12-27.9,36.15-52.73,45.59-62.45,20.71-21.29,42.54-29.68,71.85-40.94C-40.96-106.59.91-108.05,24.97-108.68c29.06-.76,65.96-1.4,111.19,13.3,16.28,5.29,56.9,18.92,95.47,52.37,17.47,15.15,18.32,20.31,40.74,38.38,27.45,22.12,40.62,34.33,60.27,43.13,7.01,3.14,20.01,8.36,29.36,21.51,3.11,4.37,13.1,18.37,7.38,30.62-6.23,13.35-23.47,13.86-27.33,13.82-15.23-.16-26.16-11-33.28-18.06-9.91-9.83-7.18-12.4-18-22.74-8.09-7.73-12.21-8.77-23.54-18.22-7.91-6.6-13.72-12.62-17.23-16.46"/>
        <path class="cls-14" d="m163.19,50.74c2.04,6.04,5.69,13.29,12.19,19.76,4.73,4.69,16.79,16.67,32.39,13.73,9.36-1.77,15.65-8.09,19.09-12.65"/>
        <path class="cls-14" d="m126.58-1.46c2.48.63,24.07,6.54,33.2,28.37.72,1.71,10.11,25.28-4.67,45.8-13.17,18.29-34.7,19.07-38.85,19.12-3.05.04-24.65-.06-38.3-17.03-12.77-15.87-13.35-39.99-.87-59.57"/>
        <path class="cls-14" d="m74.9,70.47c-1.34,4.52-3.67,9.91-7.82,15.02-12.41,15.28-33.29,18.53-48.82,15.27-5.95-1.25-26.45-5.55-33.19-23.99-1.78-4.88-2.31-9.94-1.82-14.86.88-9.11,5.19-17.75,11.3-23.92,10.02-10.11,22.63-11.27,26.11-11.47"/>
      </g>
    </g>
    <g>
      <path class="cls-3" d="m-144.24,152.9c2.13,5.78-1.13,12.17-.43,18.28.93,8.38,9.87,14.53,18.28,13.73,8.41-.76,17.89-8.08,20.98-15.96v-.03c-.56-1.73-1.06-3.49-1.53-5.25-.66-2.63,1.76-5.25,4.46-5.85-.17-2.49-2.83-4.99-5.12-5.95-2.29-1-4.95-2.83-4.52-5.29.3-1.76,2.19-2.89,3.99-2.83,1.76.03,3.39,1,4.79,2.13,3.62,2.93,6.15,7.18,7.01,11.77l-.13.6c.7.2,1.36.37,2.06.57,4.72,1.33,9.54,2.33,14.39,2.96-5.12-6.58-7.01-16.85-4.72-24.9.7-2.39,2.56-5.15,4.99-4.55,1.36.33,2.26,1.7,2.53,3.06.27,1.4.03,2.83-.1,4.22-.76,7.88,2.63,16.89,7.58,23.04,1.7.07,3.42.1,5.12.1,4.22-.03,8.44-.3,12.63-.83-4.42-5.75-6.45-14.16-4.89-21.24.5-2.23,1.76-4.75,4.02-4.95,1.96-.17,3.62,1.66,4.16,3.56.53,1.93.33,3.96.47,5.92.47,5.82,4.59,12.23,10.07,14.16,3.49-.86,6.95-1.89,10.34-3.12,3.62-3.59,4.72-9.44,4.79-14.56.1-5.12-.93-10.17-1.36-15.26-.17-1.83-.1-4.02,1.43-5.09,1.23-.83,2.96-.5,4.12.4,1.16.9,1.9,2.26,2.46,3.62,3.49,8.34,3.22,18.75-1.16,26.66,3.92-1.83,7.75-3.92,11.4-6.25,2.96-11.04,6.68-23,11.83-33.24.8-1.56,1.66-3.19,3.13-4.22,1.43-1.06,3.62-1.3,4.89-.07,1.36,1.26,1.2,3.42.86,5.25-1.5,8.24-4.09,16.46-8.68,23.5,3.99-3.22,8.84-7.05,13.43-8.48,2.63-4.19,4.49-9.51,7.55-13.4,1.06-1.4,2.23-2.83,3.86-3.52,1.6-.7,3.79-.4,4.69,1.1.73,1.23.43,2.79,0,4.16-1.5,4.42-4.55,9.54-8.31,12.27.1.03.23.13.33.2,2.46,1.7,3.52,4.75,3.66,7.78.13-2.36,4.26-4.02,6.52-3.36,2.29.7,4.09,2.43,6.22,3.52,7.05,3.66,16.26-1.26,19.41-8.51,3.19-7.28,1.66-15.79-1.36-23.14-3.02-7.31-9.47-11.87-12.27-19.32-2.83-7.41-1.96-17.69-6.05-24.47C35.04,47.62,15.13,43.16-.3,49.11c-11.64,4.49-22.47,14.03-34.77,12-10.61-1.76-18.25-11.74-28.76-14.16-8.58-1.96-17.39,1.5-25.53,4.89-4.69,1.96-9.47,3.99-13.46,7.18-3.96,3.22-7.08,7.85-7.28,12.93-.17,4.65,2.03,9.28,1.06,13.83-1.13,5.32-6.25,8.84-11.34,10.74-.43.17-.86.33-1.3.47-4.69,1.63-9.71,2.63-13.9,5.32-7.01,4.45-10.57,12.67-13.7,20.38-2.53,6.22-5.05,13.33-2.19,19.41,1.86,3.92,5.72,6.72,7.21,10.8Z"/>
      <path class="cls-14" d="m-105.41,168.93v.03c-3.09,7.88-12.57,15.19-20.98,15.96-8.41.8-17.35-5.35-18.28-13.73-.7-6.12,2.56-12.5.43-18.28-1.5-4.09-5.35-6.88-7.21-10.8-2.86-6.08-.33-13.2,2.19-19.41,3.12-7.71,6.68-15.92,13.7-20.38,4.59-2.93,10.14-3.86,15.19-5.78,5.09-1.89,10.21-5.42,11.34-10.74.96-4.55-1.23-9.18-1.06-13.83.2-5.09,3.32-9.71,7.28-12.93,3.99-3.19,8.78-5.22,13.46-7.18,8.14-3.39,16.95-6.85,25.53-4.89,10.51,2.43,18.15,12.4,28.76,14.16,12.3,2.03,23.14-7.51,34.77-12,15.43-5.95,35.34-1.5,43.85,12.7,4.09,6.78,3.22,17.05,6.05,24.47,2.79,7.45,9.24,12,12.27,19.31,3.03,7.35,4.55,15.86,1.36,23.14-3.16,7.25-12.37,12.17-19.41,8.51-2.13-1.1-3.92-2.83-6.22-3.52-2.26-.66-6.38,1-6.52,3.36"/>
    </g>
  </g>
  <g class="cls-13">
    <path class="cls-9" d="m-58.13-894.57V410.07h1980.83V-894.57H-58.13ZM1112.83,322.77s-.05-.09-.08-.13c-.01-.02-.01-.02-.02-.03,0,0,0,0-.02-.02-.06-.07-.12-.13-.19-.18-.01,0-.03-.02-.04-.03-.03-.02-.07-.04-.1-.06-.02-.01-.05-.03-.07-.04.02.07.02.15,0,.23-.07.25-.36.44-.62.35-.34-.12-.7-.28-1.06-.34-.02,0-.14,0-.15,0-.08,0-.16,0-.24,0-.16,0-.31,0-.46-.02-.66-.08-1.18-.84-1.13-1.5.03-.38.4-.62.75-.43.05.03.09.05.14.07,0,0,0,0,0,0,0,0,0,0,.02,0,.09.03.18.06.27.09.19.05.39.09.58.12.39.06.74.09,1.17.17.84.14,1.64.47,2.09,1.24.33.56-.54,1.06-.86.5Zm4.97-.29c-.17-.07-.35-.12-.48-.13-.08,0-.17,0-.25,0-.06,0-.14.01-.16.01-.89.58-2.35.24-2.88-.67-.22-.38.14-.85.56-.73.31.09.54.28.77.49.03.02.05.03.08.05,0,0,0,0,.01,0,.03,0,.06.02.09.03,0,0,0,0,0,0,0,0,0,0,.01,0,.05,0,.1,0,.15,0,.08,0,.16,0,.23-.02.05,0,.09-.01.18-.03.08-.01.17-.03.25-.04.17-.03.35-.06.52-.08-.05-.2.06-.44.23-.55.25-.15.53-.04.68.18.18.25.37.49.56.74.24.34-.17.9-.56.73Zm1.24-5.02c-.05-.12-.12-.22-.19-.32-.11.12-.27.19-.46.15-1.03-.21-2.06-.02-3.1.05-.65.05-1.3.01-1.94,0-1.27-.03-2.93-.13-3.91.83-.4.39-1.09-.12-.79-.61.57-.92,1.4-1.16,2.4-1.42,1.22-.31,2.47-.59,3.73-.57,1.24.01,2.47.34,3.71.34.32,0,.56-.07.82.17.33.3.55.72.7,1.12.23.6-.74.86-.96.27Zm2.39,3.85c-.09.1-.22.14-.35.15-.02,0-.03,0-.05-.01-.09.14-.2.28-.35.38-.2.14-.49.15-.69.01-.22-.14-.33-.39-.39-.63-.06-.27.08-.53.35-.62.12-.04.27-.01.38.05.04-.09.07-.18.09-.28,0,.04-.01.08-.02.12,0-.07.01-.13.04-.19.02-.06.05-.12.1-.16.06-.06.14-.1.22-.13.11-.03.23-.02.33.03.06.02.12.05.16.1l.08.1c.16.21.25.47.25.73,0,.13-.06.26-.15.35Z"/>
    <path class="cls-6" d="m-121.37-273.03c34.41-60.1,103.17-80.93,149.82-56.83,48.31,24.95,53.28,87.94,53.51,91.42,33.92-12.62,71.56-3.99,94.67,21.41,29.36,32.28,19.8,74.67,18.93,78.25,5.76-5.16,41.77-36.41,93.02-30.47,36.19,4.19,59.61,24.57,67.5,32.12-8.86-36.38,7.66-73.04,37.87-88.13,23.57-11.78,52.65-9.01,75.73,6.59,12.33-40.96,48.99-69.22,89.73-70.01,35.12-.68,68.22,19.16,85.61,51.07,43.34,79.52,130.99,137.12,156.02,224.17,25.03,87.05,9.58,188.88-53.68,253.68-47.91,49.08-116.88,72.17-184.84,81.21-133.36,17.75-268.84-12.32-395.73-57.04C39.9,219.7-81.49,160.35-208.64,116.4c-46.94-16.23-96.6-31.5-131.75-66.61-57.03-56.96-57.37-156.55-10.5-222.13,46.87-65.58,149.03-104.36,229.52-100.68Z"/>
    <path class="cls-11" d="m872.05-22.34c-.32-2.27-6.38-39.95-42.01-55.6-33.8-14.85-64.15,3.34-66.71,4.94-16.24-23.41-45.45-34.29-72.89-27.18-27.92,7.23-48.36,31.63-50.65,60.54-11.74-63.37-71.12-107.28-134.66-100.07-64.29,7.29-112.58,64.62-108.72,129.72-2.02-3.85-12.01-21.96-34.59-29.65-22.72-7.74-41.8.65-45.71,2.47-6.68-22.06-24.22-67.38-67.95-95.13C180.84-175.01,78.26-159.12,1.06-86.58-52.27-36.47-70.32,50.57-47.22,120c23.1,69.43,83.18,121.84,150.18,151.26,67,29.42,140.92,38.69,213.84,44.83,150.79,12.7,303.69,13.3,452.25-15.48,63.64-12.33,133.54-35.75,162.12-93.94,17.62-35.87,15.48-78.9,2.95-116.85-12.54-37.95-56.41-72.59-62.06-112.15Z"/>
    <path class="cls-14" d="m793.52,332.05c-96.03,14.85-208.93,29.32-310.16,24.18-17.45-.88-34.56-2.35-51.17-4.5-10.91-53.2-10.97-149.08-7.51-203.28,6.01-94.37,2.62-161.19,31.6-216.57,43.53-83.16,111.86-124.64,176.5-123.03,62.34,1.52,121.25,43.14,151.17,126.08,21.01,58.26,15.97,141.01,9.86,237.03-2.61,41.04,1.23,119-.29,160.09Z"/>
  </g>
  <g class="cls-16">
    <path class="cls-5" d="m19.17,26.61c-14.67,70.73-5.28,151.09,14.23,224.68,39.02,29.56,98.18,34.86,148.79,37.59,107.64,5.82,205.03,9.29,293.46,10.72,100.81,1.64,193.87.11,266.47-30.99,19.03-42.03,27.43-92.52,22.97-140.34-24.01-7.82-45.17-13.44-70.6-21.7-70.22-22.81-147.2-47.77-231.87-62.4-55.99-9.67-115.09-14.78-178.17-23.38C201.66,9.52,104.8,8.32,19.17,26.61Z"/>
  </g>
  <g>
    <path class="cls-4" d="m71.27,66.25c-20.42,0-41.08-.73-61.43-2.16-1.77-.12-4.73-.33-6.87-2.34-2.45-2.3-2.6-5.78-2.68-7.66C.02,47.8-.06,41.4.07,35.1c.03-1.34,0-2.8-.03-4.34-.08-4.54-.18-9.69,1.14-13.95,1.83-5.92,7.31-6.1,10.25-6.2,1.69-.06,3.5-.08,5.54-.08,2.42,0,4.85.04,7.28.08,2.09.03,4.19.07,6.27.07l118.16.45c4.11.02,10.32.04,14.75,3.75,4.33,3.64,5.45,9.37,5.93,13.95.68,6.44.6,12.96-.23,19.38-.49,3.79-1.44,8.04-4.75,10.85-3.06,2.59-7.06,2.97-9.97,3.25-27.5,2.62-55.47,3.95-83.13,3.95Z"/>
    <path class="cls-17" d="m148.67,13.96c4.53.02,9.47.18,12.93,3.09,3.42,2.87,4.46,7.64,4.93,12.07.66,6.22.58,12.51-.22,18.71-.43,3.32-1.22,6.89-3.77,9.05-2.28,1.93-5.44,2.31-8.41,2.59-47.87,4.57-96.12,5.17-144.09,1.79-1.82-.13-3.8-.33-5.13-1.58-1.49-1.4-1.7-3.67-1.79-5.71-.27-6.27-.35-12.55-.22-18.82.11-5.39-.61-12.35.99-17.52,1.15-3.71,4.14-4.09,7.64-4.2,6.31-.21,12.67.05,18.98.07,25.36.1,50.71.19,76.07.29,14.03.05,28.06.11,42.09.16Z"/>
    <path class="cls-18" d="m148.67,1.1c4.53.02,9.47.18,12.93,3.09,3.42,2.87,4.46,7.64,4.93,12.07.66,6.22.58,12.51-.22,18.71-.43,3.32-1.22,6.89-3.77,9.05-2.28,1.93-5.44,2.31-8.41,2.59-47.87,4.57-96.12,5.17-144.09,1.79-1.82-.13-3.8-.33-5.13-1.58-1.49-1.4-1.7-3.67-1.79-5.71-.27-6.27-.35-12.55-.22-18.82.11-5.39-.61-12.35.99-17.52C5.04,1.07,8.03.7,11.53.58c6.31-.21,12.67.05,18.98.07,25.36.1,50.71.19,76.07.29,14.03.05,28.06.11,42.09.16Z"/>
  </g>
  <text class="cls-21" transform="translate(20.62 29.13)"><tspan x="0" y="0">С</tspan><tspan class="cls-19" x="9.91" y="0">о</tspan><tspan x="19.05" y="0">зд</tspan><tspan class="cls-1" x="35.79" y="0">а</tspan><tspan x="44.56" y="0">ть историю</tspan></text>
</svg>