<?xml version="1.0" encoding="UTF-8"?>
<svg id="_Слой_1" data-name="Слой 1" xmlns="http://www.w3.org/2000/svg" viewBox="0 0 62.22 62.21">
  <defs>
    <style>
      .cls-1 {
        stroke-width: 0px;
      }

      .cls-2 {
        fill: #261e10;
        stroke: #000;
        stroke-width: .25px;
      }

      .cls-2, .cls-3, .cls-4 {
        stroke-linecap: round;
        stroke-linejoin: round;
      }

      .cls-3 {
        fill: none;
        stroke-width: 5px;
      }

      .cls-3, .cls-4 {
        stroke: #261e10;
      }

      .cls-4 {
        fill: #e4ce92;
      }
    </style>
  </defs>
  <path class="cls-1" d="m57.16,61.15c.96,0,1.98-.04,2.76-.6.95-.69,1.26-1.97,1.46-3.14.81-4.86.82-9.82.82-14.75,0-5.59.01-11.18.02-16.76,0-1.63-.06-3.44-1.15-4.63-1.2-1.31-3.17-1.39-4.93-1.39-5.19,0-10.38.02-15.57.03-10.13.02-20.26.04-30.38.06-2.4,0-5.04.1-6.83,1.72-1.66,1.5-2.13,3.91-2.43,6.14C-.21,36.25-.18,44.8.37,53.28c.15,2.22.38,4.59,1.76,6.33,1.18,1.48,3.05,2.27,4.91,2.51,2.85.37,5.56-.54,8.38-.57,3.35-.04,6.69-.06,10.04-.1,6.78-.06,13.56-.13,20.34-.19,3.79-.04,7.57-.07,11.36-.11Z"/>
  <path class="cls-2" d="m56.2,59.41c.92,0,1.91-.04,2.66-.58.92-.66,1.22-1.89,1.41-3.02.78-4.68.79-9.45.79-14.2,0-5.38.01-10.76.02-16.15,0-1.57-.06-3.31-1.11-4.46-1.16-1.26-3.06-1.34-4.75-1.34-5,0-10,.02-15,.03-9.75.02-19.51.04-29.26.05-2.31,0-4.85.09-6.58,1.66-1.6,1.45-2.05,3.76-2.34,5.92-1.08,8.11-1.06,16.35-.52,24.51.14,2.14.37,4.42,1.7,6.1,1.14,1.43,2.94,2.19,4.73,2.42,2.75.35,5.35-.52,8.07-.55,3.22-.03,6.44-.06,9.67-.09,6.53-.06,13.06-.12,19.59-.19,3.65-.03,7.29-.07,10.94-.1Z"/>
  <path class="cls-4" d="m56.2,54.11c.92,0,1.91-.04,2.66-.58.92-.66,1.22-1.89,1.41-3.02.78-4.68.79-9.45.79-14.2,0-5.38.01-10.76.02-16.15,0-1.57-.06-3.31-1.11-4.46-1.16-1.26-3.06-1.34-4.75-1.34-5,0-10,.02-15,.03-9.75.02-19.51.04-29.26.05-2.31,0-4.85.09-6.58,1.66-1.6,1.45-2.05,3.76-2.34,5.92-1.08,8.11-1.06,16.35-.52,24.51.14,2.14.37,4.42,1.7,6.1,1.14,1.43,2.94,2.19,4.73,2.42,2.75.35,5.35-.52,8.07-.55,3.22-.03,6.44-.06,9.67-.09,6.53-.06,13.06-.12,19.59-.19,3.65-.03,7.29-.07,10.94-.1Z"/>
  <g>
    <path class="cls-3" d="m20.91,45.5c7.18-7.52,14.36-15.04,21.54-22.57"/>
    <path class="cls-3" d="m20.24,23.34c7.49,7.39,15.12,14.64,22.88,21.75"/>
  </g>
</svg>