<?xml version="1.0" encoding="UTF-8"?>
<svg id="_Слой_1" data-name="Слой 1" xmlns="http://www.w3.org/2000/svg" xmlns:xlink="http://www.w3.org/1999/xlink" viewBox="0 0 59.42 66.25">
  <defs>
    <style>
      .cls-1 {
        fill: #777657;
      }

      .cls-1, .cls-2, .cls-3, .cls-4, .cls-5, .cls-6 {
        stroke-width: 0px;
      }

      .cls-3 {
        fill: #68613e;
      }

      .cls-4 {
        fill: #917d74;
        opacity: .4;
      }

      .cls-5 {
        fill: none;
      }

      .cls-7 {
        clip-path: url(#clippath-1);
      }

      .cls-8 {
        fill: #261e10;
        stroke-width: .25px;
      }

      .cls-8, .cls-9 {
        stroke: #000;
      }

      .cls-8, .cls-9, .cls-10 {
        stroke-linecap: round;
        stroke-linejoin: round;
      }

      .cls-11 {
        opacity: .3;
      }

      .cls-6 {
        fill: url(#_Безымянный_градиент_6);
      }

      .cls-12 {
        clip-path: url(#clippath);
      }

      .cls-9 {
        fill: #454f1c;
      }

      .cls-10 {
        fill: #e4ce92;
        stroke: #261e10;
      }
    </style>
    <clipPath id="clippath">
      <rect class="cls-5" x="734.78" y="171.42" width="123.64" height="231.88"/>
    </clipPath>
    <clipPath id="clippath-1">
      <rect class="cls-5" x="420.54" y="171.42" width="306.9" height="231.88"/>
    </clipPath>
    <linearGradient id="_Безымянный_градиент_6" data-name="Безымянный градиент 6" x1="877.09" y1="5.65" x2="877.09" y2="332.72" gradientUnits="userSpaceOnUse">
      <stop offset="0" stop-color="#8a5d32"/>
      <stop offset="1" stop-color="#d37c1c"/>
    </linearGradient>
  </defs>
  <g class="cls-12">
    <path class="cls-1" d="m573.93,12.72c5.63-.23,11.22-.4,16.85-.6-5.98-.1-11.98-.22-17.99-.23-6.02-.02-12.05-.01-18.1.01-6.05.04-12.11.09-18.18.13-6.07.05-12.15.17-18.23.3-12.17.26-24.35.57-36.53.9-12.17.41-24.34.82-36.46,1.23-12.12.37-24.2.88-36.2,1.29-12.01.38-23.94.76-35.76,1.13-11.82.35-23.55.62-35.14.77-11.59.22-23.04.32-34.33.27-2.85-.3-7.12-.75-11.39-1.19-4.27-.46-8.54-.85-11.39-1.14-45.13.43-101.19,6.53-145.81,12.98-11.16,1.64-20.66,5.67-27.35,9.29-3.35,1.81-6,3.51-7.81,4.77-1.81,1.26-2.79,2.07-2.79,2.07-5.39,2.63-10.54,7.27-4.75,8.7,2.82-.04,6.68-.29,10.89-.5,4.21-.22,8.77-.45,12.99-.56,8.44-.21,15.52.1,15.72,2.12.1,1.01-5.46,1.57-11.05,2.14.41,4.06-15.49,13.82-21.05,14.42-5.38,2.63-38.1,12.3-43.43,14.91-8.18,2.45.68,6.06,14.37,9.2,6.84,1.57,14.89,3,22.63,4.09,3.87.54,7.67,1,11.19,1.34,3.53.35,6.8.6,9.61.7,11.31.9.52,5.06.84,8.1,10.99-2.13,16.84.35,27.83-1.79.03.25,2.13.3,5.52.19,1.7-.05,3.72-.14,5.97-.25,2.25-.1,4.73-.23,7.34-.38,10.43-.6,22.92-1.52,31.23-2.31,0,0,1.36-.38,4.8-.96,3.44-.6,8.96-1.31,17.28-2.05,5.55-.49,5.46-1.5,5.37-2.51q.09,1.01.18,2.03c5.38-2.52,16.65-1.46,22.12-2.96q.09,1.02.17,2.03c5.45-1.52,11-1.95,16.56-2.27,5.56-.32,11.13-.52,16.63-1.47q.08,1.01.16,2.03c5.56-.45,11.09-.9,11.17.11q.08,1.01.16,2.03c2.82.29,6.96-.32,10.42-.7,3.46-.38,6.23-.59,6.31.42q-.08-1.01-.16-2.03c22.21-1.64,38.93-1.92,55.65-1.98,5.58.13,11.34.16,17.22.09,5.89-.05,11.9-.26,18.03-.44,12.25-.4,24.92-1.11,37.75-2.02,3.21-.23,6.43-.46,9.65-.69,3.23-.24,6.46-.48,9.69-.72,6.47-.5,12.95-1.03,19.4-1.59,12.91-1.13,25.74-2.25,38.21-3.35,5.55-.27,11.02-2.57,5.36-4.33,5.56-.27,11.13-.53,16.69-.8,11.12-.46,5.42-3.28,16.55-3.74,11.11-1.08,22.22-2.05,33.34-2.82,11.12-.74,22.25-1.35,33.38-1.88,11.13-.56,22.27-.88,33.41-1.21l16.71-.44,8.35-.2,8.36-.13,33.42-.51,33.42-.44,33.42-.65c11.14-.25,22.28-.6,33.42-1.07-11.15-.42-20.91-1.1-30.67-1.53-4.88-.22-9.76-.37-14.81-.39-5.05-.02-10.27.14-15.84.47-.01-1.02-.04-3.05-5.62-2.97-8.37-.13-17.08-.07-25.71.04-8.62.14-17.16.37-25.18.47-8.01.11-15.51.11-22.05-.15-6.54-.25-12.13-.71-16.34-1.61-5.61-.86-11.26-3.76-28.01-3.29,5.59-.16,11.16-.31,16.75-.47-.03-1.02-.09-3.05-.09-3.05-11.18-.2-23.76-.38-36.34-.42-12.58-.09-25.16-.18-36.34-.26,0,0-.08-2.03-.12-3.05l-11.16.46c-2.86-1.67-1.17-3.01,3.42-4.12,2.3-.56,5.31-1.05,8.85-1.51,3.54-.45,7.59-.81,11.95-1.16,17.44-1.36,39.8-2.18,53.77-3.02-.03-1.01-.09-3.05-.12-4.07l-11.2.31-.06-2.03c8.4-.23,16.44-.46,24.31-.68,3.93-.11,7.83-.22,11.7-.33,1.93-.05,3.86-.11,5.79-.16,1.93-.04,3.85-.08,5.77-.12,7.7-.16,15.39-.33,23.27-.49,3.94-.08,7.92-.17,11.96-.25,4.05-.09,8.16-.17,12.36-.23-5.61.05-16.81.33-22.41.44-.02-1.01-.04-2.04-5.64-1.92,11.2-.24,23.81-.28,36.41-.42,12.6-.18,25.19-.64,36.38-1.79,5.59-1.05-.04-4.11-16.86-4.86-8.41.12-15.42.23-22.42.33-3.5.05-7.01.1-10.68.16-3.68.08-7.53.16-11.74.25l-.04-2.03c11.22-.28,28.05.55,39.25-.65,5.6-1.1-11.27-2.89-5.68-3.99,5.62-.08,11.23-.16,16.84-1.26-16.86.27-39.27,1.53-56.13.93-5.63-.9-11.26-1.8-11.31-3.83-7.01.4-13.67.54-19.98.46-6.32-.05-12.29-.33-17.92-.81-11.26-.96-21.14-2.72-29.65-5.03-5.67-1.84-33.75.13-50.59.75Z"/>
  </g>
  <g class="cls-7">
    <path class="cls-6" d="m-113.33-508.2V796.44h1980.83V-508.2H-113.33ZM1057.63,709.14s-.05-.09-.08-.13c-.01-.02-.01-.02-.02-.03,0,0,0,0-.02-.02-.06-.07-.12-.13-.19-.18-.01,0-.03-.02-.04-.03-.03-.02-.07-.04-.1-.06-.02-.01-.05-.03-.07-.04.02.07.02.15,0,.23-.07.25-.36.44-.62.35-.34-.12-.7-.28-1.06-.34-.02,0-.14,0-.15,0-.08,0-.16,0-.24,0-.16,0-.31,0-.46-.02-.66-.08-1.18-.84-1.13-1.5.03-.38.4-.62.75-.43.05.03.09.05.14.07,0,0,0,0,0,0,0,0,0,0,.02,0,.09.03.18.06.27.09.19.05.39.09.58.12.39.06.74.09,1.17.17.84.14,1.64.47,2.09,1.24.33.56-.54,1.06-.86.5Zm4.97-.29c-.17-.07-.35-.12-.48-.13-.08,0-.17,0-.25,0-.06,0-.14.01-.16.01-.89.58-2.35.24-2.88-.67-.22-.38.14-.85.56-.73.31.09.54.28.77.49.03.02.05.03.08.05,0,0,0,0,.01,0,.03,0,.06.02.09.03,0,0,0,0,0,0,0,0,0,0,.01,0,.05,0,.1,0,.15,0,.08,0,.16,0,.23-.02.05,0,.09-.01.18-.03.08-.01.17-.03.25-.04.17-.03.35-.06.52-.08-.05-.2.06-.44.23-.55.25-.15.53-.04.68.18.18.25.37.49.56.74.24.34-.17.9-.56.73Zm1.24-5.02c-.05-.12-.12-.22-.19-.32-.11.12-.27.19-.46.15-1.03-.21-2.06-.02-3.1.05-.65.05-1.3.01-1.94,0-1.27-.03-2.93-.13-3.91.83-.4.39-1.09-.12-.79-.61.57-.92,1.4-1.16,2.4-1.42,1.22-.31,2.47-.59,3.73-.57,1.24.01,2.47.34,3.71.34.32,0,.56-.07.82.17.33.3.55.72.7,1.12.23.6-.74.86-.96.27Zm2.39,3.85c-.09.1-.22.14-.35.15-.02,0-.03,0-.05-.01-.09.14-.2.28-.35.38-.2.14-.49.15-.69.01-.22-.14-.33-.39-.39-.63-.06-.27.08-.53.35-.62.12-.04.27-.01.38.05.04-.09.07-.18.09-.28,0,.04-.01.08-.02.12,0-.07.01-.13.04-.19.02-.06.05-.12.1-.16.06-.06.14-.1.22-.13.11-.03.23-.02.33.03.06.02.12.05.16.1l.08.1c.16.21.25.47.25.73,0,.13-.06.26-.15.35Z"/>
    <g class="cls-11">
      <path class="cls-1" d="m1409.78,35.87l.4,3.77c-246.4,15.08-578.72,6.15-883.35,14.17l7.16-14.25c-81.26,10.18-173.87,17.16-250.05,28.7l29.67,1.89c-26.99,8.34-96.25,14.69-139.06,13.73l4.15-3.73c58.58-3.18-3.99-1.12,19.55-11.64l10.15-2.05-5.99-1.68-10.16,2.06c1.11-2.14.17-4.84,9.77-5.82l-13.59-.13c-29.42-9.45-29.64-18.06-26.2-29.33-7.63,1.53.56,12.38-32.1,9.36l4.19-3.73-35.54,7.19-15.98-4.47c-12.67,2.56-20.83,5.17-33.89,3.97l-3.82,7.5c-58.38-1.69-131.81,8.32-191.11,3.9-12.87,7.41-44.79-1.55-77.79,5.09l14.36,7.69c35.91,10.07,119.34,2.91,177.19,5.66l-2.19,4.28c-12.11,1.5-20.82,5.16-35.88,3.4l-3.79,7.49c25.84,25.57,104.09-7.53,125.14-4.09,44.64,6.39-28.79,16.4-7.56,15-48.78,10.8,41.22,17.65,62.1,25.92,57.93,16.21,184.32,5.06,260.49,3.07,126.72-20.87,296.57-5.41,414.11-8.21,56.43,1.01,146.57-28.96,183.16-6.61l105.78,2.41-2.16,4.29c102.87-.85,216.14-13.5,312.06-18.8,41.91-1.87,54.35-13.09,73.66-1.66,83.47,5.92,181.31-12.33,262.53-15.64-.39-3.77,10.83-8.02-4.24-9.71-41.51,5.67-89.62-2.68-91.32-12.93l15.59.64-27.98-7.71-17.76,3.67c-4.62-2.43-6.7-4.37-7.05-5.97-30.67-2.95-57.46-11.43-89.3-16.89-22.4,3.29-47.99,4.47-83.36.21Z"/>
    </g>
    <path class="cls-3" d="m-176.57,113.34C-142.15,53.24-73.4,32.42-26.75,56.51c48.31,24.95,53.28,87.94,53.51,91.42,33.92-12.62,71.56-3.99,94.67,21.41,29.36,32.28,19.8,74.67,18.93,78.25,5.76-5.16,41.77-36.41,93.02-30.47,36.19,4.19,59.61,24.57,67.5,32.12-8.86-36.38,7.66-73.04,37.87-88.13,23.57-11.78,52.65-9.01,75.73,6.59,12.33-40.96,48.99-69.22,89.73-70.01,35.12-.68,68.22,19.16,85.61,51.07,43.34,79.52,130.99,137.12,156.02,224.17,25.03,87.05,9.58,188.88-53.68,253.68-47.91,49.08-116.88,72.17-184.84,81.21-133.36,17.75-268.84-12.32-395.73-57.04-126.89-44.72-248.27-104.07-375.43-148.02-46.94-16.23-96.6-31.5-131.75-66.61-57.03-56.96-57.37-156.55-10.5-222.13,46.87-65.58,149.03-104.36,229.52-100.68Z"/>
    <path class="cls-4" d="m558.44,128.84c-11.56,13.79-37.55,12.43-47.77,11.9-12.01-.62-19.26-3.15-27.11-4.78-6.03-1.25-12.41-1.97-21.56-.89-1.81.21-6.74.79-11.53,2.06-5.14,1.35-10.11,3.49-10.84,6.79-.97,4.35,5.82,8.74,6.76,9.32,14.62,9.25,33.43-2.17,39.47,4.27,4.61,4.91.08,18.34-9.64,25.65-11.48,8.63-28.88,7.74-56.71,6.34-15.27-.78-24.38-2.43-33.53,2.93-7.57,4.44-6.24,8.44-12.53,14.05-6.01,5.35-13.63,7.4-78.19,3.81-11.82-.66-20.59-1.26-26.28-7.08-6.51-6.66-2.76-13.8-9.41-18.19-7.78-5.12-23.04-2.07-28.35,4.95-3.26,4.31.28,7.82-1.71,12.56-5.83,13.8-47.31,11.5-81.45,9.6-23.12-1.28-32.13-3.33-36.21-9.78-3.52-5.57-3.39-14.44,1.74-19.44,8.51-8.32,25.65-.93,31.73-9.12,2.41-3.23,2.29-7.84.31-10.77-2.7-4-9.96-6.53-34.13-3.91-39.11,4.25-46.43,13.72-61.14,9.21-10.4-3.18-19.54-11.85-22.92-21.17-1.43-3.91-1.85-7.95-.92-11.74,3.61-14.76,26.67-22.27,41.41-23.74,18.84-1.88,23.17,6.2,56.42,8.29,12.43.78,29.93,1.76,33.07-4.55,1.72-3.44-1.01-8.76-5.04-11.13-5.34-3.15-10.29.46-18.51-.59-9.68-1.23-20.19-8.43-21.14-16.34-1.36-11.28,17.11-20.54,22.38-23.17,3.32-1.67,21.91-10.61,43.87-6.32,16.04,3.14,17.18,10.07,30.27,9.75,11.59-.28,12.8-5.78,28.73-7.75,6.82-.84,18.4-2.27,28.16,3.6,2.1,1.27,12.19,7.73,10.78,15.87-1.47,8.49-14.4,12.6-15.46,12.92-12.23,3.74-19.92-2.54-26.39,2.31-3.69,2.76-5.5,8.03-3.71,11.35,3.74,6.89,22.57,4.57,28.5,3.85,21.01-2.58,25.49-9.61,46.19-15.62,11.21-3.26,30.14-8.76,50.6-4.43,20.53,4.35,23.63,14.56,43.95,16,10.26.72,17.74-1.29,30.54-4.88,33.9-9.49,36.98-19.06,57.37-23.76,26.06-6.02,61.69.25,72.57,19.49.06.11.13.22.19.33,5.22,9.53,4.71,22.93-2.83,31.94Z"/>
  </g>
  <g>
    <path class="cls-2" d="m34.49,66c7.15,0,14.39-.73,21.51-2.16.62-.12,1.66-.33,2.41-2.34.86-2.3.91-5.78.94-7.66.1-6.31.12-12.7.08-19,0-1.34,0-2.8,0-4.34.03-4.54.06-9.69-.4-13.95-.64-5.92-2.56-6.1-3.59-6.2-.59-.06-1.23-.08-1.94-.08-.85,0-1.7.04-2.55.08-.73.03-1.47.07-2.2.07l-41.38.45c-1.44.02-3.61.04-5.16,3.75C.69,18.27.31,23.99.14,28.58c-.24,6.44-.21,12.96.08,19.37.17,3.79.5,8.04,1.66,10.85,1.07,2.59,2.47,2.97,3.49,3.25,9.63,2.62,19.43,3.95,29.11,3.95Z"/>
    <path class="cls-8" d="m7.38,13.71c-1.59.02-3.31.18-4.53,3.09-1.2,2.87-1.56,7.64-1.73,12.07-.23,6.22-.2,12.51.08,18.71.15,3.32.43,6.89,1.32,9.05.8,1.93,1.91,2.31,2.95,2.59,16.76,4.57,33.66,5.17,50.46,1.79.64-.13,1.33-.33,1.8-1.58.52-1.4.6-3.67.63-5.71.1-6.27.12-12.55.08-18.82-.04-5.39.21-12.35-.35-17.52-.4-3.71-1.45-4.09-2.67-4.2-2.21-.21-4.44.05-6.65.07-8.88.1-17.76.19-26.64.29-4.91.05-9.83.11-14.74.16Z"/>
    <path class="cls-10" d="m7.38.85c-1.59.02-3.31.18-4.53,3.09-1.2,2.87-1.56,7.64-1.73,12.07-.23,6.22-.2,12.51.08,18.71.15,3.32.43,6.89,1.32,9.05.8,1.93,1.91,2.31,2.95,2.59,16.76,4.57,33.66,5.17,50.46,1.79.64-.13,1.33-.33,1.8-1.58.52-1.4.6-3.67.63-5.71.1-6.27.12-12.55.08-18.82-.04-5.39.21-12.35-.35-17.52-.4-3.71-1.45-4.09-2.67-4.2-2.21-.21-4.44.05-6.65.07-8.88.1-17.76.19-26.64.29-4.91.05-9.83.11-14.74.16Z"/>
  </g>
  <g>
    <path class="cls-9" d="m17.3,34.03c5.8,3.66,11.98,6.75,18.26,9.52,2.61-6.62,6.19-12.86,10.28-18.68-5.8-2.09-11.45-4.6-16.88-7.51-4.66,4.55-9.53,10.52-11.65,16.68Z"/>
    <path class="cls-9" d="m30.61,33.7c3.8-6.26,7.81-12.31,11.61-18.57-6.05-1.76-11.91-4.16-17.45-7.17-3.89,5.57-7.59,11.16-11.19,16.93,5.94,2.35,11.76,5.2,17.03,8.81Z"/>
  </g>
</svg>