<?xml version="1.0" encoding="UTF-8"?>
<svg id="_Слой_1" data-name="Слой 1" xmlns="http://www.w3.org/2000/svg" xmlns:xlink="http://www.w3.org/1999/xlink" viewBox="0 0 59.42 66.25">
  <defs>
    <style>
      .cls-1 {
        fill: #777657;
      }

      .cls-1, .cls-2, .cls-3, .cls-4 {
        stroke-width: 0px;
      }

      .cls-3 {
        fill: #68613e;
      }

      .cls-4 {
        fill: none;
      }

      .cls-5 {
        fill: #261e10;
        stroke-width: .25px;
      }

      .cls-5, .cls-6 {
        stroke: #000;
      }

      .cls-5, .cls-6, .cls-7 {
        stroke-linecap: round;
        stroke-linejoin: round;
      }

      .cls-8 {
        opacity: .3;
      }

      .cls-9 {
        clip-path: url(#clippath);
      }

      .cls-6 {
        fill: #454f1c;
      }

      .cls-7 {
        fill: #e4ce92;
        stroke: #261e10;
      }
    </style>
    <clipPath id="clippath">
      <rect class="cls-4" x="601.87" y="171.42" width="306.9" height="231.88"/>
    </clipPath>
  </defs>
  <g>
    <path class="cls-2" d="m34.49,66.25c7.15,0,14.39-.73,21.51-2.16.62-.12,1.66-.33,2.41-2.34.86-2.3.91-5.78.94-7.66.1-6.31.12-12.7.08-19,0-1.34,0-2.8,0-4.34.03-4.54.06-9.69-.4-13.95-.64-5.92-2.56-6.1-3.59-6.2-.59-.06-1.23-.08-1.94-.08-.85,0-1.7.04-2.55.08-.73.03-1.47.07-2.2.07l-41.38.45c-1.44.02-3.61.04-5.16,3.75C.69,18.52.3,24.24.13,28.83c-.24,6.44-.21,12.96.08,19.37.17,3.79.5,8.04,1.66,10.85,1.07,2.59,2.47,2.97,3.49,3.25,9.63,2.62,19.43,3.95,29.11,3.95Z"/>
    <path class="cls-5" d="m7.38,13.96c-1.59.02-3.31.18-4.53,3.09-1.2,2.87-1.56,7.64-1.73,12.07-.23,6.22-.2,12.51.08,18.71.15,3.32.43,6.89,1.32,9.05.8,1.93,1.91,2.31,2.95,2.59,16.76,4.57,33.66,5.17,50.46,1.79.64-.13,1.33-.33,1.8-1.58.52-1.4.6-3.67.63-5.71.1-6.27.12-12.55.08-18.82-.04-5.39.21-12.35-.35-17.52-.4-3.71-1.45-4.09-2.67-4.2-2.21-.21-4.44.05-6.65.07-8.88.1-17.76.19-26.64.29-4.91.05-9.83.11-14.74.16Z"/>
    <path class="cls-7" d="m7.38,8.7c-1.59.02-3.31.18-4.53,3.09-1.2,2.87-1.56,7.64-1.73,12.07-.23,6.22-.2,12.51.08,18.71.15,3.32.43,6.89,1.32,9.05.8,1.93,1.91,2.31,2.95,2.59,16.76,4.57,33.66,5.17,50.46,1.79.64-.13,1.33-.33,1.8-1.58.52-1.4.6-3.67.63-5.71.1-6.27.12-12.55.08-18.82-.04-5.39.21-12.35-.35-17.52-.4-3.71-1.45-4.09-2.67-4.2-2.21-.21-4.44.05-6.65.07-8.88.1-17.76.19-26.64.29-4.91.05-9.83.11-14.74.16Z"/>
  </g>
  <g class="cls-9">
    <g class="cls-8">
      <path class="cls-1" d="m1591.11,35.87l.4,3.77c-246.4,15.08-578.72,6.15-883.35,14.17l7.16-14.25c-81.26,10.18-173.87,17.16-250.05,28.7l29.67,1.89c-26.99,8.34-96.25,14.69-139.06,13.73l4.15-3.73c58.58-3.18-3.99-1.12,19.55-11.64l10.15-2.05-5.99-1.68-10.16,2.06c1.11-2.14.17-4.84,9.77-5.82l-13.59-.13c-29.42-9.45-29.64-18.06-26.2-29.33-7.63,1.53.56,12.38-32.1,9.36l4.19-3.73-35.54,7.19-15.98-4.47c-12.67,2.56-20.83,5.17-33.89,3.97l-3.82,7.5c-58.38-1.69-131.81,8.32-191.11,3.9-12.87,7.41-44.79-1.55-77.79,5.09l14.36,7.69c35.91,10.07,119.34,2.91,177.19,5.66l-2.19,4.28c-12.11,1.5-20.82,5.16-35.88,3.4l-3.79,7.49c25.84,25.57,104.09-7.53,125.14-4.09,44.64,6.39-28.79,16.4-7.56,15-48.78,10.8,41.22,17.65,62.1,25.92,57.93,16.21,184.32,5.06,260.49,3.07,126.72-20.87,296.57-5.41,414.11-8.21,56.43,1.01,146.57-28.96,183.16-6.61l105.78,2.41-2.16,4.29c102.87-.85,216.14-13.5,312.06-18.8,41.91-1.87,54.35-13.09,73.66-1.66,83.47,5.92,181.31-12.33,262.53-15.64-.39-3.77,10.83-8.02-4.24-9.71-41.51,5.67-89.62-2.68-91.32-12.93l15.59.64-27.98-7.71-17.76,3.67c-4.62-2.43-6.7-4.37-7.05-5.97-30.67-2.95-57.46-11.43-89.3-16.89-22.4,3.29-47.99,4.47-83.36.21Z"/>
    </g>
    <path class="cls-3" d="m4.76,113.34C39.18,53.24,107.94,32.42,154.58,56.51c48.31,24.95,53.28,87.94,53.51,91.42,33.92-12.62,71.56-3.99,94.67,21.41,29.36,32.28,19.8,74.67,18.93,78.25,5.76-5.16,41.77-36.41,93.02-30.47,36.19,4.19,59.61,24.57,67.5,32.12-8.86-36.38,7.66-73.04,37.87-88.13,23.57-11.78,52.65-9.01,75.73,6.59,12.33-40.96,48.99-69.22,89.73-70.01,35.12-.68,68.22,19.16,85.61,51.07,43.34,79.52,130.99,137.12,156.02,224.17,25.03,87.05,9.58,188.88-53.68,253.68-47.91,49.08-116.88,72.17-184.84,81.21-133.36,17.75-268.84-12.32-395.73-57.04-126.89-44.72-248.27-104.07-375.43-148.02-46.94-16.23-96.6-31.5-131.75-66.61-57.03-56.96-57.37-156.55-10.5-222.13C-177.88,148.44-75.73,109.66,4.76,113.34Z"/>
  </g>
  <g>
    <path class="cls-6" d="m17.3,41.98c5.8,3.66,11.98,6.75,18.26,9.52,2.61-6.62,6.19-12.86,10.28-18.68-5.8-2.09-11.45-4.6-16.88-7.51-4.66,4.55-9.53,10.52-11.65,16.68Z"/>
    <path class="cls-6" d="m30.61,41.65c3.8-6.26,7.81-12.31,11.61-18.57-6.05-1.76-11.91-4.16-17.45-7.17-3.89,5.57-7.59,11.16-11.19,16.93,5.94,2.35,11.76,5.2,17.03,8.81Z"/>
  </g>
</svg>