<?xml version="1.0" encoding="UTF-8"?>
<svg id="_Слой_1" data-name="Слой 1" xmlns="http://www.w3.org/2000/svg" viewBox="0 0 51.85 61.81">
  <defs>
    <style>
      .cls-1 {
        fill: #4d3712;
        stroke-width: .25px;
      }

      .cls-1, .cls-2, .cls-3 {
        stroke: #000;
        stroke-linecap: round;
        stroke-linejoin: round;
      }

      .cls-4 {
        stroke-width: 0px;
      }

      .cls-2 {
        fill: none;
      }

      .cls-3 {
        fill: #af755d;
      }
    </style>
  </defs>
  <path class="cls-4" d="m29.18,61.02c-6.18,0-12.44-.94-18.08-2.72-.39-.12-.7-.39-.86-.72-4.87-10.21-7.6-20.92-8.12-31.85-.24-.22-.44-.49-.61-.8-.16-.3-.27-.6-.32-.92l-.2-.04.2-.84c.01-.09.05-.25.1-.4l1.79-7.7,16.87,1.08-.04.14c.06-.08.13-.16.2-.23.64-.69,1.53-1.21,2.66-1.55,1.48-.44,3.03-.49,4.37-.49,1.14,0,2.68.01,4.11.51,1.52.53,2.82,1.57,3.57,2.87.32.55.53,1.16.65,1.81l7.18-.14c.28,0,.57-.01.87-.01,1.2,0,2.75.09,4.11.77,1.07.54,1.93,1.53,2.24,2.58.24.82.16,1.61-.23,2.3,1.99,11.52-.91,23.81-8.17,34.65-.2.3-.54.52-.92.6-3.6.74-7.42,1.11-11.35,1.11Zm-1.7-42.38c-.24,0-.48,0-.73.01-.23,0-.83.01-.83.01-.49,0-.95,0-1.2.12-.16.07-.35.28-.46.59l5.59-.11s-.04-.04-.06-.07c-.36-.36-1.01-.48-1.36-.52-.26-.03-.56-.05-.93-.05Z"/>
  <path class="cls-1" d="m48.94,19.15s.05-.03.06-.05c.36-.6.45-1.31.26-2.06-.25-.93-.93-1.81-1.79-2.29-1.43-.8-3.16-.76-4.55-.73l-8.22.18c-.02-.9-.22-1.8-.63-2.6-.65-1.25-1.78-2.26-3.09-2.76-1.24-.48-2.58-.5-3.81-.51-1.28,0-2.75.05-4.12.5-.97.32-1.73.81-2.25,1.44-.57.69-.92,1.62-1,2.7-.04.52-.02,1.04.03,1.55l-2.24.05,1.01-3.93-15.05-1.07-1.65,7.89c-.04.13-.06.25-.08.38v.02s0,0,0,0c-.05.46.02.93.24,1.38.2.41.44.68.7.86.48,12.33,3.22,24.44,8.18,35.99.05.12.15.22.28.26,5.7,2,11.92,3.01,18.03,3.01,3.86,0,7.69-.41,11.3-1.23.13-.03.24-.11.3-.22,7.35-12.19,10.2-25.91,8.1-38.78Zm-25.82-4.7c0-.34.02-.68.08-1.01.15-.72.54-1.31,1.05-1.58.47-.24,1.05-.25,1.67-.25h.18c.21,0,.42,0,.63-.01.64-.02,1.25-.03,1.86.05.6.08,1.44.3,1.99.9.43.47.65,1.09.75,1.72l-8.21.18Z"/>
  <path class="cls-3" d="m22.13,7.61c-.11-.87-.23-1.75-.16-2.62s.33-1.76.89-2.43c.52-.62,1.26-1.03,2.03-1.29,1.27-.42,2.63-.47,3.97-.48,1.23,0,2.49.03,3.64.47,1.21.47,2.24,1.39,2.84,2.54s.76,2.52.45,3.78c-.72-.09-1.47-.02-2.19.05,0-1.22-.14-2.53-.97-3.43-.58-.63-1.43-.94-2.28-1.05s-1.7-.05-2.56-.04c-.7,0-1.44-.02-2.06.3-.71.36-1.14,1.13-1.3,1.9s-.09,1.58-.02,2.37c-.67.01-1.61-.1-2.28-.09Z"/>
  <path class="cls-3" d="m4.88,10.97c.35,12.6,3.13,25.14,8.19,36.93,9.01,3.16,19.68,3.91,29.07,1.77,7.34-12.16,10.4-26.15,7.83-39.73-14.52-.73-30.56.29-45.08,1.04Z"/>
  <path class="cls-2" d="m16.82,18.39l2.1,24.34"/>
  <path class="cls-2" d="m27.89,16.12c1.29,9.37,1.84,18.85,1.64,28.31"/>
  <path class="cls-2" d="m40.76,16.39c-.75,7.46-1.5,14.91-2.24,22.37"/>
  <path class="cls-3" d="m6.02,7.64c.93-.34,1.95-.36,2.94-.38,11.89-.26,23.78-.52,35.67-.77,1.47-.03,3.02-.04,4.3.67s2.12,2.43,1.36,3.68c-14.38-.32-29.12-.47-43.44,1.02-1.13.12-2.09.37-2.68-.84-.72-1.49.48-2.88,1.85-3.38Z"/>
</svg>