<?xml version="1.0" encoding="UTF-8"?>
<svg id="_Слой_1" data-name="Слой 1" xmlns="http://www.w3.org/2000/svg" xmlns:xlink="http://www.w3.org/1999/xlink" viewBox="0 0 128 128">
  <defs>
    <style>
      .cls-1 {
        fill: #f9e8d8;
        filter: url(#drop-shadow-7);
        stroke: #000;
        stroke-linecap: round;
        stroke-linejoin: round;
      }
    </style>
    <filter id="drop-shadow-7" filterUnits="userSpaceOnUse">
      <feOffset dx="-1" dy="1"/>
      <feGaussianBlur result="blur" stdDeviation="0"/>
      <feFlood flood-color="#000" flood-opacity=".2"/>
      <feComposite in2="blur" operator="in"/>
      <feComposite in="SourceGraphic"/>
    </filter>
  </defs>
  <path class="cls-1" d="m126.74.68c-13.47-.17-39.12,1.65-52.6,1.48C50.16,1.85,2.44.68,2.44.68c0,0-.41,17.05-.39,22.22.06,11.72.12,23.44.18,35.16.1,19.56.21,39.18,2.75,58.58,17.66-.68,35.33-1.17,53-1.47,2.81,3.37,5.19,7.08,7.06,11.03,2.02-3.64,3.86-7.39,5.51-11.21,17.89-.22,35.79-.25,53.69-.07,1.66-36.94,4.76-77.32,2.5-114.23Z"/>
</svg>