<?xml version="1.0" encoding="UTF-8"?>
<svg id="_Слой_1" data-name="Слой 1" xmlns="http://www.w3.org/2000/svg" xmlns:xlink="http://www.w3.org/1999/xlink" viewBox="0 0 70.27 66.25">
  <defs>
    <style>
      .cls-1 {
        fill: #ffd972;
        stroke: #4d3712;
      }

      .cls-1, .cls-2, .cls-3, .cls-4, .cls-5 {
        stroke-linecap: round;
        stroke-linejoin: round;
      }

      .cls-2 {
        fill: #4d3712;
      }

      .cls-2, .cls-3, .cls-4 {
        stroke-width: .25px;
      }

      .cls-2, .cls-3, .cls-4, .cls-5 {
        stroke: #000;
      }

      .cls-6, .cls-3 {
        fill: #6b5c25;
      }

      .cls-6, .cls-7, .cls-8, .cls-9 {
        stroke-width: 0px;
      }

      .cls-8 {
        fill: #68613e;
      }

      .cls-9, .cls-4 {
        fill: none;
      }

      .cls-10 {
        clip-path: url(#clippath-1);
      }

      .cls-11 {
        clip-path: url(#clippath);
      }

      .cls-5 {
        fill: #454f1c;
      }
    </style>
    <clipPath id="clippath">
      <rect class="cls-9" x="-62.93" y="295.61" width="307.38" height="231.88"/>
    </clipPath>
    <clipPath id="clippath-1">
      <rect class="cls-9" x="607.3" y="-85.17" width="306.9" height="231.88"/>
    </clipPath>
  </defs>
  <g class="cls-11">
    <g>
      <g>
        <path class="cls-6" d="m500.94,220.41c-6.23,13.35-23.47,13.86-27.33,13.82-15.23-.16-26.16-11-33.28-18.06-4.08-4.05-6.02-6.87-7.65-9.51,2.7,10.52.85,20.5-5,26.4-9.11,9.17-24.92,5.42-30.02,4.21-17.23-4.08-27.35-17.22-32.06-23.34-4.16-5.4-5.89-9.11-7.17-12.57-3.45,4.57-9.73,10.89-19.09,12.65-15.6,2.94-27.66-9.04-32.39-13.73-6.51-6.47-10.15-13.72-12.19-19.76-.61,6.96-2.81,14.66-8.07,21.97-13.18,18.3-34.71,19.07-38.86,19.12-3.05.04-24.65-.06-38.3-17.02-1.11-1.38-2.14-2.83-3.07-4.34-1.34,4.52-3.67,9.91-7.82,15.02-12.41,15.28-33.29,18.53-48.82,15.27-5.95-1.25-26.45-5.55-33.19-23.99-1.78-4.88-2.31-9.94-1.82-14.86-1.67.52-3.43,1.23-5.24,2.15-9.27,4.76-11.48,11.47-17.17,17.58-9.27,9.96-26.6,17.31-41.35,12.54-1.54-.5-17.3-5.88-22.01-20.95-2.32-7.44-1.1-14.52,1.4-20.58-3.36,1.26-6.97,3.15-10.39,6.01-5.84,4.89-8.48,10.42-12.28,18.76-11.35,24.89-11.11,26.47-13.64,30.94-10.36,18.3-38.47,34.23-62.04,25.81-11.08-3.96-21.23-13.34-25.88-25.3-3.57,1.89-9.16,4.07-15.82,3.59-16.59-1.21-31.34-18.35-30.83-35.03.6-19.68,22.18-31.09,23.82-31.94,10.48-5.35,16.47-2.74,25.9-9.63,9.05-6.62,12.61-15.69,14.51-20.08,12-27.9,36.15-52.73,45.59-62.45C-9.93,61.8,11.91,53.41,41.21,42.16c49.38-18.97,91.26-20.43,115.32-21.05,29.06-.76,65.96-1.4,111.19,13.3,16.28,5.29,56.9,18.92,95.47,52.37,17.47,15.15,18.32,20.31,40.74,38.38,27.45,22.12,40.62,34.33,60.27,43.13,7.01,3.14,20.01,8.36,29.36,21.51,3.11,4.37,13.1,18.37,7.38,30.62Z"/>
        <path class="cls-4" d="m-93.8,238.64c-3.57,1.89-9.16,4.07-15.82,3.59-16.59-1.21-31.34-18.35-30.83-35.03.6-19.68,22.18-31.09,23.82-31.94,10.48-5.35,16.47-2.74,25.9-9.63,9.05-6.63,12.61-15.69,14.51-20.08,12-27.9,36.15-52.73,45.59-62.45C-9.93,61.8,11.91,53.41,41.21,42.16c49.38-18.97,91.26-20.43,115.32-21.05,29.06-.76,65.96-1.4,111.19,13.3,16.28,5.29,56.9,18.92,95.47,52.37,17.47,15.15,18.32,20.31,40.74,38.38,27.45,22.12,40.62,34.33,60.27,43.13,7.01,3.14,20.01,8.36,29.36,21.51,3.11,4.37,13.1,18.37,7.38,30.62-6.23,13.35-23.47,13.86-27.33,13.82-15.23-.16-26.16-11-33.28-18.06-9.91-9.83-7.18-12.4-18-22.74-8.09-7.73-12.21-8.77-23.54-18.22-7.91-6.6-13.72-12.62-17.23-16.46"/>
      </g>
      <path class="cls-3" d="m7.96,55.98c-8.28,4.59-17.7,7.12-27.17,7.29-2.41.04-5.22.12-6.66,2.05-.62.83-.85,2.03-.31,2.92.76,1.25,2.52,1.32,3.99,1.23,2.8-.19,5.59-.45,8.39-.72,6.31-.59,12.71-1.21,18.66-3.41"/>
    </g>
  </g>
  <g class="cls-10">
    <path class="cls-8" d="m10.19-143.25c34.41-60.1,103.17-80.93,149.82-56.83,48.31,24.95,53.28,87.94,53.51,91.42,33.92-12.62,71.56-3.99,94.67,21.41,29.36,32.28,19.8,74.67,18.93,78.25,5.76-5.16,41.77-36.41,93.02-30.47,36.19,4.19,59.61,24.57,67.5,32.12-8.86-36.38,7.66-73.04,37.87-88.13,23.57-11.78,52.65-9.01,75.73,6.59,12.33-40.96,48.99-69.22,89.73-70.01,35.12-.68,68.22,19.16,85.61,51.07,43.34,79.52,130.99,137.12,156.02,224.17,25.03,87.05,9.58,188.88-53.68,253.68-47.91,49.08-116.88,72.17-184.84,81.21-133.36,17.75-268.84-12.32-395.73-57.04-126.89-44.72-248.27-104.07-375.43-148.02-46.94-16.23-96.6-31.5-131.75-66.61-57.03-56.96-57.37-156.55-10.5-222.13C-172.46-108.15-70.31-146.93,10.19-143.25Z"/>
  </g>
  <g>
    <path class="cls-7" d="m29.49,66c-8.45,0-17-.73-25.42-2.16-.73-.12-1.96-.33-2.84-2.34-1.01-2.3-1.08-5.78-1.11-7.66C0,47.55-.02,41.15.03,34.85c.01-1.34,0-2.8-.01-4.34-.03-4.54-.07-9.69.47-13.95.76-5.92,3.02-6.1,4.24-6.2.7-.06,1.45-.08,2.29-.08,1,0,2.01.04,3.01.08.87.03,1.73.07,2.6.07l48.89.45c1.7.02,4.27.04,6.1,3.75,1.79,3.64,2.25,9.37,2.45,13.95.28,6.44.25,12.96-.09,19.38-.2,3.79-.6,8.04-1.97,10.85-1.26,2.59-2.92,2.97-4.13,3.25-11.38,2.62-22.95,3.95-34.4,3.95Z"/>
    <path class="cls-2" d="m61.52,13.71c1.87.02,3.92.18,5.35,3.09,1.41,2.87,1.85,7.64,2.04,12.07.27,6.22.24,12.51-.09,18.71-.18,3.32-.51,6.89-1.56,9.05-.94,1.93-2.25,2.31-3.48,2.59-19.81,4.57-39.77,5.17-59.62,1.79-.75-.13-1.57-.33-2.12-1.58-.62-1.4-.7-3.67-.74-5.71-.11-6.27-.14-12.55-.09-18.82.04-5.39-.25-12.35.41-17.52.48-3.71,1.71-4.09,3.16-4.2,2.61-.21,5.24.05,7.85.07,10.49.1,20.98.19,31.47.29,5.81.05,11.61.11,17.42.16Z"/>
    <path class="cls-1" d="m61.52.85c1.87.02,3.92.18,5.35,3.09,1.41,2.87,1.85,7.64,2.04,12.07.27,6.22.24,12.51-.09,18.71-.18,3.32-.51,6.89-1.56,9.05-.94,1.93-2.25,2.31-3.48,2.59-19.81,4.57-39.77,5.17-59.62,1.79-.75-.13-1.57-.33-2.12-1.58-.62-1.4-.7-3.67-.74-5.71-.11-6.27-.14-12.55-.09-18.82.04-5.39-.25-12.35.41-17.52C2.09.82,3.32.45,4.77.33c2.61-.21,5.24.05,7.85.07,10.49.1,20.98.19,31.47.29,5.81.05,11.61.11,17.42.16Z"/>
  </g>
  <path class="cls-5" d="m42.04,8.95c5.33,4.69,12.67,13.55,16.57,19.48-6.77,3.27-12.95,7.75-18.16,13.18-.56-3.09-.81-6.23-.76-9.37-7.61-.04-15.22-.09-22.83-.13-1.26-5.58-1.61-11.37-1.03-17.06,8.46-.11,16.93.23,25.35,1.03.29-2.37.57-4.75.86-7.12Z"/>
</svg>