<?xml version="1.0" encoding="UTF-8"?>
<svg id="_Слой_1" data-name="Слой 1" xmlns="http://www.w3.org/2000/svg" xmlns:xlink="http://www.w3.org/1999/xlink" viewBox="0 0 70.27 66.25">
  <defs>
    <style>
      .cls-1 {
        fill: #6b5c25;
      }

      .cls-1, .cls-2, .cls-3, .cls-4, .cls-5, .cls-6 {
        stroke-width: 0px;
      }

      .cls-7 {
        clip-path: url(#clippath-2);
      }

      .cls-3 {
        fill: #68613e;
      }

      .cls-4, .cls-8 {
        fill: none;
      }

      .cls-9 {
        clip-path: url(#clippath-1);
      }

      .cls-8, .cls-10 {
        stroke-width: .25px;
      }

      .cls-8, .cls-10, .cls-11 {
        stroke: #000;
      }

      .cls-8, .cls-10, .cls-11, .cls-12 {
        stroke-linecap: round;
        stroke-linejoin: round;
      }

      .cls-10 {
        fill: #261e10;
      }

      .cls-5 {
        fill: url(#_Безымянный_градиент_6);
      }

      .cls-13 {
        clip-path: url(#clippath);
      }

      .cls-11 {
        fill: #454f1c;
      }

      .cls-12 {
        fill: #e4ce92;
        stroke: #261e10;
      }

      .cls-6 {
        fill: #575234;
      }
    </style>
    <clipPath id="clippath">
      <rect class="cls-4" x="740.2" y="-85.17" width="123.64" height="231.88"/>
    </clipPath>
    <clipPath id="clippath-1">
      <rect class="cls-4" x="-244.26" y="295.61" width="307.38" height="231.88"/>
    </clipPath>
    <clipPath id="clippath-2">
      <rect class="cls-4" x="425.96" y="-85.17" width="306.9" height="231.88"/>
    </clipPath>
    <linearGradient id="_Безымянный_градиент_6" data-name="Безымянный градиент 6" x1="882.51" y1="-250.95" x2="882.51" y2="76.13" gradientUnits="userSpaceOnUse">
      <stop offset="0" stop-color="#8a5d32"/>
      <stop offset="1" stop-color="#d37c1c"/>
    </linearGradient>
  </defs>
  <g class="cls-13">
    <path class="cls-3" d="m93.91-41.07c18.45-32.2,55.3-43.36,80.31-30.45,25.89,13.37,28.56,47.11,28.68,48.98,18.18-6.76,38.36-2.14,50.74,11.47,15.74,17.29,10.62,40,10.15,41.92,3.09-2.77,22.39-19.51,49.86-16.33,19.4,2.25,31.95,13.16,36.18,17.21-4.75-19.49,4.11-39.13,20.3-47.21,12.63-6.31,28.22-4.82,40.6,3.53,6.61-21.95,26.26-37.09,48.1-37.51,18.83-.36,36.57,10.26,45.89,27.36,23.23,42.6,70.21,73.46,83.63,120.1,13.42,46.63,5.14,101.19-28.77,135.91-25.68,26.29-62.65,38.66-99.08,43.51-71.48,9.51-144.1-6.6-212.12-30.56-68.02-23.96-133.08-55.75-201.24-79.3-25.16-8.69-51.78-16.88-70.62-35.69-30.57-30.52-30.75-83.87-5.63-119.01C-3.99-22.27,50.76-43.04,93.91-41.07Z"/>
  </g>
  <g class="cls-9">
    <g>
      <path class="cls-1" d="m319.61,220.41c-6.23,13.35-23.47,13.86-27.33,13.82-15.23-.16-26.16-11-33.28-18.06-4.08-4.05-6.02-6.87-7.65-9.51,2.7,10.52.85,20.5-5,26.4-9.11,9.17-24.92,5.42-30.02,4.21-17.23-4.08-27.35-17.22-32.06-23.34-4.16-5.4-5.89-9.11-7.17-12.57-3.45,4.57-9.73,10.89-19.09,12.65-15.6,2.94-27.66-9.04-32.39-13.73-6.51-6.47-10.15-13.72-12.19-19.76-.61,6.96-2.81,14.66-8.07,21.97-13.18,18.3-34.71,19.07-38.86,19.12-3.05.04-24.65-.06-38.3-17.02-1.11-1.38-2.14-2.83-3.07-4.34-1.34,4.52-3.67,9.91-7.82,15.02-12.41,15.28-33.29,18.53-48.82,15.27-5.95-1.25-26.45-5.55-33.19-23.99-1.78-4.88-2.31-9.94-1.82-14.86-1.67.52-3.43,1.23-5.24,2.15-9.27,4.76-11.48,11.47-17.17,17.58-9.27,9.96-26.6,17.31-41.35,12.54-1.54-.5-17.3-5.88-22.01-20.95-2.32-7.44-1.1-14.52,1.4-20.58-3.36,1.26-6.97,3.15-10.39,6.01-5.84,4.89-8.48,10.42-12.28,18.76-11.35,24.89-11.11,26.47-13.64,30.94-10.36,18.3-38.47,34.23-62.04,25.81-11.08-3.96-21.23-13.34-25.88-25.3-3.57,1.89-9.16,4.07-15.82,3.59-16.59-1.21-31.34-18.35-30.83-35.03.6-19.68,22.18-31.09,23.82-31.94,10.48-5.35,16.47-2.74,25.9-9.63,9.05-6.62,12.61-15.69,14.51-20.08,12-27.9,36.15-52.73,45.59-62.45,20.71-21.29,42.54-29.68,71.85-40.94C-90.74,23.19-48.86,21.73-24.8,21.1c29.06-.76,65.96-1.4,111.19,13.3,16.28,5.29,56.9,18.92,95.47,52.37,17.47,15.15,18.32,20.31,40.74,38.38,27.45,22.12,40.62,34.33,60.27,43.13,7.01,3.14,20.01,8.36,29.36,21.51,3.11,4.37,13.1,18.37,7.38,30.62Z"/>
      <path class="cls-8" d="m-275.13,238.64c-3.57,1.89-9.16,4.07-15.82,3.59-16.59-1.21-31.34-18.35-30.83-35.03.6-19.68,22.18-31.09,23.82-31.94,10.48-5.35,16.47-2.74,25.9-9.63,9.05-6.63,12.61-15.69,14.51-20.08,12-27.9,36.15-52.73,45.59-62.45,20.71-21.29,42.54-29.68,71.85-40.94C-90.74,23.19-48.86,21.73-24.8,21.1c29.06-.76,65.96-1.4,111.19,13.3,16.28,5.29,56.9,18.92,95.47,52.37,17.47,15.15,18.32,20.31,40.74,38.38,27.45,22.12,40.62,34.33,60.27,43.13,7.01,3.14,20.01,8.36,29.36,21.51,3.11,4.37,13.1,18.37,7.38,30.62-6.23,13.35-23.47,13.86-27.33,13.82-15.23-.16-26.16-11-33.28-18.06-9.91-9.83-7.18-12.4-18-22.74-8.09-7.73-12.21-8.77-23.54-18.22-7.91-6.6-13.72-12.62-17.23-16.46"/>
    </g>
  </g>
  <g class="cls-7">
    <path class="cls-5" d="m-107.91-764.79V539.85h1980.83V-764.79H-107.91ZM1063.06,452.55s-.05-.09-.08-.13c-.01-.02-.01-.02-.02-.03,0,0,0,0-.02-.02-.06-.07-.12-.13-.19-.18-.01,0-.03-.02-.04-.03-.03-.02-.07-.04-.1-.06-.02-.01-.05-.03-.07-.04.02.07.02.15,0,.23-.07.25-.36.44-.62.35-.34-.12-.7-.28-1.06-.34-.02,0-.14,0-.15,0-.08,0-.16,0-.24,0-.16,0-.31,0-.46-.02-.66-.08-1.18-.84-1.13-1.5.03-.38.4-.62.75-.43.05.03.09.05.14.07,0,0,0,0,0,0,0,0,0,0,.02,0,.09.03.18.06.27.09.19.05.39.09.58.12.39.06.74.09,1.17.17.84.14,1.64.47,2.09,1.24.33.56-.54,1.06-.86.5Zm4.97-.29c-.17-.07-.35-.12-.48-.13-.08,0-.17,0-.25,0-.06,0-.14.01-.16.01-.89.58-2.35.24-2.88-.67-.22-.38.14-.85.56-.73.31.09.54.28.77.49.03.02.05.03.08.05,0,0,0,0,.01,0,.03,0,.06.02.09.03,0,0,0,0,0,0,0,0,0,0,.01,0,.05,0,.1,0,.15,0,.08,0,.16,0,.23-.02.05,0,.09-.01.18-.03.08-.01.17-.03.25-.04.17-.03.35-.06.52-.08-.05-.2.06-.44.23-.55.25-.15.53-.04.68.18.18.25.37.49.56.74.24.34-.17.9-.56.73Zm1.24-5.02c-.05-.12-.12-.22-.19-.32-.11.12-.27.19-.46.15-1.03-.21-2.06-.02-3.1.05-.65.05-1.3.01-1.94,0-1.27-.03-2.93-.13-3.91.83-.4.39-1.09-.12-.79-.61.57-.92,1.4-1.16,2.4-1.42,1.22-.31,2.47-.59,3.73-.57,1.24.01,2.47.34,3.71.34.32,0,.56-.07.82.17.33.3.55.72.7,1.12.23.6-.74.86-.96.27Zm2.39,3.85c-.09.1-.22.14-.35.15-.02,0-.03,0-.05-.01-.09.14-.2.28-.35.38-.2.14-.49.15-.69.01-.22-.14-.33-.39-.39-.63-.06-.27.08-.53.35-.62.12-.04.27-.01.38.05.04-.09.07-.18.09-.28,0,.04-.01.08-.02.12,0-.07.01-.13.04-.19.02-.06.05-.12.1-.16.06-.06.14-.1.22-.13.11-.03.23-.02.33.03.06.02.12.05.16.1l.08.1c.16.21.25.47.25.73,0,.13-.06.26-.15.35Z"/>
    <path class="cls-3" d="m-171.14-143.25c34.41-60.1,103.17-80.93,149.82-56.83,48.31,24.95,53.28,87.94,53.51,91.42,33.92-12.62,71.56-3.99,94.67,21.41,29.36,32.28,19.8,74.67,18.93,78.25,5.76-5.16,41.77-36.41,93.02-30.47,36.19,4.19,59.61,24.57,67.5,32.12-8.86-36.38,7.66-73.04,37.87-88.13,23.57-11.78,52.65-9.01,75.73,6.59,12.33-40.96,48.99-69.22,89.73-70.01,35.12-.68,68.22,19.16,85.61,51.07,43.34,79.52,130.99,137.12,156.02,224.17,25.03,87.05,9.58,188.88-53.68,253.68-47.91,49.08-116.88,72.17-184.84,81.21-133.36,17.75-268.84-12.32-395.73-57.04-126.89-44.72-248.27-104.07-375.43-148.02-46.94-16.23-96.6-31.5-131.75-66.61-57.03-56.96-57.37-156.55-10.5-222.13,46.87-65.58,149.03-104.36,229.52-100.68Z"/>
    <path class="cls-6" d="m822.28,107.44c-.32-2.27-6.38-39.95-42.01-55.6-33.8-14.85-64.15,3.34-66.71,4.94-16.24-23.41-45.45-34.29-72.89-27.18-27.92,7.23-48.36,31.63-50.65,60.54-11.74-63.37-71.12-107.28-134.66-100.07-64.29,7.29-112.58,64.62-108.72,129.72-2.02-3.85-12.01-21.96-34.59-29.65-22.72-7.74-41.8.65-45.71,2.47-6.68-22.06-24.22-67.38-67.95-95.13C131.07-45.23,28.49-29.35-48.71,43.2c-53.32,50.11-71.38,137.15-48.27,206.58,23.1,69.43,83.18,121.84,150.18,151.26,67,29.42,140.92,38.69,213.84,44.83,150.79,12.7,303.69,13.3,452.25-15.48,63.64-12.33,133.54-35.75,162.12-93.94,17.62-35.87,15.48-78.9,2.95-116.85-12.54-37.95-56.41-72.59-62.06-112.15Z"/>
  </g>
  <g>
    <path class="cls-2" d="m29.49,66c-8.45,0-17-.73-25.42-2.16-.73-.12-1.96-.33-2.84-2.34-1.01-2.3-1.08-5.78-1.11-7.66C0,47.55-.02,41.15.03,34.85c.01-1.34,0-2.8-.01-4.34-.03-4.54-.07-9.69.47-13.95.76-5.92,3.02-6.1,4.24-6.2.7-.06,1.45-.08,2.29-.08,1,0,2.01.04,3.01.08.87.03,1.73.07,2.6.07l48.89.45c1.7.02,4.27.04,6.1,3.75,1.79,3.64,2.25,9.37,2.45,13.95.28,6.44.25,12.96-.09,19.38-.2,3.79-.6,8.04-1.97,10.85-1.26,2.59-2.92,2.97-4.13,3.25-11.38,2.62-22.95,3.95-34.4,3.95Z"/>
    <path class="cls-10" d="m61.52,13.71c1.87.02,3.92.18,5.35,3.09,1.41,2.87,1.85,7.64,2.04,12.07.27,6.22.24,12.51-.09,18.71-.18,3.32-.51,6.89-1.56,9.05-.94,1.93-2.25,2.31-3.48,2.59-19.81,4.57-39.77,5.17-59.62,1.79-.75-.13-1.57-.33-2.12-1.58-.62-1.4-.7-3.67-.74-5.71-.11-6.27-.14-12.55-.09-18.82.04-5.39-.25-12.35.41-17.52.48-3.71,1.71-4.09,3.16-4.2,2.61-.21,5.24.05,7.85.07,10.49.1,20.98.19,31.47.29,5.81.05,11.61.11,17.42.16Z"/>
    <path class="cls-12" d="m61.52.85c1.87.02,3.92.18,5.35,3.09,1.41,2.87,1.85,7.64,2.04,12.07.27,6.22.24,12.51-.09,18.71-.18,3.32-.51,6.89-1.56,9.05-.94,1.93-2.25,2.31-3.48,2.59-19.81,4.57-39.77,5.17-59.62,1.79-.75-.13-1.57-.33-2.12-1.58-.62-1.4-.7-3.67-.74-5.71-.11-6.27-.14-12.55-.09-18.82.04-5.39-.25-12.35.41-17.52C2.09.82,3.33.45,4.77.33c2.61-.21,5.24.05,7.85.07,10.49.1,20.98.19,31.47.29,5.81.05,11.61.11,17.42.16Z"/>
  </g>
  <path class="cls-11" d="m41.15,8.95c5.33,4.69,12.67,13.55,16.57,19.48-6.77,3.27-12.95,7.75-18.16,13.18-.56-3.09-.81-6.23-.76-9.37-7.61-.04-15.22-.09-22.83-.13-1.26-5.58-1.61-11.37-1.03-17.06,8.46-.11,16.93.23,25.35,1.03.29-2.37.57-4.75.86-7.12Z"/>
</svg>