<?xml version="1.0" encoding="UTF-8"?>
<svg id="_Слой_1" data-name="Слой 1" xmlns="http://www.w3.org/2000/svg" xmlns:xlink="http://www.w3.org/1999/xlink" viewBox="0 0 70.27 66.25">
  <defs>
    <style>
      .cls-1 {
        fill: #6b5c25;
      }

      .cls-1, .cls-2, .cls-3, .cls-4, .cls-5, .cls-6, .cls-7, .cls-8, .cls-9, .cls-10, .cls-11, .cls-12, .cls-13 {
        stroke-width: 0px;
      }

      .cls-2 {
        fill: #3a5633;
      }

      .cls-4 {
        fill: #68613e;
      }

      .cls-5 {
        fill: #917d74;
        opacity: .4;
      }

      .cls-6, .cls-14 {
        fill: none;
      }

      .cls-15 {
        clip-path: url(#clippath-1);
      }

      .cls-7 {
        fill: url(#_Безымянный_градиент_6-2);
      }

      .cls-14, .cls-16 {
        stroke-width: .25px;
      }

      .cls-14, .cls-16, .cls-17 {
        stroke: #000;
      }

      .cls-14, .cls-16, .cls-17, .cls-18 {
        stroke-linecap: round;
        stroke-linejoin: round;
      }

      .cls-16 {
        fill: #261e10;
      }

      .cls-8 {
        fill: #604b42;
      }

      .cls-9 {
        fill: url(#_Безымянный_градиент_6);
      }

      .cls-19 {
        clip-path: url(#clippath);
      }

      .cls-17 {
        fill: #454f1c;
      }

      .cls-18 {
        fill: #e4ce92;
        stroke: #261e10;
      }

      .cls-10 {
        fill: #cca69b;
      }

      .cls-11 {
        fill: #575234;
      }

      .cls-20 {
        clip-path: url(#clippath-3);
      }

      .cls-12 {
        fill: #706426;
      }

      .cls-13 {
        fill: #553b24;
      }
    </style>
    <clipPath id="clippath">
      <rect class="cls-6" x="559.76" y="-85.17" width="123.64" height="231.88"/>
    </clipPath>
    <linearGradient id="_Безымянный_градиент_6" data-name="Безымянный градиент 6" x1="478.05" y1="-101.67" x2="478.05" y2="49.58" gradientUnits="userSpaceOnUse">
      <stop offset="0" stop-color="#8a5d32"/>
      <stop offset="1" stop-color="#d37c1c"/>
    </linearGradient>
    <clipPath id="clippath-1">
      <rect class="cls-6" x="-424.71" y="295.61" width="307.38" height="231.88"/>
    </clipPath>
    <clipPath id="clippath-3">
      <rect class="cls-6" x="245.52" y="-85.17" width="306.9" height="231.88"/>
    </clipPath>
    <linearGradient id="_Безымянный_градиент_6-2" data-name="Безымянный градиент 6" x1="702.07" y1="-250.95" x2="702.07" y2="76.13" xlink:href="#_Безымянный_градиент_6"/>
    <clipPath id="clippath-4">
      <path class="cls-14" d="m563.3,461.82c-96.03,14.85-208.93,29.32-310.16,24.18-17.45-.88-34.56-2.35-51.17-4.5-10.91-53.2-10.97-149.08-7.51-203.28,6.01-94.37,2.62-161.19,31.6-216.57,43.53-83.16,111.86-124.64,176.5-123.03,62.34,1.52,121.25,43.14,151.17,126.08,21.01,58.26,15.97,141.01,9.86,237.03-2.61,41.04,1.23,119-.29,160.09Z"/>
    </clipPath>
  </defs>
  <g class="cls-19">
    <rect class="cls-9" x="-52.56" y="-339.28" width="1061.21" height="603.29"/>
    <path class="cls-4" d="m-86.53-41.07c18.45-32.2,55.3-43.36,80.31-30.45,25.89,13.37,28.56,47.11,28.68,48.98,18.18-6.76,38.36-2.14,50.74,11.47,15.74,17.29,10.62,40,10.15,41.92,3.09-2.77,22.39-19.51,49.86-16.33,19.4,2.25,31.95,13.16,36.18,17.21-4.75-19.49,4.11-39.13,20.3-47.21,12.63-6.31,28.22-4.82,40.6,3.53,6.61-21.95,26.26-37.09,48.1-37.51,18.83-.36,36.57,10.26,45.89,27.36,23.23,42.6,70.21,73.46,83.63,120.1,13.42,46.63,5.14,101.19-28.77,135.91-25.68,26.29-62.65,38.66-99.08,43.51-71.48,9.51-144.1-6.6-212.12-30.56C-.09,222.9-65.15,191.1-133.31,167.56c-25.16-8.69-51.78-16.88-70.62-35.69-30.57-30.52-30.75-83.87-5.63-119.01,25.13-35.13,79.88-55.91,123.03-53.94Z"/>
    <path class="cls-11" d="m445.78,93.23c-.17-1.21-3.42-21.4-22.5-29.78-18.11-7.95-34.37,1.79-35.74,2.65-8.7-12.54-24.35-18.37-39.05-14.56-14.96,3.87-25.91,16.94-27.14,32.43-6.29-33.95-38.1-57.47-72.14-53.61-34.44,3.91-60.32,34.62-58.25,69.5-1.08-2.06-6.43-11.76-18.53-15.89-12.17-4.15-22.4.35-24.49,1.32-3.58-11.82-12.97-36.1-36.4-50.96C75.47,11.44,20.51,19.95-20.85,58.81c-28.57,26.84-38.24,73.48-25.86,110.67,12.38,37.2,44.56,65.27,80.46,81.03,35.89,15.76,75.5,20.73,114.56,24.01,80.78,6.8,162.7,7.13,242.29-8.3,34.1-6.61,71.54-19.15,86.85-50.33,9.44-19.22,8.29-42.27,1.58-62.6-6.72-20.33-30.22-38.89-33.25-60.08Z"/>
    <path class="cls-5" d="m307.34-32.77c-6.19,7.39-20.12,6.66-25.59,6.37-6.43-.33-10.32-1.69-14.52-2.56-3.23-.67-6.65-1.05-11.55-.47-.97.11-3.61.43-6.18,1.1-2.75.72-5.41,1.87-5.81,3.64-.52,2.33,3.12,4.68,3.62,5,7.83,4.96,17.91-1.16,21.15,2.29,2.47,2.63.04,9.82-5.16,13.74-6.15,4.62-15.47,4.15-30.38,3.39-8.18-.42-13.06-1.3-17.96,1.57-4.06,2.38-3.34,4.52-6.71,7.53-3.22,2.87-7.3,3.96-41.89,2.04-6.33-.35-11.03-.67-14.08-3.79-3.49-3.57-1.48-7.4-5.04-9.74-4.17-2.75-12.34-1.11-15.19,2.65-1.74,2.31.15,4.19-.92,6.73-3.12,7.39-25.35,6.16-43.63,5.14-12.39-.69-17.21-1.78-19.4-5.24-1.88-2.98-1.81-7.73.93-10.42,4.56-4.45,13.74-.5,17-4.89,1.29-1.73,1.23-4.2.17-5.77-1.45-2.15-5.34-3.5-18.29-2.09-20.95,2.28-24.88,7.35-32.76,4.93-5.57-1.71-10.47-6.35-12.28-11.34-.77-2.1-.99-4.26-.49-6.29,1.93-7.91,14.29-11.93,22.18-12.72,10.09-1.01,12.41,3.32,30.23,4.44,6.66.42,16.03.94,17.72-2.44.92-1.84-.54-4.69-2.7-5.96-2.86-1.69-5.51.25-9.92-.31-5.19-.66-10.81-4.52-11.33-8.76-.73-6.05,9.17-11,11.99-12.41,1.78-.89,11.74-5.69,23.5-3.39,8.59,1.68,9.21,5.39,16.22,5.22,6.21-.15,6.86-3.1,15.39-4.15,3.65-.45,9.86-1.22,15.09,1.93,1.12.68,6.53,4.14,5.77,8.5-.79,4.55-7.71,6.75-8.28,6.92-6.55,2-10.67-1.36-14.14,1.24-1.98,1.48-2.94,4.3-1.99,6.08,2,3.69,12.09,2.45,15.27,2.06,11.26-1.38,13.66-5.15,24.75-8.37,6.01-1.75,16.15-4.69,27.11-2.37,11,2.33,12.66,7.8,23.55,8.57,5.5.39,9.51-.69,16.36-2.61,18.16-5.08,19.81-10.21,30.73-12.73,13.96-3.22,33.05.13,38.88,10.44.03.06.07.12.1.18,2.79,5.11,2.52,12.29-1.52,17.11Z"/>
    <path class="cls-12" d="m3.07,166.97c32.79,1.51,64.95-9.33,97.76-10.57,11.53-.43,23.09.32,34.61-.28s23.22-2.64,33.31-8.24c-3.23,3.7-5.53,7.16-8.77,10.86,7.42-3.16,15.65-2.36,23.68-1.64,8.03.72,16.09,2.06,24.12,1.36,8.04-.7,16.3-3.8,21.12-10.27-.48,8.03-5.36,14.95-13.02,17.39,12.44-1.99,24.92-3.52,37.35-5.52,13.69-2.19,27.98-4.63,39.11-12.9.19,6.57-3.29,12.33-9.06,15.47-7.63,4.15-17.5,2.4-24.99,6.8,34.05,6.68,69.77,6.37,103.97.53,12.78-2.18,25.58-5.3,36.97-11.5,11.39-6.2,21.34-15.79,25.85-27.94.31,7.29-2.11,15.83-4.44,22.74-1.04,3.08-2.35,6.37-1.37,9.47,1,3.17,4.22,5.21,7.48,5.86,5.77,1.14,12.12-1.62,15.22-6.62,3.11-5,2.77-11.91-.81-16.58,3.59,1.48,5.68,5.91,7.43,9.37s3.24,7.18,6.02,9.89c4.47,4.37,11.3,5.19,17.55,4.9,6.25-.29,12.58-1.45,18.69-.1,29.44,6.51,60.42-7.42,90.57-7.86,14.33-.21,28.82.01,42.76-3.3,13.94-3.32,27.55-10.68,35.1-22.86,3.65-5.89,5.98-12.95,11.53-17.1,3.76-2.81,8.5-3.87,12.75-5.87s8.38-5.61,8.51-10.3c.77,4.54,1,8.49-1.98,12-2.1,2.47-4.93,4.26-7.03,6.73-1.82,2.15-3.07,4.89-3,7.71s1.65,5.66,4.21,6.83c1.59.72,3.39.77,5.14.71,4.16-.14,8.5-.87,11.8-3.41,3.3-2.54,5.18-7.29,3.35-11.03,3.03.75,6.28,1.89,6.72,4.97.44,3.09-1.15,6.37-3.85,7.93,15.51-3.41,32.57-5.58,48.08-8.99,6.67-1.47,13.42-2.97,19.45-6.16s11.35-8.36,13.17-14.93c1.83-6.58-.63-14.53-6.66-17.73,5.63.15,10.52,1.69,14.12,6.02s5.23,10.23,4.36,15.79c-.8-1.97.65-3.85,2.47-4.95s3.99-1.41,6.01-2.05c6.71-2.14,11.87-8.5,12.56-15.51.7-7.01-3.11-14.26-9.27-17.68,11.04-2.26,23.17,6.31,25.73,17.28.95,4.05.85,8.63,3.5,11.84,2.18,2.65,5.82,3.71,9.25,3.63s6.74-1.15,10.04-2.11c19.92-5.79,40.96-7.69,61.6-5.55,4.36.45,8.86,1.07,13.04-.24,4.18-1.31,7.93-5.22,7.42-9.57-.9-7.7-13.11-9.99-13.96-17.7,6.5,3.21,13.15,6.26,19.65,9.47,1.79.88,3.67,1.79,5.66,1.77s4.13-1.29,4.43-3.27c.22-1.43-.57-2.84-1.59-3.86s-2.29-1.75-3.41-2.66c-4-3.26-5.82-8.97-4.45-13.95-1.07,5.38,4.21,9.75,8.9,12.58s10.17,4.18,14.87,6.99c3.41,2.05,6.34,4.82,9.66,7.01,3.33,2.18,7.32,3.8,11.24,3.08,1.44-4.71-2.99-8.15-4.42-13.13,6.76,6.03,16.09,15.24,26.88,19.75,17.5,7.31,37.17,6.66,56.12,5.89l-11.6,322.1L-4.59,379.42,3.07,166.97Z"/>
    <g>
      <path class="cls-2" d="m63.41,74.26c-.02,6.49-2.55,13.21-7.74,17.11l-.17-.18c-1.96-3.09-3.62-7.43-3.75-11.05-.11-3.7.44-7.4.99-11.05.37-2.55.8-5.2,2.22-7.35,1.24-1.85,3.05-4.02,3.54-6.19,2.74,5.9,4.92,12.21,4.9,18.71Z"/>
      <path class="cls-2" d="m40.54,58.44c.33,3.46-.15,6.94-.62,10.38-4.11-.15-9.03-.72-12.19-3.34-3.4-2.82-4.57-7.53-4.98-11.93-.42-4.4.06-9.39-1.52-13.51,4.03,4.39,11.09,4.8,15.32,9.01,2.46,2.44,3.68,5.93,4,9.4Z"/>
      <path class="cls-10" d="m110.68-63.1l4.75.74c-.48,2.92-.8,5.93-2.33,8.43-1.39,2.28-3.65,3.92-5.08,6.17-3.03,4.75-1.72,10.9-.8,16.44.94,5.54.99,12.2-3.4,15.69-1.41,1.11-3.13,1.75-4.54,2.86-2.41,1.87-3.66,4.85-4.79,7.69s-2.33,5.82-4.71,7.79c-2.35,1.95-6.23,2.41-8.29.15-.67-.74-1.09-1.69-1.68-2.5-1.77-2.32-4.93-3.08-7.13-5-4.58-3.96-3.77-11.07-2.49-17.06,1.17,0,2.36.17,3.49.51,2.83.83,4.69-3.34,3.7-6.13-.87-2.49-2.86-4.54-3.63-7.02h.02c3.35-1.5,4.78-5.78,8.11-7.35,1.95-.93,4.28-.79,6.25-1.69,1.49-.68,2.66-1.9,3.72-3.13,3.12-3.6,5.82-7.54,8.03-11.77,1.17-2.19,2.22-4.5,3.94-6.29,1.75-1.76,4.36-2.94,6.74-2.18.3.88.38,1.79.31,2.67-.04.33-.09.65-.18.98Z"/>
      <path class="cls-8" d="m85.63,117.19c.5-1.28.19-2.75-.43-3.98-2.14-4.14-7.34-5.61-10.56-8.99-.87-.93-1.62-2.03-2.63-2.81-.7-.56-1.52-.96-2.35-1.36-.92-4.86-1.74-11.72-2.68-16.59-.77-4.07-1.52-8.41.09-12.23,1.43-3.4,4.58-5.96,5.6-9.52,1.24-4.31-.96-8.8-1.04-13.28-.1-5.5,2.97-11.42.28-16.24-2.04-3.67-7.2-6.15-6.56-10.31,2.19-13.93,1.74-28.29-1.31-42.06,1.89-1.01,4.01-1.53,6.16-1.51-1.28,5.98-2.1,13.1,2.49,17.06,2.2,1.92,5.36,2.68,7.13,5,.59.81,1.01,1.76,1.68,2.5,2.06,2.26,5.95,1.8,8.29-.15,2.38-1.97,3.57-4.94,4.71-7.79s2.38-5.82,4.79-7.69c1.41-1.11,3.13-1.75,4.54-2.86,4.39-3.49,4.34-10.15,3.4-15.69-.93-5.54-2.23-11.69.8-16.44,1.43-2.25,3.68-3.89,5.08-6.17,1.53-2.5,1.85-5.51,2.33-8.43.05-.41.12-.83.21-1.24.51-2.65,1.53-5.42,3.46-7.12,2.32,25.84-.65,52.17-8.77,76.83-1.64,4.98,1.53,10.1,3.27,15.05,2.6,7.34,2.06,15.27.72,23.05l-4.58-.56c.39-2.67-1.68-5.36-3.92-5.6-2.25-.23-4.35,1.54-5.44,3.9-1.07,2.37-1.26,5.2-1.06,7.94.38,5.64,2.19,11.07,2.74,16.71.4,4.23.09,8.5.6,12.71.51,4.22,2.09,8.61,5.16,10.73,2.99-3.71-.39-11.04,2.4-14.96l4.1-1.84c2.59,7.93-.43,17.35-.1,26.06.05.99.14,2.03.64,2.89.96,1.69,3.07,2.25,4.69,3.3,4.17,2.7,4.91,8.39,5.22,13.34.61,9.72,1.23,19.51.07,29.17-.1.93-.22,1.95.31,2.73s1.54,1.07,2.49,1.16c5.34.44,10.65-3.94,15.69-2.1,2.89,1.05,4.73,3.92,5.9,6.77,1.19,2.84,1.96,5.92,3.74,8.43,2.51,3.53,6.74,5.5,11,6.27,4.26.77,8.62.48,12.95.35,2.16-.06,4.4-.07,6.34.84,1.96.92,4.07,3.03,3.68,5.15-2.84-2.79-7.49-1.92-11.38-1.04-5.06,1.16-10.49,1.98-15.34.13-2.45-.93-4.59-2.48-6.69-4.02-2.59-1.87-5.23-3.77-8.25-4.85-3-1.06-6.5-1.22-9.29.34-.56.31-1.1.71-1.37,1.29-.72,1.53.76,3.16,2.2,4.03,1.42.88,3.17,1.85,3.32,3.52.29,3.22-5.49,4.3-5.43,7.53.04,1.38,1.23,2.48,2.52,2.96,1.28.47,2.69.47,4.05.68,5.67.84,10.38,5.13,11.65,10.74-6.65-5.31-17.49.42-24.64-4.19-1.67-2.65-.81-6.13.4-9.01,1.23-2.89,2.8-5.86,2.38-8.97-.46-3.53-3.38-6.23-6.49-7.96-5.53-3.12-13.31-3.73-17.64.93-.69.75-1.3,1.63-2.21,2.09-2.99,1.48-7.07-2.42-9.65-.28-.93.77-1.2,2.08-1.76,3.19-2.07,4.15-7.74,4.66-12.36,4.23-4.64-.43-9.97-1-13.28,2.26-2.59,2.56-2.89,6.55-3.3,10.16-.41,3.62-1.43,7.69-4.64,9.39-2.81,1.51-6.25.62-9.45.56-4.91-.08-9.12,2.19-12.44,5.81-.8-3.3.98-7.06,4.05-8.55,3.12-1.5,7.15-.76,9.93-2.86,2.78-2.08,3.16-6.08,2.88-9.57-.28-3.47-.94-7.15.59-10.28,1.68-3.44,5.61-5.22,9.39-5.93,3.78-.7,7.71-.63,11.38-1.72,1.22-.36,2.58-1.05,2.79-2.31.23-1.39-1.1-2.52-2.32-3.24-2.35-1.39-4.98-2.53-7.7-2.4-4.78.21-8.47,4.02-12.2,7.03-3.71,3.02-9.14,5.42-13.07,2.71-2.24-1.56-3.24-4.3-4.88-6.46-1.64-2.16-4.87-3.8-6.98-2.1-1.36,1.08-1.6,3-2.18,4.64-1.66,4.71-7.23,7.67-12.07,6.4-2.11-.55-4.68-1.68-6.21-.12-1.7,1.72-.06,4.65-.49,7.01-.38,2.14-2.49,3.6-4.61,3.95-2.13.34-3.82-.1-5.91-.64,2.41-1.27,5.2-3.19,4.94-5.91-.12-1.3-.93-2.39-1.49-3.58-.95-2-1.12-4.42-.19-6.42.95-2.01,3.08-3.47,5.29-3.34,1.22.06,2.36.58,3.53.89,4.27,1.12,9.17-.73,11.66-4.39,1.48-2.19,2.13-4.89,3.84-6.9,1.96-2.31,5.22-3.42,8.18-2.76,5.61,1.25,9.85,8.07,15.39,6.61,1.51-.4,2.77-1.38,4.09-2.18,3.08-1.84,6.62-2.83,9.63-4.77,2.99-1.94,5.54-5.38,4.79-8.88-.32-1.58-1.27-2.95-1.61-4.51-.34-1.6-.03-3.26.29-4.86,1.03-5.26,2.07-10.53,3.1-15.79l.06-.07c1.9,2.17,4.6,3.63,7.46,4.08,2.5.4,5.56-.33,6.45-2.69Z"/>
    </g>
  </g>
  <g class="cls-15">
    <g>
      <path class="cls-1" d="m139.16,220.41c-6.23,13.35-23.47,13.86-27.33,13.82-15.23-.16-26.16-11-33.28-18.06-4.08-4.05-6.02-6.87-7.65-9.51,2.7,10.52.85,20.5-5,26.4-9.11,9.17-24.92,5.42-30.02,4.21-17.23-4.08-27.35-17.22-32.06-23.34-4.16-5.4-5.89-9.11-7.17-12.57-3.45,4.57-9.73,10.89-19.09,12.65-15.6,2.94-27.66-9.04-32.39-13.73-6.51-6.47-10.15-13.72-12.19-19.76-.61,6.96-2.81,14.66-8.07,21.97-13.18,18.3-34.71,19.07-38.86,19.12-3.05.04-24.65-.06-38.3-17.02-1.11-1.38-2.14-2.83-3.07-4.34-1.34,4.52-3.67,9.91-7.82,15.02-12.41,15.28-33.29,18.53-48.82,15.27-5.95-1.25-26.45-5.55-33.19-23.99-1.78-4.88-2.31-9.94-1.82-14.86-1.67.52-3.43,1.23-5.24,2.15-9.27,4.76-11.48,11.47-17.17,17.58-9.27,9.96-26.6,17.31-41.35,12.54-1.54-.5-17.3-5.88-22.01-20.95-2.32-7.44-1.1-14.52,1.4-20.58-3.36,1.26-6.97,3.15-10.39,6.01-5.84,4.89-8.48,10.42-12.28,18.76-11.35,24.89-11.11,26.47-13.64,30.94-10.36,18.3-38.47,34.23-62.04,25.81-11.08-3.96-21.23-13.34-25.88-25.3-3.57,1.89-9.16,4.07-15.82,3.59-16.59-1.21-31.34-18.35-30.83-35.03.6-19.68,22.18-31.09,23.82-31.94,10.48-5.35,16.47-2.74,25.9-9.63,9.05-6.62,12.61-15.69,14.51-20.08,12-27.9,36.15-52.73,45.59-62.45,20.71-21.29,42.54-29.68,71.85-40.94,49.38-18.97,91.26-20.43,115.32-21.05,29.06-.76,65.96-1.4,111.19,13.3,16.28,5.29,56.9,18.92,95.47,52.37,17.47,15.15,18.32,20.31,40.74,38.38,27.45,22.12,40.62,34.33,60.27,43.13,7.01,3.14,20.01,8.36,29.36,21.51,3.11,4.37,13.1,18.37,7.38,30.62Z"/>
      <path class="cls-14" d="m-455.58,238.64c-3.57,1.89-9.16,4.07-15.82,3.59-16.59-1.21-31.34-18.35-30.83-35.03.6-19.68,22.18-31.09,23.82-31.94,10.48-5.35,16.47-2.74,25.9-9.63,9.05-6.63,12.61-15.69,14.51-20.08,12-27.9,36.15-52.73,45.59-62.45,20.71-21.29,42.54-29.68,71.85-40.94,49.38-18.97,91.26-20.43,115.32-21.05,29.06-.76,65.96-1.4,111.19,13.3,16.28,5.29,56.9,18.92,95.47,52.37,17.47,15.15,18.32,20.31,40.74,38.38,27.45,22.12,40.62,34.33,60.27,43.13,7.01,3.14,20.01,8.36,29.36,21.51,3.11,4.37,13.1,18.37,7.38,30.62-6.23,13.35-23.47,13.86-27.33,13.82-15.23-.16-26.16-11-33.28-18.06-9.91-9.83-7.18-12.4-18-22.74-8.09-7.73-12.21-8.77-23.54-18.22-7.91-6.6-13.72-12.62-17.23-16.46"/>
    </g>
  </g>
  <g class="cls-20">
    <path class="cls-7" d="m-288.35-764.79V539.85h1980.83V-764.79H-288.35ZM882.61,452.55s-.05-.09-.08-.13c-.01-.02-.01-.02-.02-.03,0,0,0,0-.02-.02-.06-.07-.12-.13-.19-.18-.01,0-.03-.02-.04-.03-.03-.02-.07-.04-.1-.06-.02-.01-.05-.03-.07-.04.02.07.02.15,0,.23-.07.25-.36.44-.62.35-.34-.12-.7-.28-1.06-.34-.02,0-.14,0-.15,0-.08,0-.16,0-.24,0-.16,0-.31,0-.46-.02-.66-.08-1.18-.84-1.13-1.5.03-.38.4-.62.75-.43.05.03.09.05.14.07,0,0,0,0,0,0,0,0,0,0,.02,0,.09.03.18.06.27.09.19.05.39.09.58.12.39.06.74.09,1.17.17.84.14,1.64.47,2.09,1.24.33.56-.54,1.06-.86.5Zm4.97-.29c-.17-.07-.35-.12-.48-.13-.08,0-.17,0-.25,0-.06,0-.14.01-.16.01-.89.58-2.35.24-2.88-.67-.22-.38.14-.85.56-.73.31.09.54.28.77.49.03.02.05.03.08.05,0,0,0,0,.01,0,.03,0,.06.02.09.03,0,0,0,0,0,0,0,0,0,0,.01,0,.05,0,.1,0,.15,0,.08,0,.16,0,.23-.02.05,0,.09-.01.18-.03.08-.01.17-.03.25-.04.17-.03.35-.06.52-.08-.05-.2.06-.44.23-.55.25-.15.53-.04.68.18.18.25.37.49.56.74.24.34-.17.9-.56.73Zm1.24-5.02c-.05-.12-.12-.22-.19-.32-.11.12-.27.19-.46.15-1.03-.21-2.06-.02-3.1.05-.65.05-1.3.01-1.94,0-1.27-.03-2.93-.13-3.91.83-.4.39-1.09-.12-.79-.61.57-.92,1.4-1.16,2.4-1.42,1.22-.31,2.47-.59,3.73-.57,1.24.01,2.47.34,3.71.34.32,0,.56-.07.82.17.33.3.55.72.7,1.12.23.6-.74.86-.96.27Zm2.39,3.85c-.09.1-.22.14-.35.15-.02,0-.03,0-.05-.01-.09.14-.2.28-.35.38-.2.14-.49.15-.69.01-.22-.14-.33-.39-.39-.63-.06-.27.08-.53.35-.62.12-.04.27-.01.38.05.04-.09.07-.18.09-.28,0,.04-.01.08-.02.12,0-.07.01-.13.04-.19.02-.06.05-.12.1-.16.06-.06.14-.1.22-.13.11-.03.23-.02.33.03.06.02.12.05.16.1l.08.1c.16.21.25.47.25.73,0,.13-.06.26-.15.35Z"/>
    <path class="cls-4" d="m-351.59-143.25c34.41-60.1,103.17-80.93,149.82-56.83,48.31,24.95,53.28,87.94,53.51,91.42,33.92-12.62,71.56-3.99,94.67,21.41C-24.24-54.96-33.79-12.57-34.66-9c5.76-5.16,41.77-36.41,93.02-30.47,36.19,4.19,59.61,24.57,67.5,32.12-8.86-36.38,7.66-73.04,37.87-88.13,23.57-11.78,52.65-9.01,75.73,6.59,12.33-40.96,48.99-69.22,89.73-70.01,35.12-.68,68.22,19.16,85.61,51.07,43.34,79.52,130.99,137.12,156.02,224.17,25.03,87.05,9.58,188.88-53.68,253.68-47.91,49.08-116.88,72.17-184.84,81.21-133.36,17.75-268.84-12.32-395.73-57.04-126.89-44.72-248.27-104.07-375.43-148.02-46.94-16.23-96.6-31.5-131.75-66.61-57.03-56.96-57.37-156.55-10.5-222.13,46.87-65.58,149.03-104.36,229.52-100.68Z"/>
    <path class="cls-11" d="m641.84,107.44c-.32-2.27-6.38-39.95-42.01-55.6-33.8-14.85-64.15,3.34-66.71,4.94-16.24-23.41-45.45-34.29-72.89-27.18-27.92,7.23-48.36,31.63-50.65,60.54-11.74-63.37-71.12-107.28-134.66-100.07-64.29,7.29-112.58,64.62-108.72,129.72-2.02-3.85-12.01-21.96-34.59-29.65-22.72-7.74-41.8.65-45.71,2.47C79.2,70.55,61.67,25.24,17.93-2.52-49.38-45.23-151.96-29.35-229.16,43.2c-53.32,50.11-71.38,137.15-48.27,206.58,23.1,69.43,83.18,121.84,150.18,151.26,67,29.42,140.92,38.69,213.84,44.83,150.79,12.7,303.69,13.3,452.25-15.48,63.64-12.33,133.54-35.75,162.12-93.94,17.62-35.87,15.48-78.9,2.95-116.85-12.54-37.95-56.41-72.59-62.06-112.15Z"/>
    <g>
      <path class="cls-13" d="m1400.29,128.56c-41.76-78.71-105.45-152.35-176.14-224.38-49.93-50.88-109.09-101.31-163.96-146.81-78.01-64.68-175.39-102.81-274.79-122.55-99.39-19.73-201.38-21.98-302.72-21.39-64.75.38-131.18,2.21-191.18,26.53-87.29,35.38-149.07,113-206.77,187.45-8.67,11.19-17.53,22.75-21.32,36.39-3.79,13.64,18.79,44.28,29.82,53.15C39.39,20.21,4.27,123.35.42,226.27c-2.72,163.74-5.76,257.3-5.76,257.3,0,0,476.64,11.02,578.84,8.3,201.36-5.37,732.95-8.18,923.45-19.52-15.5-133.72-36.39-221.98-96.65-343.79Zm-517.68,323.99s-.05-.09-.08-.13c-.01-.02-.01-.02-.02-.03,0,0,0,0-.02-.02-.06-.07-.12-.13-.19-.18-.01,0-.03-.02-.04-.03-.03-.02-.07-.04-.1-.06-.02-.01-.05-.03-.07-.04.02.07.02.15,0,.23-.07.25-.36.44-.62.35-.34-.12-.7-.28-1.06-.34-.02,0-.14,0-.15,0-.08,0-.16,0-.24,0-.16,0-.31,0-.46-.02-.66-.08-1.18-.84-1.13-1.5.03-.38.4-.62.75-.43.05.03.09.05.14.07,0,0,0,0,0,0,0,0,0,0,.02,0,.09.03.18.06.27.09.19.05.39.09.58.12.39.06.74.09,1.17.17.84.14,1.64.47,2.09,1.24.33.56-.54,1.06-.86.5Zm4.97-.29c-.17-.07-.35-.12-.48-.13-.08,0-.17,0-.25,0-.06,0-.14.01-.16.01-.89.58-2.35.24-2.88-.67-.22-.38.14-.85.56-.73.31.09.54.28.77.49.03.02.05.03.08.05,0,0,0,0,.01,0,.03,0,.06.02.09.03,0,0,0,0,0,0,0,0,0,0,.01,0,.05,0,.1,0,.15,0,.08,0,.16,0,.23-.02.05,0,.09-.01.18-.03.08-.01.17-.03.25-.04.17-.03.35-.06.52-.08-.05-.2.06-.44.23-.55.25-.15.53-.04.68.18.18.25.37.49.56.74.24.34-.17.9-.56.73Zm1.24-5.02c-.05-.12-.12-.22-.19-.32-.11.12-.27.19-.46.15-1.03-.21-2.06-.02-3.1.05-.65.05-1.3.01-1.94,0-1.27-.03-2.93-.13-3.91.83-.4.39-1.09-.12-.79-.61.57-.92,1.4-1.16,2.4-1.42,1.22-.31,2.47-.59,3.73-.57,1.24.01,2.47.34,3.71.34.32,0,.56-.07.82.17.33.3.55.72.7,1.12.23.6-.74.86-.96.27Zm2.39,3.85c-.09.1-.22.14-.35.15-.02,0-.03,0-.05-.01-.09.14-.2.28-.35.38-.2.14-.49.15-.69.01-.22-.14-.33-.39-.39-.63-.06-.27.08-.53.35-.62.12-.04.27-.01.38.05.04-.09.07-.18.09-.28,0,.04-.01.08-.02.12,0-.07.01-.13.04-.19.02-.06.05-.12.1-.16.06-.06.14-.1.22-.13.11-.03.23-.02.33.03.06.02.12.05.16.1l.08.1c.16.21.25.47.25.73,0,.13-.06.26-.15.35Z"/>
      <path class="cls-14" d="m-5.35,483.56L0,226.67C3.85,123.75,38.97,20.62,92.82-82.65c-11.03-8.87-33.61-39.52-29.82-53.15,3.79-13.64,12.65-25.2,21.32-36.39,57.7-74.44,119.48-152.07,206.77-187.45,60.01-24.32,126.44-26.16,191.18-26.53,101.33-.59,203.32,1.66,302.72,21.39,99.39,19.73,196.78,57.87,274.79,122.55,54.87,45.5,114.04,95.94,163.96,146.81,70.68,72.03,134.37,145.67,176.14,224.38,0,0,76.44,128.34,97.07,343.38"/>
      <path class="cls-14" d="m563.3,461.82c-96.03,14.85-208.93,29.32-310.16,24.18-17.45-.88-34.56-2.35-51.17-4.5-10.91-53.2-10.97-149.08-7.51-203.28,6.01-94.37,2.62-161.19,31.6-216.57,43.53-83.16,111.86-124.64,176.5-123.03,62.34,1.52,121.25,43.14,151.17,126.08,21.01,58.26,15.97,141.01,9.86,237.03-2.61,41.04,1.23,119-.29,160.09Z"/>
    </g>
  </g>
  <path class="cls-3" d="m29.49,66.25c-8.45,0-17-.73-25.42-2.16-.73-.12-1.96-.33-2.84-2.34-1.01-2.3-1.08-5.78-1.11-7.66C0,47.8-.02,41.4.03,35.1c.01-1.34,0-2.8-.01-4.34-.03-4.54-.07-9.69.47-13.95.76-5.92,3.02-6.1,4.24-6.2.7-.06,1.45-.08,2.29-.08,1,0,2.01.04,3.01.08.87.03,1.73.07,2.6.07l48.89.45c1.7.02,4.27.04,6.1,3.75,1.79,3.64,2.25,9.37,2.45,13.95.28,6.44.25,12.96-.09,19.38-.2,3.79-.6,8.04-1.97,10.85-1.26,2.59-2.92,2.97-4.13,3.25-11.38,2.62-22.95,3.95-34.4,3.95Z"/>
  <path class="cls-16" d="m61.52,13.96c1.87.02,3.92.18,5.35,3.09,1.41,2.87,1.85,7.64,2.04,12.07.27,6.22.24,12.51-.09,18.71-.18,3.32-.51,6.89-1.56,9.05-.94,1.93-2.25,2.31-3.48,2.59-19.81,4.57-39.77,5.17-59.62,1.79-.75-.13-1.57-.33-2.12-1.58-.62-1.4-.7-3.67-.74-5.71-.11-6.27-.14-12.55-.09-18.82.04-5.39-.25-12.35.41-17.52.48-3.71,1.71-4.09,3.16-4.2,2.61-.21,5.24.05,7.85.07,10.49.1,20.98.19,31.47.29,5.81.05,11.61.11,17.42.16Z"/>
  <path class="cls-18" d="m61.52,8.7c1.87.02,3.92.18,5.35,3.09,1.41,2.87,1.85,7.64,2.04,12.07.27,6.22.24,12.51-.09,18.71-.18,3.32-.51,6.89-1.56,9.05-.94,1.93-2.25,2.31-3.48,2.59-19.81,4.57-39.77,5.17-59.62,1.79-.75-.13-1.57-.33-2.12-1.58-.62-1.4-.7-3.67-.74-5.71-.11-6.27-.14-12.55-.09-18.82.04-5.39-.25-12.35.41-17.52.48-3.71,1.71-4.09,3.16-4.2,2.61-.21,5.24.05,7.85.07,10.49.1,20.98.19,31.47.29,5.81.05,11.61.11,17.42.16Z"/>
  <path class="cls-17" d="m42.04,17.56c5.33,4.69,12.67,13.55,16.57,19.48-6.77,3.27-12.95,7.75-18.16,13.18-.56-3.09-.81-6.23-.76-9.37-7.61-.04-15.22-.09-22.83-.13-1.26-5.58-1.61-11.37-1.03-17.06,8.46-.11,16.93.23,25.35,1.03.29-2.37.57-4.75.86-7.12Z"/>
</svg>