<?xml version="1.0" encoding="UTF-8"?>
<svg id="_Слой_1" data-name="Слой 1" xmlns="http://www.w3.org/2000/svg" viewBox="0 0 128 128">
  <defs>
    <style>
      .cls-1 {
        fill: #af713f;
      }

      .cls-1, .cls-2, .cls-3, .cls-4 {
        stroke-width: 0px;
      }

      .cls-3 {
        opacity: .2;
      }

      .cls-4 {
        fill: #843e1f;
      }
    </style>
  </defs>
  <g>
    <path class="cls-1" d="m7.99,9.79c-.11,37.04-1.08,74.17-1.19,111.21l-5.37,6.25C1.44,85.12,2.83,42.57.5.5l7.49,9.3Z"/>
    <path class="cls-2" d="m1.43,127.75c-.06,0-.12,0-.17-.03-.19-.07-.32-.26-.32-.47,0-11.38.11-22.98.21-34.2C1.42,62.65,1.7,31.22,0,.52-.01.31.12.11.32.03c.2-.08.43-.01.56.15l7.49,9.3c.07.09.11.2.11.31-.06,18.52-.33,37.38-.6,55.61-.27,18.23-.54,37.08-.59,55.6,0,.12-.04.23-.12.32l-5.37,6.25c-.1.11-.23.17-.38.17ZM1.07,2.01c1.61,30.24,1.33,61.15,1.06,91.06-.1,10.78-.2,21.91-.21,32.85l4.38-5.09c.06-18.46.33-37.25.59-55.43.26-18.17.54-36.96.59-55.42L1.07,2.01Z"/>
  </g>
  <g>
    <path class="cls-1" d="m127.5.5l-4.56,7.59c-38.32-.67-76.66-.11-114.95,1.71L.5.5c41.07,1.92,85.93,1.54,127.01,0Z"/>
    <path class="cls-2" d="m7.99,10.29c-.15,0-.29-.07-.39-.19L.11.81C-.01.66-.03.45.05.27.14.1.32,0,.52,0c36.89,1.73,80.79,1.73,126.97,0,.18-.01.35.09.45.24.09.16.09.35,0,.51l-4.56,7.59c-.09.15-.26.24-.43.24-38.21-.68-76.87-.1-114.92,1.71,0,0-.02,0-.02,0ZM1.57,1.04l6.64,8.24c37.89-1.79,76.39-2.36,114.45-1.7l3.94-6.56c-45.41,1.68-88.59,1.69-125.03.02Z"/>
  </g>
  <g>
    <path class="cls-1" d="m126.53,126.49l-6.96-6.84c.32-16.93.64-33.84.95-50.77.37-19.92,2.04-40.87,2.41-60.79l4.56-7.59c0,43.09-2.07,84.77-.97,125.99Z"/>
    <path class="cls-2" d="m126.53,126.99c-.13,0-.25-.05-.35-.14l-6.96-6.84c-.1-.09-.15-.23-.15-.36l.95-50.77c.18-9.97.7-20.36,1.21-30.41.5-10.04,1.02-20.43,1.21-30.38,0-.09.03-.17.07-.25L127.08.24c.11-.19.34-.28.56-.22.22.06.36.25.36.48,0,17.2-.33,34.36-.66,50.97-.5,25.84-.98,50.24-.32,75.01,0,.2-.11.39-.3.47-.06.03-.13.04-.2.04Zm-6.46-7.54l5.93,5.83c-.61-24.37-.15-48.41.35-73.83.31-16.02.63-32.57.66-49.16l-3.57,5.94c-.19,9.93-.7,20.27-1.2,30.28-.5,10.04-1.02,20.43-1.21,30.38l-.95,50.56Z"/>
  </g>
  <g>
    <path class="cls-1" d="m126.53,126.49c-40.18,1.18-84.91,1.17-125.1.76l5.37-6.25c37.44.65,75.36.12,112.78-1.35l6.96,6.84Z"/>
    <path class="cls-2" d="m48.16,128c-14.68,0-30.22-.08-46.74-.25-.19,0-.37-.12-.45-.29-.08-.18-.05-.38.08-.53l5.37-6.25c.1-.11.22-.19.38-.17,35.97.63,73.91.18,112.75-1.35.14,0,.27.05.37.14l6.96,6.84c.14.14.19.35.11.53s-.25.31-.45.31c-23.08.68-48.98,1.01-78.39,1.01Zm-45.66-1.23c48.56.48,88.77.24,122.85-.74l-5.97-5.87c-38.7,1.52-76.5,1.97-112.36,1.35l-4.52,5.27Z"/>
  </g>
  <g>
    <path class="cls-4" d="m122.94,8.09c-.37,19.92-2.04,40.87-2.41,60.79-.32,16.93-.63,33.84-.95,50.77-37.42,1.47-75.34,2-112.78,1.35.11-37.04,1.08-74.17,1.19-111.21,38.29-1.82,76.63-2.38,114.95-1.71Z"/>
    <path class="cls-2" d="m38.68,121.77c-10.78,0-21.42-.09-31.89-.27-.27,0-.49-.23-.49-.5.06-18.52.33-37.38.6-55.61.27-18.23.54-37.08.59-55.6,0-.26.21-.48.47-.49,38.07-1.81,76.75-2.38,114.98-1.71.13,0,.26.06.35.15.09.09.14.22.14.35-.18,9.97-.7,20.36-1.21,30.41-.5,10.04-1.02,20.43-1.21,30.38l-.95,50.77c0,.26-.21.48-.48.49-27.55,1.08-54.65,1.62-80.92,1.62Zm-31.38-1.26c35.68.61,73.29.16,111.79-1.34l.94-50.3c.18-9.97.7-20.36,1.21-30.41.49-9.88,1-20.08,1.2-29.88-37.88-.66-76.22-.09-113.95,1.69-.06,18.37-.33,37.06-.59,55.14-.26,18.07-.54,36.75-.59,55.11Z"/>
  </g>
  <path class="cls-3" d="m7.99,9.79c-.11,37.04-1.08,74.17-1.19,111.21,37.44.65,75.36.12,112.78-1.35.32-16.93.64-33.84.95-50.77.37-19.92,2.04-40.87,2.41-60.79-38.32-.67-76.66-.11-114.95,1.71Zm106.62,58.62c-.29,15.13-.58,30.24-.85,45.36-33.44,1.32-67.32,1.8-100.77,1.21.1-33.09.97-66.27,1.07-99.36,34.21-1.63,68.47-2.13,102.71-1.53-.33,17.8-1.83,36.51-2.15,54.31Z"/>
</svg>