<?xml version="1.0" encoding="UTF-8"?>
<svg id="_Слой_1" data-name="Слой 1" xmlns="http://www.w3.org/2000/svg" xmlns:xlink="http://www.w3.org/1999/xlink" viewBox="0 0 62.41 64.12">
  <defs>
    <style>
      .cls-1 {
        fill: #5a4726;
      }

      .cls-1, .cls-2 {
        stroke: #000;
        stroke-linecap: round;
        stroke-linejoin: round;
        stroke-width: .25px;
      }

      .cls-3 {
        fill: #6b5c25;
      }

      .cls-3, .cls-4, .cls-5, .cls-6, .cls-7, .cls-8, .cls-9 {
        stroke-width: 0px;
      }

      .cls-10 {
        clip-path: url(#clippath-2);
      }

      .cls-4 {
        fill: #777657;
      }

      .cls-6, .cls-2 {
        fill: none;
      }

      .cls-11 {
        clip-path: url(#clippath-1);
      }

      .cls-7 {
        fill: url(#_Безымянный_градиент_6-2);
      }

      .cls-8 {
        fill: url(#_Безымянный_градиент_6);
      }

      .cls-12 {
        clip-path: url(#clippath);
      }

      .cls-13 {
        fill: #ea6d42;
        stroke: #1d1d1b;
        stroke-miterlimit: 10;
      }

      .cls-9 {
        fill: #553b24;
      }
    </style>
    <clipPath id="clippath">
      <rect class="cls-6" x="518.7" y="311.17" width="123.64" height="231.88"/>
    </clipPath>
    <linearGradient id="_Безымянный_градиент_6" data-name="Безымянный градиент 6" x1="436.99" y1="294.68" x2="436.99" y2="445.92" gradientUnits="userSpaceOnUse">
      <stop offset="0" stop-color="#8a5d32"/>
      <stop offset="1" stop-color="#d37c1c"/>
    </linearGradient>
    <clipPath id="clippath-1">
      <rect class="cls-6" x="204.46" y="91.87" width="215.27" height="211.96"/>
    </clipPath>
    <clipPath id="clippath-2">
      <rect class="cls-6" x="204.46" y="311.17" width="306.9" height="231.88"/>
    </clipPath>
    <linearGradient id="_Безымянный_градиент_6-2" data-name="Безымянный градиент 6" x1="661.01" y1="145.4" x2="661.01" y2="472.47" xlink:href="#_Безымянный_градиент_6"/>
  </defs>
  <g class="cls-12">
    <rect class="cls-8" x="-93.61" y="57.07" width="1061.21" height="603.29"/>
  </g>
  <g class="cls-11">
    <path class="cls-4" d="m316.84,24.28c2.79-.11,5.55-.2,8.33-.3-2.96-.05-5.92-.11-8.9-.11-2.98,0-5.96,0-8.95,0-2.99.02-5.99.04-8.99.07-3,.02-6.01.08-9.02.15-6.02.13-12.05.28-18.07.45-6.02.2-12.04.41-18.03.61-6,.18-11.97.44-17.91.64-5.94.19-11.84.37-17.69.56-5.85.17-11.65.31-17.38.38-5.73.11-11.4.16-16.98.13-1.41-.15-3.52-.37-5.63-.59-2.11-.23-4.22-.42-5.64-.56-22.32.21-50.05,3.23-72.12,6.42-5.52.81-10.22,2.8-13.53,4.59-1.66.89-2.97,1.74-3.86,2.36-.9.63-1.38,1.03-1.38,1.03-2.67,1.3-5.21,3.6-2.35,4.3,1.4-.02,3.3-.14,5.39-.25,2.08-.11,4.34-.22,6.43-.28,4.17-.11,7.68.05,7.78,1.05.05.5-2.7.78-5.47,1.06.2,2.01-7.66,6.84-10.41,7.13-2.66,1.3-18.85,6.08-21.48,7.38-4.05,1.21.34,3,7.11,4.55,3.38.77,7.37,1.49,11.2,2.02,1.91.27,3.79.49,5.54.66,1.75.17,3.36.3,4.75.35,5.59.45.26,2.5.41,4.01,5.44-1.05,8.33.17,13.76-.89.01.13,1.05.15,2.73.1.84-.02,1.84-.07,2.95-.13,1.11-.05,2.34-.11,3.63-.19,5.16-.3,11.34-.75,15.45-1.14,0,0,.67-.19,2.38-.48,1.7-.29,4.43-.65,8.55-1.01,2.75-.24,2.7-.74,2.66-1.24q.04.5.09,1c2.66-1.24,8.24-.72,10.94-1.47q.04.5.09,1c2.7-.75,5.44-.96,8.19-1.12,2.75-.16,5.5-.26,8.23-.73q.04.5.08,1c2.75-.22,5.49-.44,5.53.06q.04.5.08,1.01c1.39.14,3.44-.16,5.15-.35,1.71-.19,3.08-.29,3.12.21q-.04-.5-.08-1c10.99-.81,19.25-.95,27.52-.98,2.76.07,5.61.08,8.52.04,2.91-.03,5.89-.13,8.92-.22,6.06-.2,12.33-.55,18.67-1,1.59-.11,3.18-.23,4.77-.34,1.6-.12,3.19-.24,4.79-.36,3.2-.25,6.4-.51,9.6-.79,6.39-.56,12.73-1.11,18.9-1.65,2.75-.13,5.45-1.27,2.65-2.14,2.75-.13,5.51-.26,8.25-.39,5.5-.23,2.68-1.62,8.19-1.85,5.49-.54,10.99-1.01,16.49-1.39,5.5-.36,11.01-.67,16.51-.93,5.51-.28,11.02-.44,16.52-.6l8.26-.22,4.13-.1,4.13-.07,16.53-.25,16.53-.22,16.53-.32c5.51-.12,11.02-.29,16.53-.53-5.51-.21-10.34-.54-15.17-.76-2.41-.11-4.83-.18-7.32-.19-2.5,0-5.08.07-7.83.23,0-.5-.02-1.51-2.78-1.47-4.14-.07-8.45-.03-12.72.02-4.27.07-8.49.18-12.45.23-3.96.05-7.67.05-10.91-.08-3.24-.12-6-.35-8.08-.8-2.77-.43-5.57-1.86-13.85-1.63,2.76-.08,5.52-.15,8.28-.23-.01-.5-.04-1.51-.04-1.51-5.53-.1-11.75-.19-17.97-.21-6.22-.04-12.45-.09-17.98-.13,0,0-.04-1.01-.06-1.51l-5.52.23c-1.42-.82-.58-1.49,1.69-2.04,1.14-.28,2.63-.52,4.38-.75,1.75-.22,3.75-.4,5.91-.57,8.63-.67,19.69-1.08,26.6-1.49-.01-.5-.04-1.51-.06-2.01l-5.54.15-.03-1.01c4.15-.12,8.13-.23,12.03-.34,1.95-.05,3.87-.11,5.78-.16.96-.03,1.91-.05,2.86-.08.95-.02,1.9-.04,2.86-.06,3.81-.08,7.61-.16,11.51-.24,1.95-.04,3.92-.08,5.92-.13,2-.05,4.04-.09,6.11-.11-2.77.03-8.31.16-11.08.22-.01-.5-.02-1.01-2.79-.95,5.54-.12,11.77-.14,18.01-.21,6.23-.09,12.46-.32,17.99-.88,2.76-.52-.02-2.03-8.34-2.4-4.16.06-7.63.11-11.09.16-1.73.03-3.47.05-5.29.08-1.82.04-3.73.08-5.81.12l-.02-1.01c5.55-.14,13.87.27,19.41-.32,2.77-.55-5.57-1.43-2.81-1.97,2.78-.04,5.56-.08,8.33-.63-8.34.13-19.42.76-27.76.46-2.78-.44-5.57-.89-5.59-1.89-3.47.2-6.76.27-9.88.23-3.12-.02-6.08-.16-8.86-.4-5.57-.47-10.46-1.35-14.67-2.49-2.8-.91-16.69.06-25.02.37Z"/>
  </g>
  <g class="cls-10">
    <path class="cls-7" d="m-329.41-368.45V936.19h1980.83V-368.45H-329.41ZM841.56,848.89s-.05-.09-.08-.13c-.01-.02-.01-.02-.02-.03,0,0,0,0-.02-.02-.06-.07-.12-.13-.19-.18-.01,0-.03-.02-.04-.03-.03-.02-.07-.04-.1-.06-.02-.01-.05-.03-.07-.04.02.07.02.15,0,.23-.07.25-.36.44-.62.35-.34-.12-.7-.28-1.06-.34-.02,0-.14,0-.15,0-.08,0-.16,0-.24,0-.16,0-.31,0-.46-.02-.66-.08-1.18-.84-1.13-1.5.03-.38.4-.62.75-.43.05.03.09.05.14.07,0,0,0,0,0,0,0,0,0,0,.02,0,.09.03.18.06.27.09.19.05.39.09.58.12.39.06.74.09,1.17.17.84.14,1.64.47,2.09,1.24.33.56-.54,1.06-.86.5Zm4.97-.29c-.17-.07-.35-.12-.48-.13-.08,0-.17,0-.25,0-.06,0-.14.01-.16.01-.89.58-2.35.24-2.88-.67-.22-.38.14-.85.56-.73.31.09.54.28.77.49.03.02.05.03.08.05,0,0,0,0,.01,0,.03,0,.06.02.09.03,0,0,0,0,0,0,0,0,0,0,.01,0,.05,0,.1,0,.15,0,.08,0,.16,0,.23-.02.05,0,.09-.01.18-.03.08-.01.17-.03.25-.04.17-.03.35-.06.52-.08-.05-.2.06-.44.23-.55.25-.15.53-.04.68.18.18.25.37.49.56.74.24.34-.17.9-.56.73Zm1.24-5.02c-.05-.12-.12-.22-.19-.32-.11.12-.27.19-.46.15-1.03-.21-2.06-.02-3.1.05-.65.05-1.3.01-1.94,0-1.27-.03-2.93-.13-3.91.83-.4.39-1.09-.12-.79-.61.57-.92,1.4-1.16,2.4-1.42,1.22-.31,2.47-.59,3.73-.57,1.24.01,2.47.34,3.71.34.32,0,.56-.07.82.17.33.3.55.72.7,1.12.23.6-.74.86-.96.27Zm2.39,3.85c-.09.1-.22.14-.35.15-.02,0-.03,0-.05-.01-.09.14-.2.28-.35.38-.2.14-.49.15-.69.01-.22-.14-.33-.39-.39-.63-.06-.27.08-.53.35-.62.12-.04.27-.01.38.05.04-.09.07-.18.09-.28,0,.04-.01.08-.02.12,0-.07.01-.13.04-.19.02-.06.05-.12.1-.16.06-.06.14-.1.22-.13.11-.03.23-.02.33.03.06.02.12.05.16.1l.08.1c.16.21.25.47.25.73,0,.13-.06.26-.15.35Z"/>
    <path class="cls-4" d="m513.29-125.44c10.51-.43,20.94-.74,31.45-1.12-11.16-.19-22.36-.41-33.58-.43-11.23-.04-22.49-.03-33.78.02-11.29.08-22.6.17-33.93.25-11.33.09-22.68.31-34.03.56-22.71.49-45.46,1.07-68.19,1.68-22.72.77-45.43,1.53-68.05,2.3-22.63.69-45.17,1.64-67.57,2.4-22.41.71-44.68,1.41-66.75,2.11-22.07.66-43.95,1.16-65.58,1.43-21.62.4-43,.6-64.08.5-5.31-.56-13.28-1.39-21.25-2.23-7.97-.85-15.94-1.59-21.27-2.13-84.25.8-188.89,12.18-272.16,24.24-20.83,3.06-38.56,10.58-51.05,17.33-6.25,3.38-11.2,6.56-14.58,8.9-3.38,2.36-5.2,3.87-5.2,3.87-10.06,4.91-19.67,13.58-8.86,16.24,5.26-.08,12.46-.54,20.32-.94,7.86-.41,16.37-.85,24.25-1.05,15.75-.4,28.97.18,29.35,3.96.19,1.89-10.2,2.94-20.63,3.99.76,7.57-28.91,25.8-39.29,26.91-10.04,4.91-71.13,22.95-81.08,27.84-15.27,4.57,1.28,11.31,26.81,17.18,12.77,2.92,27.8,5.6,42.25,7.63,7.23,1.01,14.31,1.86,20.89,2.5,6.59.65,12.69,1.13,17.94,1.31,21.11,1.68.97,9.45,1.56,15.12,20.51-3.98,31.44.64,51.94-3.34.05.47,3.97.56,10.31.36,3.17-.09,6.95-.27,11.15-.48,4.2-.19,8.83-.43,13.69-.71,19.46-1.12,42.78-2.84,58.3-4.31,0,0,2.54-.72,8.97-1.8,6.42-1.11,16.73-2.45,32.25-3.82,10.36-.91,10.19-2.81,10.03-4.69q.17,1.89.33,3.79c10.04-4.69,31.08-2.72,41.29-5.53q.16,1.9.32,3.79c10.18-2.83,20.54-3.63,30.91-4.24,10.38-.6,20.77-.96,31.05-2.75q.15,1.89.3,3.79c10.38-.84,20.7-1.68,20.85.21q.15,1.89.3,3.79c5.26.54,12.99-.6,19.45-1.31,6.46-.72,11.64-1.1,11.78.79q-.14-1.89-.29-3.79c41.46-3.06,72.66-3.58,103.87-3.7,10.42.25,21.16.29,32.14.17,10.99-.1,22.22-.48,33.66-.81,22.87-.74,46.52-2.07,70.47-3.77,5.99-.43,12-.85,18.02-1.28,6.02-.45,12.05-.89,18.09-1.34,12.07-.93,24.16-1.93,36.21-2.97,24.1-2.11,48.04-4.21,71.33-6.24,10.37-.49,20.56-4.79,10.01-8.08,10.37-.5,20.78-.99,31.15-1.49,20.75-.85,10.13-6.13,30.89-6.98,20.73-2.02,41.47-3.82,62.23-5.26,20.76-1.38,41.54-2.52,62.31-3.51,20.78-1.05,41.57-1.65,62.36-2.25l31.19-.82,15.6-.37,15.6-.25,62.39-.95,62.39-.82,62.38-1.21c20.79-.47,41.59-1.11,62.38-1.99-20.81-.78-39.03-2.06-57.24-2.86-9.11-.4-18.21-.69-27.64-.73-9.43-.03-19.17.27-29.56.88-.03-1.9-.07-5.69-10.49-5.54-15.62-.25-31.89-.13-47.98.08-16.1.26-32.03.69-46.99.88-14.96.2-28.95.2-41.16-.29-12.21-.46-22.64-1.32-30.5-3.01-10.46-1.6-21.01-7.01-52.28-6.14,10.43-.29,20.84-.58,31.26-.87-.05-1.9-.16-5.7-.16-5.7-20.87-.36-44.35-.71-67.83-.79-23.48-.17-46.97-.33-67.84-.48,0,0-.15-3.8-.22-5.69l-20.83.86c-5.34-3.11-2.18-5.62,6.39-7.7,4.28-1.04,9.92-1.97,16.52-2.81,6.6-.84,14.17-1.52,22.3-2.16,32.56-2.54,74.3-4.06,100.37-5.63-.05-1.89-.16-5.69-.22-7.59l-20.9.58-.12-3.8c15.67-.44,30.69-.85,45.38-1.26,7.34-.2,14.61-.41,21.83-.61,3.61-.1,7.21-.2,10.81-.3,3.6-.08,7.19-.15,10.78-.23,14.37-.3,28.73-.61,43.43-.92,7.35-.16,14.78-.31,22.33-.47,7.55-.17,15.23-.33,23.07-.42-10.47.1-31.37.62-41.83.82-.04-1.89-.08-3.8-10.52-3.58,20.91-.44,44.44-.51,67.95-.79,23.52-.33,47.02-1.19,67.91-3.33,10.43-1.96-.08-7.67-31.47-9.07-15.7.23-28.77.42-41.85.61-6.54.1-13.08.19-19.94.29-6.87.14-14.06.29-21.91.46l-.07-3.8c20.94-.53,52.35,1.02,73.26-1.21,10.45-2.06-21.03-5.4-10.6-7.45,10.49-.15,20.96-.31,31.43-2.36-31.46.5-73.3,2.86-104.76,1.74-10.5-1.67-21.02-3.36-21.11-7.15-13.08.75-25.51,1.01-37.3.86-11.79-.09-22.94-.61-33.45-1.5-21.01-1.79-39.46-5.08-55.34-9.38-10.58-3.43-62.99.24-94.43,1.4Z"/>
    <g>
      <path class="cls-9" d="m1359.24,524.9c-41.76-78.71-105.45-152.35-176.14-224.38-49.93-50.88-109.09-101.31-163.96-146.81-78.01-64.68-175.39-102.81-274.79-122.55-99.39-19.73-201.38-21.98-302.72-21.39-64.75.38-131.18,2.21-191.18,26.53-87.29,35.38-149.07,113-206.77,187.45-8.67,11.19-17.53,22.75-21.32,36.39-3.79,13.64,18.79,44.28,29.82,53.15C-1.67,416.56-36.79,519.7-40.64,622.61c-2.72,163.74-5.76,257.3-5.76,257.3,0,0,476.64,11.02,578.84,8.3,201.36-5.37,732.95-8.18,923.45-19.52-15.5-133.72-36.39-221.98-96.65-343.79Zm-517.68,323.99s-.05-.09-.08-.13c-.01-.02-.01-.02-.02-.03,0,0,0,0-.02-.02-.06-.07-.12-.13-.19-.18-.01,0-.03-.02-.04-.03-.03-.02-.07-.04-.1-.06-.02-.01-.05-.03-.07-.04.02.07.02.15,0,.23-.07.25-.36.44-.62.35-.34-.12-.7-.28-1.06-.34-.02,0-.14,0-.15,0-.08,0-.16,0-.24,0-.16,0-.31,0-.46-.02-.66-.08-1.18-.84-1.13-1.5.03-.38.4-.62.75-.43.05.03.09.05.14.07,0,0,0,0,0,0,0,0,0,0,.02,0,.09.03.18.06.27.09.19.05.39.09.58.12.39.06.74.09,1.17.17.84.14,1.64.47,2.09,1.24.33.56-.54,1.06-.86.5Zm4.97-.29c-.17-.07-.35-.12-.48-.13-.08,0-.17,0-.25,0-.06,0-.14.01-.16.01-.89.58-2.35.24-2.88-.67-.22-.38.14-.85.56-.73.31.09.54.28.77.49.03.02.05.03.08.05,0,0,0,0,.01,0,.03,0,.06.02.09.03,0,0,0,0,0,0,0,0,0,0,.01,0,.05,0,.1,0,.15,0,.08,0,.16,0,.23-.02.05,0,.09-.01.18-.03.08-.01.17-.03.25-.04.17-.03.35-.06.52-.08-.05-.2.06-.44.23-.55.25-.15.53-.04.68.18.18.25.37.49.56.74.24.34-.17.9-.56.73Zm1.24-5.02c-.05-.12-.12-.22-.19-.32-.11.12-.27.19-.46.15-1.03-.21-2.06-.02-3.1.05-.65.05-1.3.01-1.94,0-1.27-.03-2.93-.13-3.91.83-.4.39-1.09-.12-.79-.61.57-.92,1.4-1.16,2.4-1.42,1.22-.31,2.47-.59,3.73-.57,1.24.01,2.47.34,3.71.34.32,0,.56-.07.82.17.33.3.55.72.7,1.12.23.6-.74.86-.96.27Zm2.39,3.85c-.09.1-.22.14-.35.15-.02,0-.03,0-.05-.01-.09.14-.2.28-.35.38-.2.14-.49.15-.69.01-.22-.14-.33-.39-.39-.63-.06-.27.08-.53.35-.62.12-.04.27-.01.38.05.04-.09.07-.18.09-.28,0,.04-.01.08-.02.12,0-.07.01-.13.04-.19.02-.06.05-.12.1-.16.06-.06.14-.1.22-.13.11-.03.23-.02.33.03.06.02.12.05.16.1l.08.1c.16.21.25.47.25.73,0,.13-.06.26-.15.35Z"/>
      <path class="cls-2" d="m-46.41,879.91l5.35-256.89c3.85-102.92,38.97-206.05,92.82-309.32-11.03-8.87-33.61-39.52-29.82-53.15,3.79-13.64,12.65-25.2,21.32-36.39,57.7-74.44,119.48-152.07,206.77-187.45,60.01-24.32,126.44-26.16,191.18-26.53,101.33-.59,203.32,1.66,302.72,21.39,99.39,19.73,196.78,57.87,274.79,122.55,54.87,45.5,114.04,95.94,163.96,146.81,70.68,72.03,134.37,145.67,176.14,224.38,0,0,76.44,128.34,97.07,343.38"/>
      <g>
        <path class="cls-3" d="m1209.47,278.22c-12.12,25.99-45.69,26.98-53.19,26.9-29.64-.3-50.92-21.41-64.78-35.16-7.94-7.89-11.72-13.37-14.88-18.5,5.26,20.47,1.66,39.9-9.74,51.39-17.74,17.86-48.5,10.56-58.44,8.2-33.55-7.95-53.25-33.52-62.42-45.43-8.1-10.51-11.47-17.73-13.95-24.48-6.71,8.89-18.94,21.19-37.17,24.63-30.37,5.72-53.84-17.6-63.04-26.73-12.67-12.59-19.75-26.71-23.73-38.47-1.19,13.55-5.47,28.53-15.72,42.76-25.65,35.61-67.56,37.11-75.64,37.21-5.93.07-47.99-.12-74.56-33.14-2.17-2.69-4.16-5.52-5.97-8.44-2.6,8.8-7.14,19.29-15.23,29.24-24.17,29.74-64.81,36.07-95.03,29.73-11.58-2.42-51.48-10.8-64.61-46.7-3.47-9.5-4.49-19.35-3.55-28.93-3.25,1.02-6.68,2.39-10.21,4.19-18.04,9.27-22.34,22.32-33.42,34.23-18.04,19.39-51.78,33.7-80.48,24.41-3-.97-33.68-11.45-42.84-40.78-4.52-14.48-2.15-28.27,2.73-40.06-6.53,2.46-13.58,6.13-20.23,11.69-11.38,9.51-16.5,20.29-23.91,36.52-22.1,48.45-21.63,51.52-26.55,60.22-20.17,35.62-74.88,66.64-120.76,50.23-21.58-7.71-41.32-25.96-50.38-49.25-6.96,3.68-17.83,7.92-30.79,6.98-32.29-2.36-61-35.71-60.02-68.2,1.16-38.31,43.17-60.53,46.37-62.16,20.39-10.42,32.07-5.33,50.41-18.74,17.61-12.9,24.55-30.54,28.24-39.09,23.35-54.31,70.36-102.65,88.75-121.57,40.31-41.44,82.81-57.77,139.86-79.68,96.13-36.93,177.64-39.76,224.47-40.98,56.57-1.48,128.39-2.72,216.43,25.89,31.69,10.3,110.75,36.82,185.84,101.94,34.02,29.5,35.66,39.54,79.3,74.71,53.43,43.05,79.07,66.83,117.32,83.95,13.64,6.11,38.96,16.28,57.15,41.87,6.05,8.51,25.5,35.77,14.38,59.6Z"/>
        <path class="cls-2" d="m51.76,313.69c-6.96,3.68-17.83,7.92-30.79,6.98-32.29-2.36-61-35.71-60.02-68.2,1.16-38.31,43.17-60.53,46.37-62.16,20.39-10.42,32.07-5.33,50.41-18.74,17.61-12.9,24.55-30.54,28.24-39.09,23.35-54.31,70.36-102.65,88.75-121.57,40.31-41.44,82.81-57.77,139.86-79.68,96.13-36.93,177.64-39.76,224.47-40.98,56.57-1.48,128.39-2.72,216.43,25.89,31.69,10.3,110.75,36.82,185.84,101.94,34.02,29.5,35.66,39.54,79.3,74.71,53.43,43.05,79.07,66.83,117.32,83.95,13.64,6.11,38.96,16.28,57.15,41.87,6.05,8.51,25.5,35.77,14.38,59.6-12.12,25.99-45.69,26.98-53.2,26.9-29.64-.3-50.92-21.41-64.78-35.16-19.29-19.13-13.98-24.13-35.04-44.26-15.76-15.05-23.77-17.08-45.82-35.48-15.4-12.85-26.71-24.56-33.55-32.05"/>
      </g>
    </g>
  </g>
  <g>
    <path class="cls-5" d="m28.16,64.09c-5.21-3.27-10.49-6.49-15.12-10.47-4.63-3.97-8.65-8.76-10.73-14.36S-1.32,20.78,1.67,15.54s10.77-7.87,16.99-7.26c6.22.61,11.73,6.04,11.34,11.98-.09-6.38,9.24-11.6,15.91-12.38,19.13-2.25,19.49,26.09,11.85,38.11-3.08,4.85-7.61,8.75-12.74,11.58-2.49,1.37-5.11,2.42-7.82,3.33-1.07.36-8.41,3.6-9.05,3.2Z"/>
    <path class="cls-1" d="m28.33,61.63c-4.97-3.28-10-6.53-14.42-10.52s-8.25-8.8-10.25-14.41S.16,18.18,2.99,12.94c2.83-5.24,10.23-7.85,16.15-7.23s11.18,6.09,10.82,12.03c-.1-6.39,8.76-11.59,15.1-12.35,18.2-2.19,18.61,26.18,11.38,38.19-2.92,4.85-7.21,8.74-12.09,11.56-2.37,1.37-4.86,2.41-7.43,3.31-1.02.36-7.99,3.58-8.6,3.18Z"/>
    <path class="cls-13" d="m28.33,51.45c-4.97-3.28-10-6.53-14.42-10.52s-8.25-8.8-10.25-14.41-2.01-12.09.82-17.33C7.3,3.95,13.21.27,19.14.9s11.18,6.09,10.82,12.03c-.1-6.39,5.57-11.52,11.91-12.28,18.2-2.19,21.8,20.75,14.58,32.76-2.92,4.85-7.21,8.74-12.09,11.56-2.37,1.37-4.86,2.41-7.43,3.31-1.02.36-7.99,3.58-8.6,3.18Z"/>
  </g>
</svg>