<?xml version="1.0" encoding="UTF-8"?>
<svg id="_Слой_1" data-name="Слой 1" xmlns="http://www.w3.org/2000/svg" xmlns:xlink="http://www.w3.org/1999/xlink" viewBox="0 0 62.41 64.12">
  <defs>
    <style>
      .cls-1 {
        fill: #6b5c25;
      }

      .cls-1, .cls-2, .cls-3, .cls-4, .cls-5, .cls-6, .cls-7 {
        stroke-width: 0px;
      }

      .cls-2 {
        fill: #777657;
      }

      .cls-8 {
        fill: #b65534;
        stroke: #1d1d1b;
        stroke-miterlimit: 10;
      }

      .cls-4, .cls-9 {
        fill: none;
      }

      .cls-10 {
        clip-path: url(#clippath-1);
      }

      .cls-5 {
        fill: url(#_Безымянный_градиент_6-2);
      }

      .cls-9, .cls-11 {
        stroke: #000;
        stroke-linecap: round;
        stroke-linejoin: round;
        stroke-width: .25px;
      }

      .cls-11 {
        fill: #261e10;
      }

      .cls-6 {
        fill: url(#_Безымянный_градиент_6);
      }

      .cls-12 {
        clip-path: url(#clippath);
      }

      .cls-7 {
        fill: #553b24;
      }
    </style>
    <clipPath id="clippath">
      <rect class="cls-4" x="593.66" y="311.17" width="123.64" height="231.88"/>
    </clipPath>
    <linearGradient id="_Безымянный_градиент_6" data-name="Безымянный градиент 6" x1="511.95" y1="294.68" x2="511.95" y2="445.92" gradientUnits="userSpaceOnUse">
      <stop offset="0" stop-color="#8a5d32"/>
      <stop offset="1" stop-color="#d37c1c"/>
    </linearGradient>
    <clipPath id="clippath-1">
      <rect class="cls-4" x="279.43" y="311.17" width="306.9" height="231.88"/>
    </clipPath>
    <linearGradient id="_Безымянный_градиент_6-2" data-name="Безымянный градиент 6" x1="735.97" y1="145.4" x2="735.97" y2="472.47" xlink:href="#_Безымянный_градиент_6"/>
  </defs>
  <g class="cls-12">
    <rect class="cls-6" x="-18.65" y="57.07" width="1061.21" height="603.29"/>
  </g>
  <g class="cls-10">
    <path class="cls-5" d="m-254.44-368.45V936.19h1980.83V-368.45H-254.44ZM916.52,848.89s-.05-.09-.08-.13c-.01-.02-.01-.02-.02-.03,0,0,0,0-.02-.02-.06-.07-.12-.13-.19-.18-.01,0-.03-.02-.04-.03-.03-.02-.07-.04-.1-.06-.02-.01-.05-.03-.07-.04.02.07.02.15,0,.23-.07.25-.36.44-.62.35-.34-.12-.7-.28-1.06-.34-.02,0-.14,0-.15,0-.08,0-.16,0-.24,0-.16,0-.31,0-.46-.02-.66-.08-1.18-.84-1.13-1.5.03-.38.4-.62.75-.43.05.03.09.05.14.07,0,0,0,0,0,0,0,0,0,0,.02,0,.09.03.18.06.27.09.19.05.39.09.58.12.39.06.74.09,1.17.17.84.14,1.64.47,2.09,1.24.33.56-.54,1.06-.86.5Zm4.97-.29c-.17-.07-.35-.12-.48-.13-.08,0-.17,0-.25,0-.06,0-.14.01-.16.01-.89.58-2.35.24-2.88-.67-.22-.38.14-.85.56-.73.31.09.54.28.77.49.03.02.05.03.08.05,0,0,0,0,.01,0,.03,0,.06.02.09.03,0,0,0,0,0,0,0,0,0,0,.01,0,.05,0,.1,0,.15,0,.08,0,.16,0,.23-.02.05,0,.09-.01.18-.03.08-.01.17-.03.25-.04.17-.03.35-.06.52-.08-.05-.2.06-.44.23-.55.25-.15.53-.04.68.18.18.25.37.49.56.74.24.34-.17.9-.56.73Zm1.24-5.02c-.05-.12-.12-.22-.19-.32-.11.12-.27.19-.46.15-1.03-.21-2.06-.02-3.1.05-.65.05-1.3.01-1.94,0-1.27-.03-2.93-.13-3.91.83-.4.39-1.09-.12-.79-.61.57-.92,1.4-1.16,2.4-1.42,1.22-.31,2.47-.59,3.73-.57,1.24.01,2.47.34,3.71.34.32,0,.56-.07.82.17.33.3.55.72.7,1.12.23.6-.74.86-.96.27Zm2.39,3.85c-.09.1-.22.14-.35.15-.02,0-.03,0-.05-.01-.09.14-.2.28-.35.38-.2.14-.49.15-.69.01-.22-.14-.33-.39-.39-.63-.06-.27.08-.53.35-.62.12-.04.27-.01.38.05.04-.09.07-.18.09-.28,0,.04-.01.08-.02.12,0-.07.01-.13.04-.19.02-.06.05-.12.1-.16.06-.06.14-.1.22-.13.11-.03.23-.02.33.03.06.02.12.05.16.1l.08.1c.16.21.25.47.25.73,0,.13-.06.26-.15.35Z"/>
    <path class="cls-2" d="m588.25-125.44c10.51-.43,20.94-.74,31.45-1.12-11.16-.19-22.36-.41-33.58-.43-11.23-.04-22.49-.03-33.78.02-11.29.08-22.6.17-33.93.25-11.33.09-22.68.31-34.03.56-22.71.49-45.46,1.07-68.19,1.68-22.72.77-45.43,1.53-68.05,2.3-22.63.69-45.17,1.64-67.57,2.4-22.41.71-44.68,1.41-66.75,2.11-22.07.66-43.95,1.16-65.58,1.43-21.62.4-43,.6-64.08.5-5.31-.56-13.28-1.39-21.25-2.23-7.97-.85-15.94-1.59-21.27-2.13-84.25.8-188.89,12.18-272.16,24.24-20.83,3.06-38.56,10.58-51.05,17.33-6.25,3.38-11.2,6.56-14.58,8.9-3.38,2.36-5.2,3.87-5.2,3.87-10.06,4.91-19.67,13.58-8.86,16.24,5.26-.08,12.46-.54,20.32-.94,7.86-.41,16.37-.85,24.25-1.05,15.75-.4,28.97.18,29.35,3.96.19,1.89-10.2,2.94-20.63,3.99.76,7.57-28.91,25.8-39.29,26.91-10.04,4.91-71.13,22.95-81.08,27.84-15.27,4.57,1.28,11.31,26.81,17.18,12.77,2.92,27.8,5.6,42.25,7.63,7.23,1.01,14.31,1.86,20.89,2.5,6.59.65,12.69,1.13,17.94,1.31,21.11,1.68.97,9.45,1.56,15.12,20.51-3.98,31.44.64,51.94-3.34.05.47,3.97.56,10.31.36,3.17-.09,6.95-.27,11.15-.48,4.2-.19,8.83-.43,13.69-.71,19.46-1.12,42.78-2.84,58.3-4.31,0,0,2.54-.72,8.97-1.8,6.42-1.11,16.73-2.45,32.25-3.82,10.36-.91,10.19-2.81,10.03-4.69q.17,1.89.33,3.79c10.04-4.69,31.08-2.72,41.29-5.53q.16,1.9.32,3.79c10.18-2.83,20.54-3.63,30.91-4.24,10.38-.6,20.77-.96,31.05-2.75q.15,1.89.3,3.79c10.38-.84,20.7-1.68,20.85.21q.15,1.89.3,3.79c5.26.54,12.99-.6,19.45-1.31,6.46-.72,11.64-1.1,11.78.79q-.14-1.89-.29-3.79c41.46-3.06,72.66-3.58,103.87-3.7,10.42.25,21.16.29,32.14.17,10.99-.1,22.22-.48,33.66-.81,22.87-.74,46.52-2.07,70.47-3.77,5.99-.43,12-.85,18.02-1.28,6.02-.45,12.05-.89,18.09-1.34,12.07-.93,24.16-1.93,36.21-2.97,24.1-2.11,48.04-4.21,71.33-6.24,10.37-.49,20.56-4.79,10.01-8.08,10.37-.5,20.78-.99,31.15-1.49,20.75-.85,10.13-6.13,30.89-6.98,20.73-2.02,41.47-3.82,62.23-5.26,20.76-1.38,41.54-2.52,62.31-3.51,20.78-1.05,41.57-1.65,62.36-2.25l31.19-.82,15.6-.37,15.6-.25,62.39-.95,62.39-.82,62.38-1.21c20.79-.47,41.59-1.11,62.38-1.99-20.81-.78-39.03-2.06-57.24-2.86-9.11-.4-18.21-.69-27.64-.73-9.43-.03-19.17.27-29.56.88-.03-1.9-.07-5.69-10.49-5.54-15.62-.25-31.89-.13-47.98.08-16.1.26-32.03.69-46.99.88-14.96.2-28.95.2-41.16-.29-12.21-.46-22.64-1.32-30.5-3.01-10.46-1.6-21.01-7.01-52.28-6.14,10.43-.29,20.84-.58,31.26-.87-.05-1.9-.16-5.7-.16-5.7-20.87-.36-44.35-.71-67.83-.79-23.48-.17-46.97-.33-67.84-.48,0,0-.15-3.8-.22-5.69l-20.83.86c-5.34-3.11-2.18-5.62,6.39-7.7,4.28-1.04,9.92-1.97,16.52-2.81,6.6-.84,14.17-1.52,22.3-2.16,32.56-2.54,74.3-4.06,100.37-5.63-.05-1.89-.16-5.69-.22-7.59l-20.9.58-.12-3.8c15.67-.44,30.69-.85,45.38-1.26,7.34-.2,14.61-.41,21.83-.61,3.61-.1,7.21-.2,10.81-.3,3.6-.08,7.19-.15,10.78-.23,14.37-.3,28.73-.61,43.43-.92,7.35-.16,14.78-.31,22.33-.47,7.55-.17,15.23-.33,23.07-.42-10.47.1-31.37.62-41.83.82-.04-1.89-.08-3.8-10.52-3.58,20.91-.44,44.44-.51,67.95-.79,23.52-.33,47.02-1.19,67.91-3.33,10.43-1.96-.08-7.67-31.47-9.07-15.7.23-28.77.42-41.85.61-6.54.1-13.08.19-19.94.29-6.87.14-14.06.29-21.91.46l-.07-3.8c20.94-.53,52.35,1.02,73.26-1.21,10.45-2.06-21.03-5.4-10.6-7.45,10.49-.15,20.96-.31,31.43-2.36-31.46.5-73.3,2.86-104.76,1.74-10.5-1.67-21.02-3.36-21.11-7.15-13.08.75-25.51,1.01-37.3.86-11.79-.09-22.94-.61-33.45-1.5-21.01-1.79-39.46-5.08-55.34-9.38-10.58-3.43-62.99.24-94.43,1.4Z"/>
    <g>
      <path class="cls-7" d="m1434.2,524.9c-41.76-78.71-105.45-152.35-176.14-224.38-49.93-50.88-109.09-101.31-163.96-146.81-78.01-64.68-175.39-102.81-274.79-122.55-99.39-19.73-201.38-21.98-302.72-21.39-64.75.38-131.18,2.21-191.18,26.53-87.29,35.38-149.07,113-206.77,187.45-8.67,11.19-17.53,22.75-21.32,36.39-3.79,13.64,18.79,44.28,29.82,53.15-53.85,103.27-88.97,206.41-92.82,309.32-2.72,163.74-5.76,257.3-5.76,257.3,0,0,476.64,11.02,578.84,8.3,201.36-5.37,732.95-8.18,923.45-19.52-15.5-133.72-36.39-221.98-96.65-343.79Zm-517.68,323.99s-.05-.09-.08-.13c-.01-.02-.01-.02-.02-.03,0,0,0,0-.02-.02-.06-.07-.12-.13-.19-.18-.01,0-.03-.02-.04-.03-.03-.02-.07-.04-.1-.06-.02-.01-.05-.03-.07-.04.02.07.02.15,0,.23-.07.25-.36.44-.62.35-.34-.12-.7-.28-1.06-.34-.02,0-.14,0-.15,0-.08,0-.16,0-.24,0-.16,0-.31,0-.46-.02-.66-.08-1.18-.84-1.13-1.5.03-.38.4-.62.75-.43.05.03.09.05.14.07,0,0,0,0,0,0,0,0,0,0,.02,0,.09.03.18.06.27.09.19.05.39.09.58.12.39.06.74.09,1.17.17.84.14,1.64.47,2.09,1.24.33.56-.54,1.06-.86.5Zm4.97-.29c-.17-.07-.35-.12-.48-.13-.08,0-.17,0-.25,0-.06,0-.14.01-.16.01-.89.58-2.35.24-2.88-.67-.22-.38.14-.85.56-.73.31.09.54.28.77.49.03.02.05.03.08.05,0,0,0,0,.01,0,.03,0,.06.02.09.03,0,0,0,0,0,0,0,0,0,0,.01,0,.05,0,.1,0,.15,0,.08,0,.16,0,.23-.02.05,0,.09-.01.18-.03.08-.01.17-.03.25-.04.17-.03.35-.06.52-.08-.05-.2.06-.44.23-.55.25-.15.53-.04.68.18.18.25.37.49.56.74.24.34-.17.9-.56.73Zm1.24-5.02c-.05-.12-.12-.22-.19-.32-.11.12-.27.19-.46.15-1.03-.21-2.06-.02-3.1.05-.65.05-1.3.01-1.94,0-1.27-.03-2.93-.13-3.91.83-.4.39-1.09-.12-.79-.61.57-.92,1.4-1.16,2.4-1.42,1.22-.31,2.47-.59,3.73-.57,1.24.01,2.47.34,3.71.34.32,0,.56-.07.82.17.33.3.55.72.7,1.12.23.6-.74.86-.96.27Zm2.39,3.85c-.09.1-.22.14-.35.15-.02,0-.03,0-.05-.01-.09.14-.2.28-.35.38-.2.14-.49.15-.69.01-.22-.14-.33-.39-.39-.63-.06-.27.08-.53.35-.62.12-.04.27-.01.38.05.04-.09.07-.18.09-.28,0,.04-.01.08-.02.12,0-.07.01-.13.04-.19.02-.06.05-.12.1-.16.06-.06.14-.1.22-.13.11-.03.23-.02.33.03.06.02.12.05.16.1l.08.1c.16.21.25.47.25.73,0,.13-.06.26-.15.35Z"/>
      <path class="cls-9" d="m28.56,879.91l5.35-256.89c3.85-102.92,38.97-206.05,92.82-309.32-11.03-8.87-33.61-39.52-29.82-53.15,3.79-13.64,12.65-25.2,21.32-36.39,57.7-74.44,119.48-152.07,206.77-187.45,60.01-24.32,126.44-26.16,191.18-26.53,101.33-.59,203.32,1.66,302.72,21.39,99.39,19.73,196.78,57.87,274.79,122.55,54.87,45.5,114.04,95.94,163.96,146.81,70.68,72.03,134.37,145.67,176.14,224.38,0,0,76.44,128.34,97.07,343.38"/>
      <g>
        <path class="cls-1" d="m1284.43,278.22c-12.12,25.99-45.69,26.98-53.19,26.9-29.64-.3-50.92-21.41-64.78-35.16-7.94-7.89-11.72-13.37-14.88-18.5,5.26,20.47,1.66,39.9-9.74,51.39-17.74,17.86-48.5,10.56-58.44,8.2-33.55-7.95-53.25-33.52-62.42-45.43-8.1-10.51-11.47-17.73-13.95-24.48-6.71,8.89-18.94,21.19-37.17,24.63-30.37,5.72-53.84-17.6-63.04-26.73-12.67-12.59-19.75-26.71-23.73-38.47-1.19,13.55-5.47,28.53-15.72,42.76-25.65,35.61-67.56,37.11-75.64,37.21-5.93.07-47.99-.12-74.56-33.14-2.17-2.69-4.16-5.52-5.97-8.44-2.6,8.8-7.14,19.29-15.23,29.24-24.17,29.74-64.81,36.07-95.03,29.73-11.58-2.42-51.48-10.8-64.61-46.7-3.47-9.5-4.49-19.35-3.55-28.93-3.25,1.02-6.68,2.39-10.21,4.19-18.04,9.27-22.34,22.32-33.42,34.23-18.04,19.39-51.78,33.7-80.48,24.41-3-.97-33.68-11.45-42.84-40.78-4.52-14.48-2.15-28.27,2.73-40.06-6.53,2.46-13.58,6.13-20.23,11.69-11.38,9.51-16.5,20.29-23.91,36.52-22.1,48.45-21.63,51.52-26.55,60.22-20.17,35.62-74.88,66.64-120.76,50.23-21.58-7.71-41.32-25.96-50.38-49.25-6.96,3.68-17.83,7.92-30.79,6.98-32.29-2.36-61-35.71-60.02-68.2,1.16-38.31,43.17-60.53,46.37-62.16,20.39-10.42,32.07-5.33,50.41-18.74,17.61-12.9,24.55-30.54,28.24-39.09,23.35-54.31,70.36-102.65,88.75-121.57,40.31-41.44,82.81-57.77,139.86-79.68,96.13-36.93,177.64-39.76,224.47-40.98,56.57-1.48,128.39-2.72,216.43,25.89,31.69,10.3,110.75,36.82,185.84,101.94,34.02,29.5,35.66,39.54,79.3,74.71,53.43,43.05,79.07,66.83,117.32,83.95,13.64,6.11,38.96,16.28,57.15,41.87,6.05,8.51,25.5,35.77,14.38,59.6Z"/>
        <path class="cls-9" d="m126.72,313.69c-6.96,3.68-17.83,7.92-30.79,6.98-32.29-2.36-61-35.71-60.02-68.2,1.16-38.31,43.17-60.53,46.37-62.16,20.39-10.42,32.07-5.33,50.41-18.74,17.61-12.9,24.55-30.54,28.24-39.09,23.35-54.31,70.36-102.65,88.75-121.57,40.31-41.44,82.81-57.77,139.86-79.68,96.13-36.93,177.64-39.76,224.47-40.98,56.57-1.48,128.39-2.72,216.43,25.89,31.69,10.3,110.75,36.82,185.84,101.94,34.02,29.5,35.66,39.54,79.3,74.71,53.43,43.05,79.07,66.83,117.32,83.95,13.64,6.11,38.96,16.28,57.15,41.87,6.05,8.51,25.5,35.77,14.38,59.6-12.12,25.99-45.69,26.98-53.2,26.9-29.64-.3-50.92-21.41-64.78-35.16-19.29-19.13-13.98-24.13-35.04-44.26-15.76-15.05-23.77-17.08-45.82-35.48-15.4-12.85-26.71-24.56-33.55-32.05"/>
      </g>
    </g>
  </g>
  <g>
    <path class="cls-3" d="m28.16,64.09c-5.21-3.27-10.49-6.49-15.12-10.47-4.63-3.97-8.65-8.76-10.73-14.36S-1.32,20.78,1.67,15.54s10.77-7.87,16.99-7.26c6.22.61,11.73,6.04,11.34,11.98-.09-6.38,9.24-11.6,15.91-12.38,19.13-2.25,19.49,26.09,11.85,38.11-3.08,4.85-7.61,8.75-12.74,11.58-2.49,1.37-5.11,2.42-7.82,3.33-1.07.36-8.41,3.6-9.05,3.2Z"/>
    <path class="cls-11" d="m28.33,61.63c-4.97-3.28-10-6.53-14.42-10.52s-8.25-8.8-10.25-14.41S.16,18.18,2.99,12.94c2.83-5.24,10.23-7.85,16.15-7.23s11.18,6.09,10.82,12.03c-.1-6.39,8.76-11.59,15.1-12.35,18.2-2.19,18.61,26.18,11.38,38.19-2.92,4.85-7.21,8.74-12.09,11.56-2.37,1.37-4.86,2.41-7.43,3.31-1.02.36-7.99,3.58-8.6,3.18Z"/>
    <path class="cls-8" d="m28.33,51.45c-4.97-3.28-10-6.53-14.42-10.52s-8.25-8.8-10.25-14.41-2.01-12.09.82-17.33C7.3,3.95,13.21.27,19.14.9s11.18,6.09,10.82,12.03c-.1-6.39,5.57-11.52,11.91-12.28,18.2-2.19,21.8,20.75,14.58,32.76-2.92,4.85-7.21,8.74-12.09,11.56-2.37,1.37-4.86,2.41-7.43,3.31-1.02.36-7.99,3.58-8.6,3.18Z"/>
  </g>
</svg>