<?xml version="1.0" encoding="UTF-8"?>
<svg id="_Слой_2" data-name="Слой 2" xmlns="http://www.w3.org/2000/svg" viewBox="0 0 46.46 42.73">
  <defs>
    <style>
      .cls-1 {
        fill: #843e1f;
      }

      .cls-1, .cls-2, .cls-3 {
        stroke: #000;
        stroke-linecap: round;
        stroke-linejoin: round;
      }

      .cls-2 {
        fill: none;
      }

      .cls-3 {
        fill: #af713f;
      }
    </style>
  </defs>
  <g id="_Слой_1-2" data-name="Слой 1">
    <g>
      <path class="cls-1" d="m45.05,29.8c-.09-.15-.17-.29-.28-.44-.57-.81-1.48-1.48-2.33-2.04-3.44-2.25-6.87-4.5-10.3-6.74,3.33-2.59,6.67-5.32,9.97-7.79.42-.31.86-.67,1.15-1.09.11-.14.19-.29.25-.46.8-1.64.46-3.48.11-4.56,0,0,0-.02,0-.02-.02-.34-.17-.64-.35-.92,0,0,0-.02,0-.02-.21-.3-.48-.57-.74-.82-1.53-1.46-3.04-2.93-4.57-4.4-6.02,3.37-11.68,7.31-16.63,12.11-4.25-3.37-9.02-6.28-13.78-8.88-1.82,1.68-3.64,3.46-5.45,5.14v3.93c3.44,2.38,6.72,5.07,9.89,7.83-4.42,2.47-8.38,5.87-11.48,9.84v3.93c.87,2.25,2.04,4.62,3.49,6.54.04.65,1.26,1.37,1.9,1.27.64-.1,1.18-.54,1.68-.97,4.98-4.27,9.92-8.59,14.9-12.86,5.08,3.43,10.16,6.85,15.25,10.28.87.59,1.83,1.2,2.88,1.14,1.13-.06,2.04-.89,2.87-1.66.68-.64,1.38-1.34,1.71-2.19,0,0,0,0,0-.02h0c.17-.28,1.72-2.93-.14-6.16Z"/>
      <path class="cls-3" d="m4,37.02c-1.45-1.92-2.63-4.29-3.49-6.53,3.75-4.8,8.77-8.78,14.32-11.28-4.08-3.62-8.25-7.23-12.73-10.33,1.81-1.68,3.64-3.46,5.45-5.14,4.76,2.6,9.54,5.5,13.78,8.88C26.27,7.81,31.93,3.87,37.95.5c1.52,1.47,3.05,2.93,4.57,4.4.51.5,1.06,1.06,1.1,1.78.04.92-.77,1.62-1.5,2.18-4.23,3.17-8.51,6.74-12.74,9.91,4.36,2.85,8.71,5.7,13.07,8.56,1.43.94,3.04,2.2,2.93,3.91-.08,1.21-1.02,2.16-1.9,3-.82.77-1.74,1.59-2.86,1.66-1.05.06-2.01-.55-2.89-1.14-5.08-3.43-10.17-6.85-15.25-10.28-4.98,4.27-9.92,8.59-14.9,12.85-.5.43-1.03.87-1.68.97s-1.86-.62-1.9-1.27Z"/>
      <path class="cls-2" d="m11.86,26.94c-2.9,0-5.81.16-8.7.48"/>
      <path class="cls-2" d="m4.27,30.09l3.06.06"/>
      <path class="cls-2" d="m36.36,13.32c-3.41.24-6.83.49-10.25.74"/>
      <path class="cls-2" d="m39.76,10.65c-2.34.09-4.67.17-7.01.24"/>
      <path class="cls-2" d="m38.03,24.43c-.92.05-1.84.09-2.76.13-.57.03-1.16.06-1.73.09"/>
      <path class="cls-2" d="m30.83,27.57c2.04-.4,4.12-.6,6.21-.6"/>
      <path class="cls-2" d="m10.2,11.01l4.72-.23"/>
    </g>
  </g>
</svg>